<?xml version="1.0" encoding="utf-8"?>
<!-- Generator: Adobe Illustrator 19.0.0, SVG Export Plug-In . SVG Version: 6.00 Build 0)  -->
<svg version="1.1" id="Cuba" xmlns="http://www.w3.org/2000/svg" xmlns:xlink="http://www.w3.org/1999/xlink" x="0px" y="0px"
	 viewBox="601 268.3 1705 556.5" style="enable-background:new 601 268.3 1705 556.5;" xml:space="preserve">
<style type="text/css">
	.st0{fill:#1CA638;}
	#GT{fill:#2CA688;}
	<!-- .st0{fill:#2CA688;} -->
</style>
<g id="provincias">
	<path id="GT" class="st0" d="M2103.6,728.3c0.5-0.1,1.8,1.6,4.1,1.6l0.5-0.2c0-1.1,0.3-3.7,2-3.2l0.8,0.3c0.3-0.1,0.8-0.3,1-0.5
		c0.2-1.2,1.6-3,2.8-3.4c1.6-0.4,2,1.2,2.9,1.9c0.5,0.4,1.3,0.6,1.9,1c1.2,0.8,0.9,3.1,4.6,4.3c0.6-0.4,3.7-2.4,4.3-2.1
		c0.3,0.4,0.2,1.6,0.3,2.1l1.4,1.2h0.7c0.3-0.3,1.4-1.6,1.8-1.7l0.5-1c-0.1-0.6-0.6-1.6-1-2c-0.6-2.1,2.3-5.1,3.6-6.3
		c1-0.2,2.3-0.7,3.1-1.2c0.4-0.3,0.8-0.9,1.4-1.2h0.6c1.1,1,2.3,2.7,3.9,2.1c1.6-2.5,4.9-3,7.4-3.9c0.8-0.3,1.9,1.5,2.3,1.9l5.5,5.7
		c1.2,1.2,5.9,2.9,7.4,1.3h0.5c-0.1,0.9,0.5,3.2,1.5,3.6c0.6,0.5,1.9,0.6,2.6,0.5l0.9-0.8c0.5-1.2-1.1-4.1-1.8-5.2h-0.3l-0.2,0.3
		l-1.3,0.5l-0.1,0.1c0-0.2,0-1,0.1-1.2l0.5-1.1c0-0.2-0.3-0.7-0.5-0.8l-1.4-1v-0.5c0.2-0.3,1.1-0.3,1.4-0.2c2,0.3,4.3-0.5,6.1-1.1
		l0.5,0.1c2.9,2.6,5.7,5.3,8.8,7.7c0.3,0.3,2.4-0.4,2.8-0.5c0.9-0.2,3.9,3,4.5,3.6c0.6,0.6,1.9,0.8,2.7,0.7c0.3,0,0.8-0.6,0.9-0.8
		c-0.1-1.6,0.5-3.3,2.2-3.5c0.2-0.6,4.7-2.1,5.6-2.2c0.7-2.7-0.9-2.4-1.2-3.5c-0.6-2.4-0.3-3.2,0.4-5.6c0.7-2.6,1.6-3.7,3.5-5.7
		c0.1-0.1,0.6-0.4,0.8-0.5c0.3-0.2,0.4-0.5,0.7-0.7l2.4,0.1l0.4-0.2c1.3-1.3,2.3-2.2,4.2-2.7l1.8,0.9l0.3,1.5l-0.3,0.6l0.3,0.2
		c0.8,0.1,1.7-0.2,2.4-0.5c0.7,0.3,2.1,1.2,2.3,2l-0.3,0.2l-0.5-0.1l-0.3,0.3l0.9,1.6l0.5,0.2l0.6-0.9l-0.3-0.9
		c1-0.5,1.7,0.7,2.4,1.2s1.5,0.5,2.2,0.9c0.9,0.6,1.6,1.3,2.4,2l0.2,0.5l-0.9,0.5v0.5l0.2,0.1l1.1-0.6l1.1,1.1l2-0.3l0.9,0.5
		c0.9,2,1.5,3.3,3.7,4.1l0.2,0.5l-0.3,0.7l-0.8,0.4c1,1.5,2.6,0,2.7,4.1l0.3,0.1l0.9-0.6c3.2,0.3,2.3,3.6,3.7,5.5
		c-0.2,0.3-0.4,0.6-0.6,0.9l1,0.4c0.2,1.2,0.7,2.5,2.1,2.6l0.3-0.5c0.5,0.5,1.9,2,1.3,2.8l-0.8,0.4v0.3l0.4,0.2l0.8-0.2l0.7,0.4
		c0.2,0.4,0.3,0.9,0.5,1.2c0.4,0.6,2.1,0.8,2.7,0.5l0.2-1.2c0.1-0.1,0.3-0.3,0.4-0.3c0.3-0.2,2.6,0.3,2.9,0.6l7.3,6l-1.4,0.9v0.2
		l1.9-0.7c0.8,0.6,2.1,1.8,3,1.9v0.5l-0.8,0.6l0.1,0.7l0.4,0.3h0.5l0.4-0.4V748l0.6-0.9c1.4-0.5,3.6-0.4,5,0.1
		c0.8-0.8,4.5,0.1,5.7,0.1c0.7,0,2-1.9,2.4-2.5c1.9-0.6,4-0.4,5.9-1c0.4-0.1,0.9-0.4,1.3-0.4c0.3,0,4,0.3,4.1,0.3
		c0.5,0.2,0.9,0.5,1.3,0.8c0.8,0.5,1.7,1,2.6,1.5c1,0.6,4.4,4.2,5.3,5.2c0.4,0.4,0.6,0.9,1,1.2c0.8,0.7,1.2,0.4,1.8,1.5
		c-0.7,0.9,1.2,3.1,1.3,4.1c0.2,1.3,0.5,2.8,0.4,4.2c-0.1,0.8-0.4,1.6-0.8,2.3c-2,3.6-3.2,3.5-6.5,5.4c-2.1,1.2-4.1,3-6.5,3.3
		c-3.1,3.4-1.3,3.8-2,7.1c-0.4,2.2-5,4.4-7.1,4.6c-0.7,0.1-2.4,0-3.1-0.2c-0.5-0.5-1.7-1.8-2.3-2.1c-0.6-0.2-2.6-0.2-3.1,0.1
		l-0.6-0.2c-1.4,1.3-3.3-0.2-4.9,0c-4.7,0.7-9.3,2.2-14,2.5c-0.7,0-1.3-0.2-1.9-0.2c-0.7,0-1,0.5-1.8,0.4c-0.2-0.4-0.6-0.7-1-0.8
		c-0.6,0.3-1.3,0.6-1.9,0.9l-0.7-0.1c-1.3,1.1-2.9,0.2-4.5,0.4c-1.3,0.2-2.9,0.6-4.2,1.1c-0.8,0.3-1.4,1.1-2.4,1.2
		c-0.9,0.1-1.9,0-2.8-0.1c-1.1-0.2-3.6-1.3-4.5-1.1c-0.6,0.1-1.3,0.2-1.8,0.4c-0.6,0.2-0.7,0.8-1.4,0.7c-0.2,0.2-0.4,0.4-0.7,0.6
		c-0.5,0.4-5.9-0.8-6.9-1l-0.7-0.7c-0.5,0.5-1.3,0.4-1.8,0c-0.6,0-3.1,0.1-3.5,0.3c-0.9,0.4-1.5,0.9-2.5,1.1l-0.3-0.3l-0.7,0.3
		c-0.2-0.1-0.3-0.2-0.5-0.2c-0.2-0.1-2.5,0.2-2.8,0.3c-1.1,0.3-2.2,1.4-3.3,1.4l-1-0.8c-2.7-0.2-1.8,0.6-3,1
		c-1.1,0.3-2.3,0.3-3.5,0.4l-1.5,1.3h-0.4l-1-1.1l-1.3,0.5l-0.2,0.4l0.2,0.3l1.2-0.2l0.7,1.1c-0.2,1.1-1.8,1.2-2.6,1.6
		c-0.6,0.4-1.1,2.4-1.7,3.2c-1,0.3-1.7,1.1-2.7,1.5c-1.4,0.5-3,1-4.4,1.3c-1.8,0.4-3.6-1.8-5.1,0.2l0.7,0.4c0.7,2-0.7,2.3-1.5,3.7
		c-0.2,0.4-0.3,0.8-0.5,1.2c-0.5,0.9-3.1,3.3-4.2,3.4c-0.5,0-0.9,0-1.4,0c-0.3,0-2.3,1.3-3,1.4c-1.7,0.5-3.5,0.4-5.1,0.5l-0.3-0.4
		h-0.7l0.2,0.7c-1-0.1-2.5,0.5-3.4,1l-1.3-0.3c-0.8,0.1-1.4,0.2-2.1,0c-1.5,1-1.9,0.5-3,0.7c-0.1,0-0.5,0.3-0.6,0.3h-4l-0.9,0.6
		h-1.7l-0.5-0.9c0.2-0.4,0.3-1.2,0.1-1.6l0.3-0.5l-0.1-1.1l0.3-0.5h1.2l0.1,0.8h0.2l1.1-1.1l0.7,0.1l0.2-0.2l-0.3-0.6
		c1.8-0.2,1.1-1.2,2.3-2l0.1-0.9l1.3,0.3l-0.2-0.8l1.2-0.1l1.1,0.6l1.3-0.1l-0.8-0.9l0.1-1.1l0.3-0.2l-0.5-0.6c-0.5-0.2-1.5,0-2,0.2
		l-0.4-0.4l0.4-1.1l-0.4-0.5l-1,2l0.4,0.6l-0.1,0.2l-1.1,0.1l-0.3-0.5l0.6-0.6l-0.9-0.3l-0.7-0.9l0.6-0.6l-0.2-0.1l-0.6-0.3
		c0.1-0.1,0.4-0.6,0.6-0.7l-0.9-0.5l-0.1,0.3l-1.6-0.5l-0.1,0.5h-0.6l-0.1,0.8l0.3,0.3l0.4,0.5l-0.2,0.3l-1.1-0.2l-0.4-0.4h-0.4
		l-0.3,0.4l0.5,1l0.8,0.1l-0.1,1.3l-0.8-0.7l-0.6,0.1l-0.2,0.5l0.4,0.7c0.5,0.1,1.6,1,1.9,1l0.6-0.4l0.2,0.8l0.3,0.2l-0.3,0.5
		c-2-0.5-4.7,0.5-6.4,1.6l-0.4,0.9l0.1,0.9l-0.4,0.2c-0.3-0.1-0.6-0.1-0.9-0.2l-0.1-0.3l0.4-1l-0.1-0.6l-0.5-0.4l-0.8-0.1l-0.6,0.6
		l-0.5,0.1l-0.3,0.7l0.3,0.3h0.8l0.1,0.6l0.7-0.3l0.2,1.1l0.5,0.2l1.9-0.6l0.4,0.1v0.4l-0.5,0.6c-2,0.4-4.7-0.3-6.4,0.9
		c-0.8,0-1.7,0-2.5,0.2c-0.9,0.2-1.7,0.7-2.5,0.9c-0.5,0.1-1,0-1.5,0.2c-1,0.3-1.5,1.2-2.7,1.4c-0.9,0.1-1.9-0.3-2.7,0.4l-1.1-0.1
		l-1.1-0.8l-0.7,0.6c-1.3-0.2-2.6,0.4-3.9,0.1c-0.3,0.3-0.8,0.4-1.2,0.4c-0.1-0.3-0.6-1-1-1c-0.3,0-0.5,0.1-0.8,0.1
		c-0.5,0-1.2-0.1-2-0.2l0,0c-0.8-2.2-2.6-4.1-4-6c-0.1-0.1-0.5-0.3-0.6-0.4c-0.7-0.7-1.5-1.4-2.1-2.1c-1-1.1-1.8-2.4-2.8-3.5
		c-0.1-0.1-0.2-0.1-0.3-0.2c-0.3-0.3-0.6-0.8-0.9-1c-0.9-0.8-2.2-1.5-2.9-2.4c-1.1-1.5-1.9-3.2-2.7-4.7c0,0-0.1-0.3-0.1-0.4
		l-0.2-0.1c0.2-0.5-0.1-0.6-0.1-0.9l-0.2-5.2c0-0.1,0.1-0.3,0.1-0.4l0.1-2.9c0-0.2,0.5-0.6,0.7-0.6h0.3c0.5,0.6,1.3,1.6,2.1,2
		c0.4-0.8,0.7-2,0.8-2.9c0.8-0.9,4.9-1.1,5.4-2.1c0.7-1.1,0.5-4-0.8-4.8c-0.2,0.1-1.4,0.9-1.6,0.8c-0.9-0.5-1.3-2.3-1.1-3.2l0.4-0.6
		l-0.1-0.4l0.2-0.1l0.3-0.6c0-0.6-0.4-1.4-0.6-2l-1.7-1.2c-0.4-0.7-0.8-1.8-0.7-2.6c-1.9-1.9-1.5-3.1-0.9-5.7
		c-0.6-1.4-2.6-1.9-1.6-3.8c0.3-0.6,0.8-1.2,1.3-1.6h0.2c0.5-0.3,1.2-0.9,1.4-1.4v-0.5c0-0.1-0.2-0.3-0.2-0.3
		c-0.1-0.5-0.4-1.2-0.5-1.7c-0.2-2.1,1.4-3.5,0.7-6.1c0-0.2-0.1-0.2-0.2-0.4c-0.3-0.5-0.5-1.3-0.6-1.6c-0.4-0.6-2.2-2.6-1.9-3.4
		c0.6-1.2,2.5-1.1,3.5-1.4c0.9-0.3,3.9-2.1,4.4-2.8c0.7-0.9,1.3-2.6,1.4-3.8C2103,730.8,2102.4,728.8,2103.6,728.3z"/>
	<path id="SC" class="st0" d="M1864.7,812.6c-4.5-0.6-4.6,1.5-8.4,2.2c-0.8,0.1-2.7,0.3-3.5,0c-0.7-0.2-1.2-0.8-1.8-1
		c-0.5-0.2-1.1-0.1-1.7-0.2h-0.1c0.3-0.8,0.5-2.3,0-3.1c-0.5-0.6-2.9-3.7-2.6-4.4c4.1-0.3,8.4-0.6,12.5-1.4c1-1.5,2-3,3.1-4.4
		c0.5-0.7,1.2-1.3,1.7-2c0.6-0.8,1.2-1.8,1.8-2.7c0.9-1.1,5.5-0.5,6.7-0.4l0.1,0.2c1.1,0.1,2.3,0.2,3.4,0c0.3,0,0.9-0.4,1.1-0.4
		l3.7,0.1c0.6-0.2,1.8-2.1,1.6-2.4c0.7-1.6,2.4-3.4,4.2-2.5l1.9,2.3c0.5,0.6,1.5,0.3,2.1,0.6c0.7,0.4,0.9,1.6,1.8,1.7l0.5-0.1
		c0.3-0.5,0.4-1.2,0.5-1.7c0.3-0.5,2.6-0.2,3.2-0.2c0.6-0.4,1.3-1,1.8-1.7h0.3l0.3,0.2c0.3,0.4,0.7,0.9,1,1.3
		c0.1,0.2,0.2,0.5,0.3,0.6c0.6,0.9,1.5,1.9,2.6,2.1c0.8,0.1,1.9,0,2.7,0.3c0.8,0.2,1.3,1,2.2,1.1l-1.1,5.8c-1,0-2.3,0.3-3.6,1.5
		l-1.2-0.1l-1.2,1c-1.8,0-3.7,0.3-5.5,0.1c-0.4,0-0.7-0.2-1.1-0.3s-2.2-0.2-2.5,0c-0.4,0.2-0.7,0.5-1,0.7c-0.8,0.5-1.8,0.8-2.7,1.3
		c-1.2-0.4-2.5,0.1-3.7,0.1c-0.9,0-4.5-0.3-4.9-0.2c-0.3,0.1-0.5,0.2-0.8,0.3c-0.5,0.1-2.4-2.4-3.6-0.5c-0.2,0.3-0.3,0.6-0.4,0.9
		c-0.8,0.4-1.6,0.7-2.4,1.2c-1.6,1-2.9,2.5-4.6,3.2C1866.4,812.3,1865.4,812.1,1864.7,812.6z M1916.3,793.7c0,0.4-0.2,2.2-0.4,2.4
		c-0.7,0.4-4-0.6-4.6-0.8c-1.1,0.6-2.5,1.3-3.7,1.5l-1.1,5.8c1.2,0,2.2,0.4,2.8-0.1c2,0.9,4.6,1.3,6.8,1.4c0.8,0,1.2-0.3,2-0.2
		c2.8,0.6,2.8,1.9,5.8,0c2.3,0.5,6.5,0.8,8.8,0.1c0.7-0.2,1.4-0.7,2.1-0.8c0.6-0.1,1.3,0,1.9-0.1c1-0.2,1.8-0.8,2.7-1.1
		c1.6-0.5,2.7,0.5,3.6,0.1c0.5-0.2,0.9-0.6,1.3-0.9c0.9-0.5,3.3,0,4.1,0.6l1.4-0.9l2.1,0.2l0.9,0.8h1l1,0.8l0.7-0.1l0.6,0.3l2.1-1.9
		c0.7-0.1,1.4-0.2,2-0.5c1,0.4,1.8,0.7,2.7-0.1l-0.1-0.7l1.7,0.1l0.4-0.5l-0.4-0.8l0.3-0.2c0.3,0.2,0.6,0.5,0.9,0.7
		c1,0.6,2.7-0.6,3.2-1.4h1.6l1.2-0.8c1.7,0.1,3.4,0.3,5.1-0.2l1,0.6c1.6-0.1,4.2-0.1,5.3,1.2c0.9,0,1.8,0.1,2.7,0
		c0.6-0.1,0.8-0.5,1.5-0.2l1.6-1l0.6,0.1l0.3,0.5l-0.1,0.7c1.4-0.6,3.9,1.3,5.3,1.7c0.4,0.1,0.9,0.1,1.3,0.1l0.3,0.5
		c2.1-0.7,3,0.9,4.3,1c1.9,0.1,3.8-0.3,5.6,0.1c0.7,0.2,1.2,0.7,1.8,0.9c0.2,0.1,3.3,0.1,3.5,0c0.6-0.2,1-0.6,1.6-0.7
		c0.8-0.2,2.3,1.5,4.7,0.8c2.4-0.7,4.2-2.1,6.8-1.9l0.4-0.6l-0.1-0.6l-0.8-0.8l0.1-0.4l1-0.6l0.7,0.4l-0.6,0.9l0.3,0.8l0.6,0.5
		c1.8-0.4,3.5,0.3,5.3,0.1l0.4-0.6l-1.1-0.5l-0.2-0.8l-1-0.5l-0.1-0.5l0.3-0.5l-0.3-0.5l0.8-0.2l0.2-0.6l0.2-0.1
		c0.5,0.4,0.9,0.7,1.5,0.8l0.4-0.3c0.1-0.6,0.3-1.3,0-1.8l0.5-0.3l0.1-1.5l-0.9-0.8v-0.4l2.1,0.2c0.3-0.3,0.9-0.4,1.4-0.3l0.8-0.5
		l1.2,0.4l0.1,0.3c-0.3,0.7-0.7,1.5-1.3,2c-0.3,0.2-0.5,0.2-0.8,0.4c-0.9,0.6-0.8,1.5-2.2,2.2l-0.3,0.7c-0.5,0.1-1.4,0.3-1.7,0.8
		l1,1l0.7-0.7l0.3,0.1l0.1,0.2c-0.9,0.5-1.4,1.7-0.9,2.6l0.9,0.3c0.6-0.4,4.4-0.1,5.6-0.5l0.6,1.1h4.5c0.2,0,0.8,0.3,1,0.4
		c1.4,0.4,3-0.2,4.4,0.5c1.1,0.6,0.8,1,2.4,1c0.4,0,1.3-0.6,1.7-0.7c0.3-0.1,0.7,0,1-0.1s0.7-0.5,0.9-0.6h2.8
		c0.2,0.5,0.3,1.2,0.6,1.7c0.2,0.3,2,1.6,2.2,1.6c0.6,0,1.3,0,1.9-0.1l0.8,0.9c1.6-0.1,2.5,1.7,4,1.6l0.4,0.8c1,0.3,1,1.1,1.3,1.2
		l4.4,2.3l0.7,0.1c0.6,0.1,1.2,0.4,1.7,0.7c1.6-0.4,1.6,0,3.1,0.3c0.9,0.2,1.8,0.3,2.8,0.4c2.1,0.4,3.3,1.1,5.4,0.2
		c1,0.8,5.5,0.6,6.8,0.3l0.5-0.5l2-0.1l0.8-0.6c0.3-1.1,0.7-1.9,2.1-1.6c0.5,0.8,1.7,1.4,2.6,1.7l0.2,0.8c0.7,0.3,1.4,0.5,2.1,0.5
		c0.8-0.7,2.5-0.5,3.9-0.3l0,0c-0.8-2.2-2.6-4.1-4-6c-0.1-0.1-0.5-0.3-0.6-0.4c-0.7-0.7-1.5-1.4-2.1-2.1c-1-1.1-1.8-2.4-2.8-3.5
		c-0.1-0.1-0.2-0.1-0.3-0.2c-0.3-0.3-0.6-0.8-0.9-1c-0.9-0.8-2.2-1.5-2.9-2.4c-1.1-1.5-1.9-3.2-2.7-4.7c0,0-0.1-0.3-0.1-0.4
		l-0.2-0.1c0.2-0.5-0.1-0.6-0.1-0.9l-0.2-5.2c0-0.1,0.1-0.3,0.1-0.4l0.1-2.9c0-0.2,0.5-0.6,0.7-0.6h0.3c0.5,0.6,1.3,1.6,2.1,2
		c0.4-0.8,0.7-2,0.8-2.9c0.8-0.9,4.9-1.1,5.4-2.1c0.7-1.1,0.5-4-0.8-4.8c-0.2,0.1-1.4,0.9-1.6,0.8c-0.9-0.5-1.3-2.3-1.1-3.2l0.4-0.6
		l-0.1-0.4l0.2-0.1l0.3-0.6c0-0.6-0.4-1.4-0.6-2l-1.7-1.2c-0.4-0.7-0.8-1.8-0.7-2.6c-1.9-1.9-1.5-3.1-0.9-5.7
		c-0.6-1.4-2.6-1.9-1.6-3.8c0.3-0.6,0.8-1.2,1.3-1.6h0.2c0.5-0.3,1.2-0.9,1.4-1.4v-0.5c0-0.1-0.2-0.3-0.2-0.3
		c-0.1-0.5-0.4-1.2-0.5-1.7c-0.2-2.1,1.4-3.5,0.7-6.1c0-0.2-0.1-0.2-0.2-0.4c-0.3-0.5-0.5-1.3-0.6-1.6c-0.4-0.6-2.2-2.6-1.9-3.4
		c0.6-1.2,2.5-1.1,3.5-1.4c0.9-0.3,3.9-2.1,4.4-2.8c0.7-0.9,1.3-2.6,1.4-3.8c0-0.9-0.6-2.9,0.6-3.4c0.5-0.1,1.8,1.6,4.1,1.6l0.5-0.2
		c0-1.1,0.3-3.7,2-3.2l-0.1-1.3c-0.8-1.8-2.6,0.1-3.1-4.1c-0.4,0.1-1.3,0-1.6-0.2l-0.8-1.1c-1-0.2-3.2-1.5-2.4-2.7
		c0.6-0.1,1.3-0.4,1.8-0.8c0.5-1,0.5-2,1.1-2.9l1.9-0.6c0.2-0.2,0.5-0.6,0.5-0.9c0.1-1,0.1-2.1,0.3-3.1c0.2-0.9,0.7-1.5,0.4-2.5
		l-0.6-0.4l-0.8,0.4l-1.5,0.9c-1.5,0.3-3.3-0.2-4.7,0c-0.2,0-1.5,0.8-1.8,0.9c-0.8,0.2-5.8,1-6.4-0.5c-0.5-1.3-0.8-3-2.6-3
		c-0.9,0.2-1.2,1.5-1.8,1.7l-2,0.6c-1.2,1.4-2.5,3.2-3.8,4.5c-1,1-2.6,1.9-3.8,2.8h-0.9c-1.1-1.1-2-1.3-3.3-1.5c0,0-0.2-0.1-0.3-0.1
		l-0.4-0.7h-0.2c-2.8,2.6,0.9,3.7,0.5,7.3c-0.5,1.3-2.2,2.8-3.7,3.1c-2.7,0.5-2.9-0.5-4.9,2c-0.7,0-2.5-0.1-3.1-0.4
		c-3.2,1.3-4.3,1.5-7.1-0.8c-2.3-0.3-4.3,1.4-6.2,2.4c-0.1,0.1-0.3,0-0.4,0.1c-0.1,0.1-0.2,0.2-0.4,0.3c-1,0.4-2.1,0.8-3.1,1.3
		c-0.4,0.2-0.7,0.5-1,0.7c-1.6,0.7-6.5,2.8-8.5,2.2c-1.2-0.3-3.2-2.1-4.2-2.9c-0.5-1-0.3-3.1-1-3.7l-2.2-0.1l-4.1-3.9
		c-0.4-0.4-1.8-0.5-2.3-0.5c-0.2-0.2-0.4-0.4-0.6-0.6c0-1,2.7-2.8,2.5-3.6c0-0.2-0.3-0.6-0.5-0.7c-1.6-0.8-7.5,2.2-8.4-1.2
		c0.5-0.6,1.6-2.5,1.3-3.3c0-0.1-0.3-0.5-0.4-0.5l-5-3.3c-0.4-0.2-0.7-0.6-1-0.8c-0.7-0.4-1.5-0.7-2.2-1.2c-0.8-0.5-1.5-1.7-2.4-1.9
		h-1c-0.3,0.2-0.8,0.8-0.8,1.2c0.1,0.7,2.5,4,3,4.7c0.1,0.2,0,0.8,0,1c-0.7,0.8-4.2,1.9-5.2,2.2l-0.5,0.7l0.1,0.3l-0.6,0.4v0.3
		c-0.7,0.1-1.1,0.6-1.6,0.9c-1.1,0.5-1.2,0.1-2,1.2l-0.1,0.6l0.1,0.3l1.1-0.2l0.5,0.6c-0.3,0.7-0.2,1.9,0.2,2.6l0.8,0.4l0.4,0.7
		c0,1-0.5,2.2,0,3.1l-0.3,0.1c-0.1,0.5-0.5,1.3-0.9,1.6l-0.1,3.2l-2.7,2.6c-0.5,0.5-1.3,0.4-1.9,0.3l-0.1-0.3l0.1-0.6l2.4-2.5
		l0.2-1.1l-0.2-0.2l-0.6-0.1c-3.1,1.6-2.6-1-6.2-1.4c-1.6-0.2-3.6,0.3-5.3,0.3c-0.8,1.4-2,2.5-2.8,3.9c-0.3,0.5-0.4,1.1-0.8,1.5
		c-0.1,0.1-0.6,0.4-0.7,0.5s-0.2,0.3-0.3,0.4c-0.9,0.9-2.3,1.3-3.5,1.6c-0.3-0.9-0.3-2-0.3-3c-3.7-4.1,0.7-5.4-2.3-8.4
		c-0.7-0.2-1.6-0.9-2.2-1.4c-0.6,0.3-1.6,1-1.9,1.6l0.8,2.6c0.5,1.6,0.5,1.7,0,3.2l-0.5,1.7c-0.4,1-2.4,1.8-2.6,2.7
		c-0.8,2.5,1.1,3.4-0.8,4.7c-1.1,0.1-3.9-0.5-5-0.7c-0.2,0-0.4-0.2-0.6-0.2l-5.4-0.9l-1.2,3.9c-0.1,0.3-0.4,0.6-0.4,0.9
		c-0.3,1.2-0.4,2.6-0.7,4c-0.6,2.3-1.3,4.5-1.9,6.8c-0.1,0.3,0.2,0.9-0.1,1.2c0.1,0.5-0.1,0.9,0,1.3c0,0.6,0.3,1.2,0.3,1.7
		c0,1-1.5,1.9-2.3,2.3l-1,1.7c-0.8,0.6-2,0.2-2.5,0.7c3.3,3.1,1.4,7.6,3.4,9.1c-0.5,1.7-0.4,2.5,0.3,4.1c-1.1,2.6-0.9,5.7-0.9,8.5
		c0,0.1-0.4,1.1-0.4,1.2l-1-0.1l-0.5,0.3c-0.6,2-2.1,3.3-3.7,4.6c-3.6,2.9-6.3,4.4-10.9,4.4c-0.7,0-1.7,0-2.4-0.1
		c-0.9-0.2-1.8-0.7-2.7-0.8c-0.8-0.2-0.6,0.3-2.4-0.2c0,0-0.2,0-0.3,0l-0.5,0.6c0.1,1.9,2.6,3.6,2.8,5.4c0,0.3-0.3,0.7-0.6,0.8
		c-1.2,0.3-5.6-1-7-1.3C1917.8,794.5,1917.2,793.8,1916.3,793.7z"/>
	<path id="GM" class="st0" d="M1739.6,820.3l-0.7,0.5l-0.3-0.3l-0.2-0.8l0.7-1.1l-0.1-0.6l-0.8-0.1c-0.8-2.9,1-3,2.7-4.9l-0.3-0.9
		l0.3-0.6c1.4-0.5,2.2-2.2,2.6-3.5c2.6,0.3,3.3-0.2,4.9-2c0.5-0.6,1.2-1.2,1.3-2l-0.9-1.3l1.5-0.1l0.3-0.3l0.3-1.2l0.7-0.3
		c0.1-0.8,0.2-2.3,0.6-2.9l1.2,0.1c0.6-0.7,0.9-1.6,1.2-2.4l0.4-0.2l0.9-1.3l-0.3-1.2l1-1.1l0.8,0.2c-0.1-0.8,0.7-1.3,1-1.9
		c0.5-0.8,0.7-1.7,1-2.5c0.5,0.2,1.5,0,2.1-0.1l0.9-1.7l0.7-0.4l0.9,0.3l0.6-0.7l-0.5-1.9c-0.6-0.1-1.4,0.1-2,0.5
		c-0.3-0.7,0.1-2,0.5-2.7l0.7,0.1l0.6,0.7c0.7,0,1.5,0,2.2,0c1.6,0.1,0.9,2.1,3.9,0l0.5-1.1l1,0.1l0.4-0.5l1.1-0.1l0.7-0.9
		c0.5,0.1,1.1-0.2,1.5-0.5c0.7-3.2,3.5-5.1,5.4-7.5l0.5,0.1c1-0.5,2.1-0.8,3.2-1l0.3-0.6l0.7-0.1l0.3-0.8c0.9-0.2,1.9-1.1,2.2-2
		c1.6,0.2,3.1-2.1,3.5-3.4c0.9-0.7,1.8-1.4,2.8-2c1-0.7,6.8-1.8,8.5-2.4c1.7-0.6,3.3-1.5,4.9-2.2c1-0.4,2.1-0.4,3-1
		c2.6-1.8,4.1-4.9,4.1-8l4-0.7l-0.1,1.1l-0.7,0.2c-0.4,1.3-0.1,1.6,1,2.1c1.4,0.6,1.6-0.2,2.8-0.6c1.3-0.5,2.8-0.5,4-1.3
		c1-0.8,0.6-1,1.2-1.7c0.3-0.4,0.8-0.6,1.2-1c0.8-1,1.4-3.4,1.5-4.6l0.8-0.1l0.9-1.3c0.7-1,2.6-0.7,3.1-1.9l0.4-0.1l0.2-0.6l0.9-0.3
		l0.4-1.4c0.6-0.3,1.7-2.4,1.7-3c0-0.4-0.2-0.8-0.3-1.2c-0.2-1.2-0.2-2.5-0.2-3.7l1.1-1l1.1,0.3c1.6-2.2,1.8-5.2,1.7-7.8
		c-0.8-1-1.8-2-2.5-3.2c-1.2-2.1-2-4.4-3-6.5l0.3-1.1c0.7-0.3,1.4-1.1,1.8-1.8l1-0.4l-1.3-0.6l-0.9,1.1l-0.2,1l-1.4,0.4l-0.4,1.7
		c-2.7-1.7-3-1.9-6-1.8l-1.2-0.7l-0.4-1.1c-0.8-0.4-2.1-1.4-2.2-2.3l-0.6,0.3l-1,2.1l0.2,0.6c0.4,0.3,0.8,0.6,1.3,0.8
		c0.6,0.2,1.4,0,1.8,0.5c-2.8,1.5-3.8-1.3-6.1-2c-1.5-0.4-3.1-0.4-4.6-0.6l-0.3-0.3l0.1-0.3l0.6-0.2v-0.3c-0.4-0.8-0.9-1.6-1.2-2.4
		c-0.4-1.4,1-4.2,1.9-5.3c1.4-0.3,2.7-1,3.8-1.8c0.3-0.7,0.4-1.5,0.9-2.1c0.4-0.5,1.1-0.8,1.4-1.4l-0.4-1.2l-1.3-0.7l-0.3,0.4
		l-1.3-0.7l-0.9-1.6l-1,0.1l-1.5-1l-0.3-0.8l0.4-0.7l-0.1-0.3c-0.4,0-2.8,1-3.1,1.3c-0.1,0.2-0.3,0.4-0.4,0.6c0.3,0.6,0.2,1.4,0,2
		h-0.5l-1.4-1.7l2.4-2.4v-1c-0.5,0.6-2.2,2.3-3.1,2.2l-2.2-3.1l0.9-1.7c0.6,0,3.4,0.1,3.7-0.2l-0.1-0.3c-1.2,0.2-2.5,0-3.7-0.4
		l-0.4,0.2c-0.2,0.6-0.6,1.1-1.1,1.4c-1.1-0.4-1.6-2.1-2.4-2.8c-1-0.9-2.4-1.2-3.7-1.5c1-1.1,2.7-1,3.8-1.9c0.4-0.7,0.4-1.3,0.5-1.6
		c0.5-1.3,1.7-2.5,2.8-3.3v-0.3l0.2-0.3l0.1-3.3c0.2-0.3,0.5-0.7,0.9-0.9l0.6,0.1c1,0.7,1.1,2.3,1.1,3.4l0.4,0.3h0.3l4.6-3.7
		c0.2-0.1,1.2-0.2,1.5-0.1c0.2,1.1,0.2,2.9,1.3,3.5c0.9,0.1,1.8-0.2,2.6-0.2l15.8,0.5c0.8,0,1.7,0,2.5,0l0.2,0.2l0.2-0.1
		c0.7,0,1.9,0.1,2.6,0.5c0.4,0.6,0.7,1.2,1.1,1.7c0.4,0.6,1,1.2,1.5,1.7c2.3,2.4,4.3-1.9,5.9-1.4c0.7,0.2,1.5,0.5,2.2,0.6
		c1.6,0.3,3-1.8,4.6-1.5c1,0.2,2,0.7,2.9,0.9c1.2,0.3,2.5,0.6,3.8,0.9c0.2,0,0.4,0,0.6,0c0.8-0.6,3.3-1.5,4.3-0.8
		c0.5,0.3,0.9,0.8,1.3,1.2l0.4,0.1c4-0.4,8-0.9,12.1-0.5c2.2,0.8,1,8.2,3.9,8.8c0.6-0.2,1.6-0.7,1.9-1.2v-0.3c0.3-0.3,0.9-0.9,1-1.3
		c1.7-1.2,5.3-2.2,7.3-2.7c0.5,1.4,2.1,3.4,3.7,3.7c0.2,0,0.6,0,0.7-0.1c0.6-0.6,2.3-3.1,3.5-2.2c0,0,0.2,0.2,0.2,0.3
		c0.1,0.5,0.1,1.1,0.3,1.5c0.3,0.8,1.2,2.4,2.2,2.5l1.8,0.1c0.2,0,1.5,0.1,1.8,0.2c0.9,0.5,1.6,1.2,2.6,1.6c3.1-0.5,3.7-1.8,5.9-4
		l1,0.3c0.6,0.9,1.4,3.1,1.5,4.1c0.1,0.9,0,2,0,2.9c0,0.1-0.2,0.3-0.2,0.4l-0.3,2.2l0.7,1.1c1.8,0.3,9.2,1.6,10.7,2.3s3,2.2,4.5,3.1
		c1.3,0.8,5.2,2.9,6.9,3.2c0.3,0,0.6,0,0.8,0c0.6,0.1,1,0.3,1.6,0.3l1.4,1c0.5,0.1,1.5-1,1.8-1.3h0.3l0.4-0.2c1.1,0,2.9,1,2.5,2.4
		c-0.3,1.3-0.9,2.7-1.6,3.8c0.6,0,2.7,0.1,3.2,0.4c0.9,0.5,1.8,1.5,2.9,1.6l4.5,0.1c1.6,1.5,1.3,2.4,3.5,3.4
		c1.3-0.1,2.9-0.4,4.1-0.4c0.7,0,3,0.7,3.5,1.3c0.8,1,1.7,2.2,2.6,3.1c0.3,0.3,2.5,1.8,2.7,2c1.1,1.4,2.8,4.8,3.8,6.5
		c-0.8,1.4-2,2.5-2.8,3.9c-0.3,0.5-0.4,1.1-0.8,1.5c-0.1,0.1-0.6,0.4-0.7,0.5s-0.2,0.3-0.3,0.4c-0.9,0.9-2.3,1.3-3.5,1.6
		c-0.3-0.9-0.3-2-0.3-3c-3.7-4.1,0.7-5.4-2.3-8.4c-0.7-0.2-1.6-0.9-2.2-1.4c-0.6,0.3-1.6,1-1.9,1.6l0.8,2.6c0.5,1.6,0.5,1.7,0,3.2
		l-0.5,1.7c-0.4,1-2.4,1.8-2.6,2.7c-0.8,2.5,1.1,3.4-0.8,4.7c-1.1,0.1-3.9-0.5-5-0.7c-0.2,0-0.4-0.2-0.6-0.2l-5.4-0.9l-1.2,3.9
		c-0.1,0.3-0.4,0.6-0.4,0.9c-0.3,1.2-0.4,2.6-0.7,4c-0.6,2.3-1.3,4.5-1.9,6.8c-0.1,0.3,0.2,0.9-0.1,1.2c0.1,0.5-0.1,0.9,0,1.3
		c0,0.6,0.3,1.2,0.3,1.7c0,1-1.5,1.9-2.3,2.3l-1,1.7c-0.8,0.6-2,0.2-2.5,0.7c3.3,3.1,1.4,7.6,3.4,9.1c-0.5,1.7-0.4,2.5,0.3,4.1
		c-1.1,2.6-0.9,5.7-0.9,8.5c0,0.1-0.4,1.1-0.4,1.2l-1-0.1l-0.5,0.3c-0.6,2-2.1,3.3-3.7,4.6c-3.6,2.9-6.3,4.4-10.9,4.4
		c-0.7,0-1.7,0-2.4-0.1c-0.9-0.2-1.8-0.7-2.7-0.8c-0.8-0.2-0.6,0.3-2.4-0.2c0,0-0.2,0-0.3,0l-0.5,0.6c0.1,1.9,2.6,3.6,2.8,5.4
		c0,0.3-0.3,0.7-0.6,0.8c-1.2,0.3-5.6-1-7-1.3c-0.2,0-0.8-0.8-1.7-0.9c0,0.4-0.2,2.2-0.4,2.4c-0.7,0.4-4-0.6-4.6-0.8
		c-1.1,0.6-2.5,1.3-3.7,1.5c-0.9-0.1-1.5-0.9-2.2-1.1c-0.8-0.2-1.9-0.1-2.7-0.3c-1.1-0.2-2.1-1.2-2.6-2.1c-0.1-0.2-0.1-0.5-0.3-0.6
		c-0.3-0.4-0.7-0.9-1-1.3c0,0-0.3-0.1-0.3-0.2h-0.3c-0.5,0.6-1.1,1.2-1.8,1.7c-0.6,0-2.9-0.4-3.2,0.2c0,0.5-0.2,1.3-0.5,1.7
		l-0.5,0.1c-1-0.1-1.1-1.3-1.8-1.7c-0.7-0.4-1.6,0-2.1-0.6l-1.9-2.3c-1.8-0.9-3.5,0.9-4.2,2.5c0.2,0.4-1,2.3-1.6,2.4l-3.7-0.1
		c-0.1,0-0.8,0.4-1.1,0.4c-1.1,0.2-2.3,0.1-3.4,0l-0.1-0.2c-1.2-0.1-5.8-0.7-6.7,0.4c-0.7,0.8-1.2,1.8-1.8,2.7
		c-0.5,0.7-1.1,1.3-1.7,2c-1.1,1.4-2.1,2.9-3.1,4.4c-4.1,0.8-8.3,1.1-12.5,1.4c-0.3,0.7,2.2,3.8,2.6,4.4c0.5,0.8,0.3,2.2,0,3.1
		c-1.6,0.7-4.7,0.2-5.8,1.2c-2.6-1.3-5.7-1.2-8.5-1c-1.7-1-2.2-1.7-4.2-1.7c-0.1,0-0.8,0-0.9,0s-0.2-0.1-0.3-0.1l0.4-0.5l-0.1-0.3
		c-1.4-0.6-3.3-0.1-4.4-1.3h-1.7l-0.7,0.4l-0.1,0.4l0.5,1l-0.1,0.2c-1.1,0.1-1.8,0.3-2.5-0.8l-0.4,0.6h-0.5l-0.4-0.7l-0.9,0.5h-1
		l-0.6-0.6l-0.5,0.2l-0.2,0.9c-0.6,0.4-2.5,0.3-3.1,0l0.6-1.2l-0.2-0.4l-1.5,0.1l-0.3,0.8l-0.5,0.3c-1.1-0.2-1-0.3-1.9-1h-0.6
		l-0.5,0.3c-0.9-0.3-1.8,0.3-2.8,0.2c-0.3,0.4-0.8,0.9-1.3,1l-0.5,0.8l-1,0.1l-0.2,0.5l-0.7,0.2l-0.4,1.9c1,0.3,2.7-0.3,3.6-0.8
		l0.7,0.1l0.3,0.3c-0.7,2.2-4.4,1.9-4.8,2.8c-0.2,0.4-0.3,0.8-0.4,1.2c-0.4,0.8-4.6,0.9-5.4,0.5c-1.8,0.9-4.6,1.2-6.6,1.5
		c-2-1.4-2.6-1.1-3.8-3.5l-0.3,0.9c-1.1,0.6-2.5,0.4-3.7,0.7c-1.3,0.4-2.4,1.4-3.8,1.8c-1.2,0.4-5.7,0.8-6.9,0.4
		c-0.3-0.1-0.6-0.3-0.9-0.4c-0.9-0.3-4.7,0-6,0.1l-1.3-0.7l-1.3,0.1c-0.6,0.7-2,1.3-2.9,1.4c-0.3,0-0.7-0.1-1.1,0l-8.6,2.7
		c-1.2-0.3-2.2-1.2-3.4-1.4c-0.9-0.2-1.8-0.1-2.7-0.3c-0.4-0.1-0.8-0.4-1.2-0.5c-0.7-0.2-1.5-0.1-2.3-0.2l-0.8-0.7l0.3-0.2l1.2,0.1
		l0.3-0.7L1739.6,820.3z"/>
	<path id="HL" class="st0" d="M1901.8,680.6c-1.6-0.3-3.1-2.2-3.7-3.7c1.9-0.3,4.4-1.8,4.1-4c-0.8-1.9-3-2.8-4.1-4.5l0.1-1.6
		l1.3-1.8l-0.1-0.3l-1.1-0.8c-0.2-0.6,0.2-1.6,0.6-2.1l5-6c0.3-1-0.3-2.3-0.3-3.3c0-1.3,0.9-2.8,0.6-4.1c-0.3-1.5-1.4-5.3-1.1-6.8
		l1.1-3.2c0.3-0.8,0.8-2.7,2-2.8h0.3c1,0.7,2.9,3.4,3.9,3.4c3.1,0,4.7-0.6,7.7-1.7c0.1-0.1,0.2-0.3,0.3-0.3c1.6-1.2,5.6-4.1,7.8-3.3
		c2.4,1,0.9,0.9,3.9,1c0,0,0.4-0.2,0.5-0.2l0.3-0.5c-0.1-0.8-0.5-1.5-0.4-2.2c0-1.4,1.9-2.3,2.5-3.5c0-0.9-0.1-1.9-0.3-2.8
		c0-0.1,0.2-0.4,0.3-0.5c0.7-0.3,2-0.6,2.5-1.2c1.2-1.2,3.1-4.1,5.2-3.6c0.4-0.6,1.2-1.9,1.9-2.3c0.2-0.1,0.6-0.1,0.8-0.3l4.9-2.8
		l1-2c1.6,0.3,3.5-0.1,4.9-1c0.1-0.1,0.2-0.3,0.3-0.3c0.1-0.1,0.4-0.1,0.5-0.2c1.1-0.7,5-2.8,4.6-4.6c-0.5-1.1-1.8-1.7-2-2.9
		l0.1-0.8c0.5-1,2.9-1.3,4.1-2.9c0.4-3.8-0.3-7.7,0.4-11.4l0,0c0.1,0.1,0.3,0.2,0.5,0.3c0.7,0.5,1.2,1.2,1.9,1.7
		c0.8,0.6,7.4,4.5,8,4.7c3,0.9,4.7-0.2,7.1,2.5c0.5,0.6,1,1.3,1.7,1.9c0.5,0.5,2.1,0.2,2.8,0.4c0.4,0.2,0.8,0.5,1.2,0.8
		c0.9,0.5,2,0.9,2.9,1.3l1.2,2l1.7,0.6l0.3,0.6l-0.3,2l0.7,1.3l-0.1,0.4l-0.7,0.2l-0.1,0.5l0.8,1.9l-1,1.7l0.2,0.7
		c1.1,0.8,1.7,1.2,3.1,1.2l1.4-1l-1.3-0.9l-0.6-1.5l0.4-0.6c1.6-0.6,3.8,1.1,5.4,1.4c0.8,0.2,1.6-0.1,2.4,0.1c1,0.3,1.7,1.1,2.5,1.5
		c0.8,0.4,1.6,0.6,2.4,0.8l0.2,0.4c-0.2,0.6-0.8,1-1.4,1.2l-0.2,1l-0.5,0.1l-0.2,0.5h0.7l0.2,0.4l0.5,0.2l1.1-1.1l-0.5-0.5l0.7-1.3
		l1.6-0.3c-0.2,0.8-0.2,1.8,0.1,2.5l-0.4,0.3l-0.3-0.4l-0.4-0.1l-0.5,0.4l-0.1,0.4l1.7,0.2c0.6-0.3,1.2-0.5,1.8-0.8l0.7,0.4l0.4-0.6
		l-0.1-0.3l-1.2-0.7l-0.2-0.5c0.4-0.5,0.6-1.3,0.5-2c0.5-0.1,1.2,0.2,1.6,0.4c1.3-0.5,3-0.8,4.4-0.5l0.7,0.8l-0.4,1.4l0.7,0.6
		l0.6-0.2l0.6,0.7l0.7,0.1l0.5-1.4l-0.4-0.7c-0.5,0.5-0.9,1-1.6,0.3c0-0.8-0.2-1.6-0.6-2.2l3.3-0.3l0.4,0.4h0.4l0.4-0.9l-0.2-0.9
		c0.6-1.3,3.5-1.6,4.7-1.2c0.4,0.1,0.7,0.4,1.2,0.5c0.5,0.1,1.2-0.1,1.7-0.1l0.7,1v0.8l-0.6,0.3l0.1,1.1l0.6-0.3l0.3,0.3l-0.6,0.7
		l0.5,0.6l0.7-0.3l0.8,0.2l0.2-1.1h0.7l0.3-1l-0.6-0.2l-0.3,0.4l-0.4-0.3l-0.7-1.7l0.4-0.4l1.1,0.1l1.5-1.5c0.8-0.1,1.8-0.1,2.5,0.3
		c1.3-1.4,3.1-0.6,4.6-2.1c0.7-0.1,1.8,0.8,2.3,1.3l0.8-0.3l1.8,1l1.3-0.1l0.7,0.4l-0.1,2l-0.3,0.3l0.8,0.3l0.9,1.1l0.3-0.6
		l-1.1-1.7l0.3-0.8l-0.3-0.7l0.5-0.8l1-0.1l1,0.7h0.6l0.6-1c0.7,0.1,1.4,0.4,2.1,0.4c1,0,1.8-0.7,2.8-0.3c0.6,0.2,0.9,0.8,1.5,1.1
		c0.4,0.1,0.7,0.1,1.1,0.3c3.5,1.5,4.4,4.4,3.5,7.8c0.3,0.2,0.6,0.4,0.9,0.5c1.2,0.4,3.3-1.1,4.5-1c1.1,0,2.3,0.1,3.4,0.2
		c1.5,1.5,8,9,7.3,10.8l-2.7,7.3c-0.4,1.2-3,2.7-3.8,4.1l0.4,2.9l-0.5,0.8l-1.1,0.1c-1.2,1.5-2.9,2.1-4.2,3.5
		c-0.4,0.4-0.8,1.5-1.4,1.6l-0.1,0.6c1.9,1.7,4.3,0,6.2,0.7l2.5,0.9c0.3,0.1,1,1.1,1.3,1.3c2.5,1.7,3.1-0.4,3.3,4
		c0.8,1.2,1.9,1.3,3.2,1.1l0.5,0.5c0,1,0,6.3-0.9,6.6c-0.4,0.1-0.8,0.2-1.1,0.3l0.1,1.3c1.3,0.5,2.8,0.9,4.2,0.9l0.4-0.3
		c0.4-2.1,0.8-3.6,3.2-2.2l0.4,0.2l3.8,5.9c0,0,0.6,0.4,0.7,0.5c0.3,0.2,0.8,1.4,1,1.8l-0.2,0.2l0.7,0.3l0.1-0.2l3.6-1
		c2.1-0.6,3.3-0.9,5.2,0.3l1.3-0.4l0.5,0.4l-2.2,1.6l0.8,0.4c0.4-0.6,0.8-1.1,1.5-1.4c0.6-0.2,3.8-0.2,4.5-0.1
		c1.3,0.3,2.7,0.8,4,1.2c1.1,0.4,1.7,1.8,3,1.9l0.1,0.2l0.9,0.2c0.1-0.5,0.7-1.1,1-1.4l0.6,0.6l0.7-0.3c1.9,1.3,3.3,1.4,5-0.4
		c1.4-0.2,3,0.2,3.9,1.3l2.4-0.4l0.7-0.6c0.9-0.1,2.8,0.7,3.2,1.5l0.8-0.2l7.7,2.8v0.4l-1.9,0.2c-0.7,0.8-1.5,1-2.4,0.6l-0.1,0.4
		l0.3,0.7l0.5-0.4c0.9-0.1,2.5-0.2,3.1,0.6l0.4-0.4l-0.1-0.9l0.4-0.3l0.5,0.2l0.4-0.3l0.6,0.7l-0.4,1l-0.6,0.4l-0.1,0.7l0.4,0.3
		l-0.1,0.8l1.2-0.6l0.7-1.6l2.1-0.4l0.1-0.5l-0.4-0.7l-2.3-0.4l-0.1-0.2l0.6-0.3l3.2,0.5l0.9,1.1l1-0.1l0.7,0.5l-0.1,0.8l0.8,0.5
		l0.3,0.5l-0.2,0.9l-0.6,0.3v0.3l0.2,0.1l0.5-0.1l1-0.9l-0.5-1.3c0.3-0.5,0.4-1.2,0.3-1.8c0.6-0.4,2.1-0.8,2.7-0.4l0.1,0.4h0.9v-0.5
		c0.9-0.2,3-0.4,3.6,0.2l1.4-1.5l0.8,0.1l0.5-0.5h0.5l0.3,0.3l-0.1,0.8c2.5,0.4,4.9-1.2,7.2-0.6c0.9,1.2,2.3,1.6,3.5,2.1l1.2-0.9
		l0.6,0.2v0.6l-0.7,0.8l2.5,3l0.6,0.2c0.5-0.5,1.4-0.7,2.1-0.6l0.7-0.6l0.9,0.1l0.6,1.1c0.5-0.2,2.4-0.7,2.8-0.4
		c0.2,0.2,0.4,0.4,0.6,0.6c0.4,0.1,0.8,0.2,1.2,0.3v0.4l-0.8,0.8l1.2,0.9h0.7l0.6,1.5c1.5-0.4,1.8,0.6,2.5,1.7
		c0.6,0.2,1.2,0.3,1.8,0.5c0.6-0.4,2.6-1.2,3.3-0.9c0.6,0.3,1.1,0.7,1.7,0.9l1.2-0.3l1.1,0.4l1.6-0.5c0.9,0.5,2.1,0.9,3.1,0.8
		l0.2-0.8c0.6-0.3,1-0.2,1.7-0.2c2.2,0.1,2.7,0.7,3.5,2.6l-0.3,2.2l-0.5-0.2l-1.4,0.2v0.3c1,0.6,0.7,2.4,2.1,3.6l-0.2,0.6
		c0.7,0.7,0,1.9,0.7,2.5c1.6-1,1.5-1.4,0.5-2.8l0.4-0.4l0.5,0.4l0.4,3l0.2,0.1c-1.9,0.5-2.9,1.4-4.2,2.7l-0.4,0.2l-2.4-0.1
		c-0.3,0.2-0.5,0.5-0.7,0.7c-0.2,0.1-0.7,0.4-0.8,0.5c-1.9,2-2.8,3.1-3.5,5.7c-0.7,2.4-1,3.2-0.4,5.6c0.3,1.1,1.9,0.8,1.2,3.5
		c-1,0.1-5.4,1.6-5.6,2.2c-1.7,0.3-2.3,2-2.2,3.5c-0.2,0.2-0.6,0.8-0.9,0.8c-0.8,0-2.1-0.2-2.7-0.7c-0.6-0.5-3.6-3.8-4.5-3.6
		c-0.4,0.1-2.5,0.8-2.8,0.5c-3.1-2.4-5.9-5-8.8-7.7c0,0-0.4-0.1-0.5-0.1c-1.8,0.6-4.1,1.5-6.1,1.1c-0.3,0-1.2,0-1.4,0.2v0.5l1.4,1
		c0.2,0,0.4,0.6,0.5,0.8l-0.5,1.1c-0.1,0.1-0.1,1-0.1,1.2l0.1-0.1l1.3-0.5l0.2-0.3h0.3c0.6,1.1,2.3,4,1.8,5.2l-0.9,0.8
		c-0.7,0.1-2,0-2.6-0.5c-1-0.4-1.6-2.7-1.5-3.6h-0.5c-1.5,1.6-6.2-0.1-7.4-1.3l-5.5-5.7c-0.4-0.4-1.5-2.2-2.3-1.9
		c-2.5,0.9-5.9,1.4-7.4,3.9c-1.7,0.6-2.8-1.1-3.9-2.1h-0.6c-0.5,0.3-0.9,0.9-1.4,1.2c-0.9,0.5-2.1,1-3.1,1.2
		c-1.3,1.2-4.2,4.2-3.6,6.3c0.5,0.4,0.9,1.5,1,2l-0.5,1c-0.4,0.1-1.5,1.4-1.8,1.7h-0.7l-1.4-1.2c-0.2-0.5-0.1-1.7-0.3-2.1
		c-0.6-0.4-3.6,1.7-4.3,2.1c-3.7-1.2-3.4-3.5-4.6-4.3c-0.5-0.4-1.4-0.6-1.9-1c-1-0.8-1.3-2.3-2.9-1.9c-1.2,0.4-2.6,2.2-2.8,3.4
		c-0.2,0.2-0.8,0.5-1,0.5l-0.8-0.3l-0.1-1.3c-0.8-1.8-2.6,0.1-3.1-4.1c-0.4,0.1-1.3,0-1.6-0.2l-0.8-1.1c-1-0.2-3.2-1.5-2.4-2.7
		c0.6-0.1,1.3-0.4,1.8-0.8c0.5-1,0.5-2,1.1-2.9l1.9-0.6c0.2-0.2,0.5-0.6,0.5-0.9c0.1-1,0.1-2.1,0.3-3.1c0.2-0.9,0.7-1.5,0.4-2.5
		l-0.6-0.4l-0.8,0.4l-1.5,0.9c-1.5,0.3-3.3-0.2-4.7,0c-0.2,0-1.5,0.8-1.8,0.9c-0.8,0.2-5.8,1-6.4-0.5c-0.5-1.3-0.8-3-2.6-3
		c-0.9,0.2-1.2,1.5-1.8,1.7l-2,0.6c-1.2,1.4-2.5,3.2-3.8,4.5c-1,1-2.6,1.9-3.8,2.8h-0.9c-1.1-1.1-2-1.3-3.3-1.5c0,0-0.2-0.1-0.3-0.1
		l-0.4-0.7h-0.2c-2.8,2.6,0.9,3.7,0.5,7.3c-0.5,1.3-2.2,2.8-3.7,3.1c-2.7,0.5-2.9-0.5-4.9,2c-0.7,0-2.5-0.1-3.1-0.4
		c-3.2,1.3-4.3,1.5-7.1-0.8c-2.3-0.3-4.3,1.4-6.2,2.4c-0.1,0.1-0.3,0-0.4,0.1c-0.1,0.1-0.2,0.2-0.4,0.3c-1,0.4-2.1,0.8-3.1,1.3
		c-0.4,0.2-0.7,0.5-1,0.7c-1.6,0.7-6.5,2.8-8.5,2.2c-1.2-0.3-3.2-2.1-4.2-2.9c-0.5-1-0.3-3.1-1-3.7l-2.2-0.1l-4.1-3.9
		c-0.4-0.4-1.8-0.5-2.3-0.5c-0.2-0.2-0.4-0.4-0.6-0.6c0-1,2.7-2.8,2.5-3.6c0-0.2-0.3-0.6-0.5-0.7c-1.6-0.8-7.5,2.2-8.4-1.2
		c0.5-0.6,1.6-2.5,1.3-3.3c0-0.1-0.3-0.5-0.4-0.5l-5-3.3c-0.4-0.2-0.7-0.6-1-0.8c-0.7-0.4-1.5-0.7-2.2-1.2c-0.8-0.5-1.5-1.7-2.4-1.9
		h-1c-0.3,0.2-0.8,0.8-0.8,1.2c0.1,0.7,2.5,4,3,4.7c0.1,0.2,0,0.8,0,1c-0.7,0.8-4.2,1.9-5.2,2.2l-0.5,0.7l0.1,0.3l-0.6,0.4v0.3
		c-0.7,0.1-1.1,0.6-1.6,0.9c-1.1,0.5-1.2,0.1-2,1.2l-0.1,0.6l0.1,0.3l1.1-0.2l0.5,0.6c-0.3,0.7-0.2,1.9,0.2,2.6l0.8,0.4l0.4,0.7
		c0,1-0.5,2.2,0,3.1l-0.3,0.1c-0.1,0.5-0.5,1.3-0.9,1.6l-0.1,3.2l-2.7,2.6c-0.5,0.5-1.3,0.4-1.9,0.3l-0.1-0.3l0.1-0.6l2.4-2.5
		l0.2-1.1l-0.2-0.2l-0.6-0.1c-3.1,1.6-2.6-1-6.2-1.4c-1.6-0.2-3.6,0.3-5.3,0.3c-1-1.7-2.7-5.1-3.8-6.5c-0.1-0.2-2.3-1.7-2.7-2
		c-0.9-0.9-1.8-2.1-2.6-3.1c-0.5-0.6-2.9-1.2-3.5-1.3c-1.2-0.1-2.9,0.3-4.1,0.4c-2.2-1-1.9-1.9-3.5-3.4l-4.5-0.1
		c-1.1,0-2-1.1-2.9-1.6c-0.5-0.3-2.6-0.4-3.2-0.4c0.7-1.1,1.3-2.5,1.6-3.8c0.3-1.4-1.4-2.4-2.5-2.4l-0.4,0.2h-0.3
		c-0.3,0.3-1.3,1.4-1.8,1.3l-1.4-1c-0.6,0-1.1-0.2-1.6-0.3c-0.3,0-0.6,0-0.8,0c-1.7-0.3-5.6-2.4-6.9-3.2c-1.5-0.9-3-2.4-4.5-3.1
		c-1.5-0.7-8.9-2-10.7-2.3l-0.7-1.1l0.3-2.2c0-0.1,0.2-0.3,0.2-0.4c0-0.9,0.1-2,0-2.9c-0.1-1-0.9-3.2-1.5-4.1l-1-0.3
		c-2.3,2.2-2.9,3.5-5.9,4c-1-0.3-1.7-1.1-2.6-1.6c-0.3-0.2-1.6-0.2-1.8-0.2l-1.8-0.1c-1-0.1-1.9-1.7-2.2-2.5
		c-0.1-0.4-0.2-1.1-0.3-1.5c0,0-0.2-0.2-0.2-0.3c-1.2-0.9-2.9,1.5-3.5,2.2C1902.4,680.6,1901.9,680.6,1901.8,680.6z"/>
	<path id="LT" class="st0" d="M1729.7,679.2l-0.9-0.9l-1.6,0.3c-0.4-0.3-2.1-1.3-3.7-2.1l0.2-1l-0.2-0.1c0.3-0.3,0.8-3.8,1-4.4
		c0-0.1-0.1-0.3-0.1-0.5c0.1-0.5,1.2-7.7,1.2-7.7c0.6-1.4,1.4-2,2.3-3.3l4.6-6.6c0.3-0.4,1.4-1.6,1.9-1.8c0.6,0,1.5,0.7,1.9,1
		c1-0.5,12.8-2.4,14.8-2.8c-1.5-4.4,1-6.9,0.7-9.3c-0.4-0.4-1.9-2.2-1.6-2.8c0.6-0.3,3.3-1.3,4.1-0.8c1,1.5,1.7,3.1,2.8,4.6l0.3,0.1
		c0.7-0.3,1.9-0.4,2.6-0.3c0.4,0.5,1.8,0.8,2.4,0.7c0.8-1.1,0.1-3.5,0.3-5l0.7-1c1.3-0.3,2.5-0.6,3.8-1c1.4-0.4,2-1.2,3.6-0.7
		l0.3-0.2l0.1-0.7c-0.3-0.4-0.6-1.3-0.4-1.8l0.2-0.2c0.8-0.4,1.3,0.2,2,0.2l7.4-0.2c-0.2-1.6-0.7-4.4,0.8-5.6
		c0.1-0.3-0.9-2.4-0.9-3.1c0.1-0.4,0.7-0.9,1-1.1l2.8-0.5c0.6-0.4,1-2,1.1-2.7h0.5c0,0.8,0.7,1.8,1.2,2.4c0.1,0.1,0.6,0.4,0.7,0.5
		c0.6,0.8,1.1,1.7,1.6,2.5c0.1,0.6,0,1.4-0.2,2c0,0.2,0.2,0.7,0.4,0.7l3.8,1.5c1-0.6,2.9-0.9,3.9-0.3l0.5,0.7
		c0.1,0.7-1.1,1.9-1.5,2.4c-0.3,1.4,0.8,2.8,1.8,3.7l0.7-0.1l0.4-0.5l0.5-3.1c0.6-1,1.5-1.4,2.5-1.3c1.8,0.8,2.3,2.5,3.9,3.5
		l1.8,0.1c0.1-0.1,0.5-0.5,0.5-0.5c0.4-1.1,0.8-2.3,1.2-3.4c0.7-1.7,1.6-3.4,2.3-5.1c0.9-2.5,0.2-2.7,2.1-4.9
		c0.2-0.2,0.2-0.4,0.5-0.6c0.8-0.5,2.1-0.7,2.9-1.2c0.7-0.4,1.2-1.2,2-1.4l6-1c0.6-0.1,1.8-0.8,1.9-1.5c0.3-2,0.5-4.2,1.6-6
		c1-1.6,4.5-1.6,5.1-5.7l0.3-3.1c-0.3-2.3-2.5-6.9-1.3-9.2c0.4-0.5,4.8-0.7,5.5-0.8c1.9-0.8,1.1-5.2,2.4-6.3c0.7-0.6,1.8-1,2.5-1.7
		v-0.6c-0.1-0.3-0.6-0.9-0.9-1c-2.1,0.1-7.5-0.1-9.3,0.4c-0.3-1.9-0.4-4.3,0-6.3c1.3-1.4,3.1-2.2,4.5-3.6c-0.1-0.5,0.3-0.9,0.3-1.3
		c0.2-2.7-0.1-3.3,0.5-6.1c0,0,0.2-0.2,0.2-0.3c2.1-0.4,3.8,0.7,5.7,1.5c1,0.4,1,1.5,2.5,0.7c1.2-0.5,2.5-1.3,3.8-1.7
		c1-0.3,2.2-0.4,3.2-0.6c0.1,0,0.3-0.2,0.4-0.3c0.1,0,0.4,0,0.4-0.1c1.5-1,2.1-2.5,3.2-3.8c0.4-0.5,1.6-0.8,2.1-1
		c0.6-0.2,1.5-0.4,2.1-0.1l0.6-1.3c1.1,0,3.5,2,4.3,2.8c2.4-1,5.8,4.1,11.1,3.3l0.8-0.8l0.6,0.2l0.4,0.4c0.2,1.1,0.5,2.5,1.2,3.4
		l-0.2,0.3l-0.7,0.2l-0.2,0.3c0.2,0.7,0.7,1.4,1.4,1.5l0.9-1.4h0.7l0.8,0.9v0.3l1.4,1l0.2-0.2l-0.4-0.8l0.7-0.2
		c0.6,1.2,1.7,2.3,3,2.8c1.4,0.5,2.9,0.1,4.2,0.5c0.2,0.1,0.4,0.2,0.6,0.3c0.5,0.2,3.1,0.2,3.5,0c1.2,0.4,2.4,0.6,3.5,1.1
		c1,0.4,1.8,1.1,2.7,1.4c1,0.4,3.2,0.3,4.3,0.3l0.5-0.5l-0.3-1l0.2-0.5c0.8,1,2.3,2.5,2.8,3.6c0.2,0.5,0.2,1.2,0.3,1.7l1.3,0.6
		l-0.3,1.3c-1.6,1-2.7,3.1-4.6,3.6l1,0.5c0.4-0.3,1.3-0.8,1.8-1c2-0.5,5.3,0.2,6.4,2c0.8,0.3,1.6,0.5,2.5,0.5l0.2,0.6
		c0.7-0.4,1.9,0.7,2.8,0.3c0.5,0.2,1,0.5,1.4,0.9l0.2,1l0.4,0.4l0.7-0.5l-0.1-2.4l0.4-0.6l1,0.3l0.9,1.3c0,0.9-0.3,3.7-0.1,4.3
		l1.7,0.7c-0.4-0.4-0.7-1-0.7-1.5c0.5-0.7,2.4-3.2,2.2-3.8l2.1-0.8l3.9,0.9c0.6-0.3,1.3-0.7,1.9-0.8c0.5-0.2,1.2,0.6,1.7,0.8
		c0.9,0.4,3.2,0.6,3.9-0.2c1.1-0.1,2.2,0.2,3.4,0.3c0.9,0.1,1.9,0,2.8,0.1c1.1,0.1,4.2,0.8,5.1,1.2c1.2,0.5,1.9,1.6,3.1,2l2.2,0.7
		c1,0.3,1.1,0,1.9,0.4l0,0c-0.7,3.7,0,7.6-0.4,11.4c-1.2,1.6-3.6,1.9-4.1,2.9l-0.1,0.8c0.2,1.2,1.5,1.8,2,2.9
		c0.3,1.8-3.5,3.9-4.6,4.6c-0.1,0.1-0.4,0.1-0.5,0.2c-0.1,0.1-0.2,0.3-0.3,0.3c-1.3,1-3.3,1.3-4.9,1l-1,2l-4.9,2.8
		c-0.2,0.1-0.6,0.1-0.8,0.3c-0.6,0.4-1.5,1.7-1.9,2.3c-2.1-0.6-4,2.3-5.2,3.6c-0.5,0.6-1.8,0.9-2.5,1.2c-0.1,0-0.3,0.3-0.3,0.5
		c0.2,0.9,0.3,1.9,0.3,2.8c-0.6,1.2-2.5,2.1-2.5,3.5c0,0.8,0.4,1.5,0.4,2.2l-0.3,0.5l-0.5,0.2c-3-0.1-1.5,0-3.9-1
		c-2.2-0.9-6.2,2.1-7.8,3.3c0,0-0.2,0.3-0.3,0.3c-3,1.1-4.6,1.7-7.7,1.7c-1.1,0-3-2.8-3.9-3.4h-0.3c-1.2,0.1-1.8,2-2,2.8l-1.1,3.2
		c-0.3,1.5,0.8,5.3,1.1,6.8c0.3,1.3-0.6,2.8-0.6,4.1c0,1,0.7,2.3,0.3,3.3l-5,6c-0.4,0.4-0.8,1.5-0.6,2.1l1.1,0.8l0.1,0.3l-1.3,1.8
		l-0.1,1.6c1.1,1.7,3.4,2.6,4.1,4.5c0.3,2.1-2.2,3.7-4.1,4c-2,0.5-5.6,1.5-7.3,2.7c-0.1,0.4-0.7,1-1,1.3v0.3c-0.3,0.5-1.4,1-1.9,1.2
		c-3-0.6-1.7-8-3.9-8.8c-4.1-0.4-8,0.1-12.1,0.5l-0.4-0.1c-0.4-0.4-0.9-0.9-1.3-1.2c-0.9-0.7-3.5,0.3-4.3,0.8c-0.2,0-0.4,0-0.6,0
		c-1.3-0.3-2.5-0.5-3.8-0.9c-0.9-0.3-1.9-0.8-2.9-0.9c-1.6-0.3-3,1.8-4.6,1.5c-0.7-0.1-1.5-0.4-2.2-0.6c-1.5-0.4-3.5,3.8-5.9,1.4
		c-0.5-0.5-1-1.1-1.5-1.7c-0.4-0.5-0.8-1.1-1.1-1.7c-0.7-0.4-1.8-0.5-2.6-0.5l-0.2,0.1l-0.2-0.2c-0.8,0-1.7,0.1-2.5,0l-15.8-0.5
		c-0.8,0-1.7,0.2-2.6,0.2c-1.1-0.6-1-2.4-1.3-3.5c-0.3-0.2-1.3-0.1-1.5,0.1l-4.6,3.7h-0.3l-0.4-0.3c0-1.1-0.1-2.7-1.1-3.4l-0.6-0.1
		c-0.3,0.2-0.7,0.6-0.9,0.9l-0.1,3.3l-0.2,0.3v0.3c-1.1,0.8-2.3,2-2.8,3.3c-0.1,0.3-0.1,0.9-0.5,1.6c-1.1,0.9-2.8,0.8-3.8,1.9l0,0
		c-1.7-0.4-3.6-0.9-5.3-0.2c-0.4,0.2-0.8,0.5-1.2,0.7c-0.6,0.3-1.4,0.3-2,0.5c-1,0.4-1.9,1.3-2.9,1.6c-0.6,0.2-1.3,0-1.8,0.4
		c-0.3-0.1-0.6-0.1-0.9-0.2c-1.1-0.2-1.5,3.5-5.3,1.8c-0.5,0.4-1.4,1.8-1.8,2.4l-1.3-0.2l-0.7,0.3c-2.9-0.7-5.5-2-8.2-3.2l-2.1,0.3
		c-1.1-0.9-3.1-1.4-4.5-1.3c-0.6,0-1.1,0.3-1.6,0.4c-1.1,0.1-2.2,0.1-3.3,0.2l-0.3,0.6l0.7,1.9l-0.2,0.3l-0.7,0.2
		c-0.2-0.7-0.7-2.7-1.3-3c-1.6,0.4-4.7,0.8-6.3,0.2c-0.3-0.1-0.6-0.4-0.9-0.5c-1.3-0.4-2,0.3-3.2,0.6c-0.7,0.1-1.4,0-2.1,0
		c-0.4-0.5-1.2-0.8-1.9-0.7l-0.4-1.1l-3,1.8l-1.2-0.1l-0.1,0.5l-0.5,0.3l-0.9-0.8l0.8-0.5l-0.1-0.4l-1.7-0.1l-0.4-0.9l-0.4-0.3
		l-0.2,0.5l-0.5,0.1l-1.1-0.7v0.3l-0.6,0.2l-0.3-0.2l-0.2-0.5l-0.7-0.2L1729.7,679.2z"/>
	<path id="CM" class="st0" d="M1605.1,559.1c-0.8-3.2-0.8-3.2-2.8-5.8c0-0.5,0.1-1,0.1-1.5c0-0.9-3.2-3.8-4-4.5l-0.3-1.1
		c-1.7-0.6-2.6-1.9-3.7-3.1l0,0l0.5-0.8c0.3-0.3,3.3-0.7,3.9-0.8c0.1,0,0.7,0,0.8-0.1c3.7-1.4,3.2-2.9,5.7-4.9
		c0.5-0.4,2.5-1.2,3.2-1.4c0.7-0.2,1.2,0.1,1.9-0.5c0.3-1.3,1.4-2.6,2.6-3.3c1-0.6,2.8-1.1,3.8-1.5c1.3-0.5,3.3-1.8,4.8-1.5
		c0.6,0.6,2.1,3,2.5,3.2c1.5-1.7,3.1-5.6,3.5-7.8c0.2-1,0.1-2.1,0.3-3c0.1-0.4,0.7-1.3,1.2-1.4c0.9-0.3,1.5,0.4,2.3,0.4
		c0.9,0.1,2.1-0.1,3-0.1c2,1.3,3.3,1.8,5.7,1.4l1-0.2c0.5-0.2,1.1-1.1,0.7-1.6c-0.9-0.2-2.4-1.1-2.9-1.9v-1l3.9-3.2
		c0.3-0.3,0.5-1.5,0.6-1.9l0.3-0.3c0.2-0.2,1.3,0.3,1.6,0.4l0.3-0.3c0.7-2.7,0.3-3.5-0.4-6.2c0-0.1-0.2-0.2-0.3-0.3
		c-0.3-0.9-1.3-2.9-0.9-3.9c0.3-0.7,2.1-1.7,2.8-2c0.3-1,1-2.1,1.6-3c0.6-0.7,3.8-1.1,4.3,0.1l-0.2,2.2c0.1,0.6,1.7,1.6,2.1,1.8
		l0.2,1.1c0.1,0.1,1.3,1.3,1.4,1.4c0.4,0.6,0.9,2.8,1.8,2.9c2.6,0.2,6-3.3,9.3-1.3l0.6-0.1c0.2-0.6-0.8-3.7-0.8-4.9
		c0.5-1.4,3.2-1.8,4.4-2.5l0.7-1c-0.2-1.4-1.1-2.8-1.9-3.9c-0.1-0.2-0.4-0.4-0.6-0.6c-0.7-1-1-1.7-2.1-2.5c-0.4-0.3-1.1-0.5-1.5-0.8
		c-1-0.9-1.8-2.1-2.9-2.9c-0.1-0.1-1.4-0.6-1.6-0.7c-0.6-0.4-1.5-1-2.1-1.5s-1.1-1.3-1.5-1.9c-1.4-2.5-1.1-2.4-0.7-5
		c0.2-1.1,0.4-2.1,0.8-3.1c1-1.4,3.3-0.2,4.7-0.7c0.8-0.3,1.6-0.9,2.4-1.1c1.4-0.4,3.6,1.3,4.9,0c0.7-0.7,1.5-1.6,2.3-2.3
		c0.3-0.3,1.1-0.2,2.1-1.4c0.4-0.4,0.9-1.5,1.3-2.1c0.4-0.5,0.9-0.6,1.3-1l3-2.9c0.7-0.3,2.4-0.1,3.2,0.1c1.3-0.4,1.4-1.8,1.8-2.9
		c0.1-0.3,0.3-0.5,0.4-0.8c0.4-1.1,0.2-2.8-0.5-3.7c-0.8-0.1-1.8-0.7-2.1-1.5l0.2-0.4h1.3l0.8-0.6c1.1,0,3,0.6,2.9,2l-0.4,0.4
		l0.5,1.1l1.4,0.9h0.3c-0.1,0.8,0.7,3.2,1.6,3.2c0.3,0,0.6,0,0.8,0c2.5,1.9,0.6,3,1.4,4.8l1.6,0.7c0,0.6,0.5,0.9,0.8,1.3
		c0.4,0.7,0.5,1.6,0.8,2.3c0.4,0.8,1.1,1.4,1.7,2h0.6l0.1,1c0.5,0.4,2.7,0.6,3.5,0.8c0.3,1.3,1.7,3,2.6,4l0.1-0.8l-1.2-2l0.3-0.3
		l0.4,0.3c0.5,1,1.1,2,1.5,3c0.3,0.8,0.3,1.6,0.6,2.3c0.2,0.3,1.3,1.4,1.6,1.3c0.2-0.1,0.5-0.3,0.7-0.4l0.6,0.2
		c0.1,1.2,2.6,7.2,3.4,8c0.4,0.4,2.9,0.6,3.3,0.2c0.3-0.3,0.3-1.3,0.3-1.7l1.2-0.1c0.1-1.1,0-2.2,0.4-3.3c0.7-2,0.9-1.2,0.8-3.6
		l0.6-0.1c0.9,1.1,2.3,2.4,2.8,2.8l0.3,0.7l0.7,0.4l0.2,0.7l0.8,0.5l0.3,1l0.8,0.8l0.7,0.1l0.6,0.8c0.9,0.3,2.3,0.1,3.3-0.2l0.5,0.6
		l1.4,0.5l0.1-0.6l-0.9-1.4l0.5-1.1l0.6-0.1c0.8,0.5,0.8,2.4,0.9,3.3l0.8,1.1c-0.3,2.9,0.2,2.3,0.8,4.8c0.5,1.8,0.3,4,2,5.1l3.7,0.2
		c0.1,0.5,0.9,1.5,1.4,1.7s1.5-0.2,2-0.4l0.7,0.5l1.3-0.8h0.5l0.2,0.9l1.3,0.5c0.8,2.5,3.3-0.1,4.5,0.4c0.3,0.1,0.5,0.3,0.8,0.5
		c0.8-0.4,4.6-1,5.3-0.6c0.9,0.6,1.8,0.5,2.8,0.6c1-0.7,1.9-0.6,2.5,0.4l0.7,0.2l0.5,1.1l1.1,0.6l0.5,0.9c1.6,0,0.8,1.1,4.2,0.6
		c0.3-0.9,2-2.4,2.8-2.9l2.7-0.2l0.2,0.5l-0.6,0.7l0.3,0.6c0.4,0.2,0.8,0.4,1.3,0.5c0.3-0.8,0.8-1.7,1.7-1.5l1.1,1
		c0,0.5-0.4,2.2-0.9,2.3c0.2,0.2,0.3,0.4,0.3,0.7c0.8,0,1.6-0.4,2.2-1c0.4-2.3-2.4-3.3-2.1-4.6l-0.6-0.2l0.2-0.4l0.5-0.2l0.7,0.5
		l0.1,0.8l1,1v0.8l1,0.9c1.1-0.3,2.3-0.7,3-0.1c0.3,0.3,0.4,0.7,0.5,1.3l2.9,2.5l0.1,0.6c-0.9-0.1-2.1,0.3-2.9,0.8l-0.6-0.1l-1.4-2
		l1-2l-0.1-0.5l-0.7,0.1l-0.4,1.1l-0.9,0.1l-0.9,1.3l-1.2,0.3l-0.2,0.6l1.6,3.8l-0.2,0.2l0.5,1.1l0.4-0.2c0.9,1.3,2,2.5,2.6,4
		c0.6,1.3,0.3,3,1.4,4.1c1.5,0.4,2.1,0.4,3.5,1.5c1.9-1.4,5.2,1.9,7.3,1.1c0.9,0.9,2,1.6,3.3,1.3l-0.4-1l0.8-1.1l-1.6-1.2l-1.1-0.1
		l-0.2-0.6c0.5-0.8,0.5-1.8,0.6-2.7h-0.6c-0.3-1-1.2-2.1-2.1-2.6l-1,0.1l-0.8-0.7l-1.5,0.1l-2.4-2.9l1.1-1.8l-1-2.1l0.5-1.5
		l-1.3-2.3l1-1.9l-0.3-0.5l0.6-1.2l0.7,0.3c0.3-0.1,0.6-0.2,0.9-0.3c0.6-0.1,1.3,0.7,1.8,1c0.8,0.4,1.6,0.5,2.4,0.8l0.5,0.7
		c0.8,0.4,2.1,0.4,2.9,0.1c0.5,0.8,1.1,0.7,1.8,1.1c1.7,1,2.3,2.9,3.8,4.1c0.8,0.7,2,0.9,3,1.4c1.2,0.6,2.2,1.5,3.4,2.1
		c1.1,0.6,2.4,0.7,3.4,1.4c1.5,1,2.4,2.8,4.1,3.5l0.9-0.3c0.7,0.2,1.7,1.8,2.3,2.3c0.7,0.6,1.6,0.9,2.3,1.5c0.4,0.3,0.6,0.7,1,1
		c0.5,0.5,3.3-0.1,3.9-0.4c0.1-0.5,0.5-1,1-1.2l0.3,0.6l-0.2,0.7c-0.3,0.3-0.7,0.6-1,0.9c-0.6,0.7,0.6,3.5,1.1,4.1
		c0.3,0.4,0.7,0.7,1.1,1.1h0.7l0.9,1l1.9,0.3l0.2,0.9l1.2,0.2l0.3-0.5c0.5-0.3,1.2-0.1,1.7,0c3.5,0.8,5.7,4,7.4,6.9
		c0.6,1,0.9,2.2,1.6,3.2c1.3,1.8,3.7,3.4,5.8,4.3l0.7,1.6c0.6,0.4,1.4,0.7,1.9,1.2c1.3,1.2,5.4,6.3,3.7,8l0.4,0.7
		c-0.6-0.3-1.5-0.1-2.1,0.1c-0.5,0.2-1.7,0.5-2.1,1c-1.1,1.3-1.7,2.8-3.2,3.8c-0.1,0-0.3,0.1-0.4,0.1s-0.4,0.3-0.4,0.3
		c-1,0.2-2.3,0.3-3.2,0.6c-1.2,0.4-2.6,1.2-3.8,1.7c-1.6,0.7-1.5-0.4-2.5-0.7c-1.9-0.7-3.6-1.9-5.7-1.5c0,0-0.2,0.2-0.2,0.3
		c-0.6,2.7-0.3,3.4-0.5,6.1c0,0.4-0.4,0.8-0.3,1.3c-1.4,1.4-3.2,2.1-4.5,3.6c-0.4,1.9-0.3,4.3,0,6.3c1.8-0.5,7.2-0.4,9.3-0.4
		c0.3,0.1,0.8,0.7,0.9,1v0.6c-0.8,0.7-1.8,1-2.5,1.7c-1.3,1.1-0.5,5.6-2.4,6.3c-0.7,0.1-5.1,0.3-5.5,0.8c-1.3,2.4,0.9,7,1.3,9.2
		l-0.3,3.1c-0.6,4.1-4.1,4.1-5.1,5.7c-1.1,1.8-1.3,4-1.6,6c-0.1,0.7-1.3,1.4-1.9,1.5l-6,1c-0.9,0.2-1.3,1-2,1.4
		c-0.9,0.5-2.1,0.7-2.9,1.2c-0.2,0.2-0.3,0.3-0.5,0.6c-1.8,2.2-1.1,2.4-2.1,4.9c-0.7,1.8-1.6,3.4-2.3,5.1c-0.4,1.1-0.8,2.2-1.2,3.4
		c0,0-0.4,0.5-0.5,0.5l-1.8-0.1c-1.6-1-2.1-2.7-3.9-3.5c-1.1-0.1-2,0.3-2.5,1.3l-0.5,3.1l-0.4,0.5l-0.7,0.1c-1-0.9-2.1-2.3-1.8-3.7
		c0.4-0.5,1.6-1.7,1.5-2.4l-0.5-0.7c-1-0.6-3-0.3-3.9,0.3l-3.8-1.5c-0.2-0.1-0.4-0.6-0.4-0.7c0.2-0.6,0.3-1.4,0.2-2
		c-0.5-0.8-1-1.8-1.6-2.5c-0.1-0.1-0.6-0.4-0.7-0.5c-0.5-0.6-1.2-1.6-1.2-2.4h-0.5c-0.1,0.7-0.6,2.2-1.1,2.7l-2.8,0.5
		c-0.3,0.2-0.9,0.7-1,1.1c0,0.8,1,2.8,0.9,3.1c-1.4,1.2-0.9,4-0.8,5.6l-7.4,0.2c-0.7,0-1.3-0.5-2-0.2l-0.2,0.2
		c-0.2,0.5,0.1,1.4,0.4,1.8l-0.1,0.7l-0.3,0.2c-1.6-0.4-2.2,0.3-3.6,0.7c-1.2,0.4-2.5,0.7-3.8,1l-0.7,1c-0.2,1.4,0.4,3.9-0.3,5
		c-0.6,0.1-2-0.2-2.4-0.7c-0.7-0.2-1.9-0.1-2.6,0.3l-0.3-0.1c-1.1-1.5-1.8-3.1-2.8-4.6c-0.8-0.5-3.4,0.5-4.1,0.8
		c-0.3,0.6,1.2,2.4,1.6,2.8c0.3,2.4-2.3,5-0.7,9.3c-2,0.3-13.8,2.2-14.8,2.8c-0.4-0.4-1.3-1.1-1.9-1c-0.4,0.2-1.6,1.5-1.9,1.8
		l-4.6,6.6c-0.9,1.3-1.6,1.9-2.3,3.3c0,0.1-1.1,7.2-1.2,7.7c0,0.1,0.1,0.3,0.1,0.5c-0.1,0.6-0.6,4.1-1,4.4l0.2,0.1l-0.2,1
		c-1.3-0.6-2.5-1.2-2.9-1.2c-1-0.1-2.1,0.2-3.1,0.3c-3.3,0.3-3.9-1.1-6.3,2c0.1,0.8-0.8,2.7-1.5,3c-0.4,0.2-0.8,0.3-1.2,0.5
		c-1.2-0.6-3.8-1.8-5.1-1.4l-0.8-0.4c-0.5,0.3-1.1,0.6-1.7,0.5l-0.3-0.7l-0.5-0.1l-0.3,0.5l-1.9,0.4l-0.4,0.5c-2.3-0.5-5.4,0-7.5-1
		l-0.1-0.4l0.7-1.1l-0.2-0.7l-0.6-0.6c-0.4,0.1-1.1,0.3-1.4,0.7v0.8c-0.2,0-0.3,0-0.5,0c-1-0.1-3-2.6-4-3.2c-0.3-0.2-0.7-0.3-1-0.4
		c-1.1-0.5-1.9-1.5-2.9-2.1c-1.2-0.7-4.5-1.6-5.1-2.4l-0.1-0.8l-0.9-1v-0.9c0.8,0.2,1.8,0.3,2.5,0l-0.9-0.6c-0.9,0.3-2.5,0-3.3-0.6
		l0.2-0.7l0.9-0.3l0.1-0.3c-0.3-0.3-0.8-0.4-1.2-0.4l-0.2-0.6l0.4-0.2l0.1-0.6l-2.1-2.1c-1.1-0.1-2.3-0.5-3.2-1.1l0.5-0.5
		c-0.3-0.6-2.1-1.5-2.7-1.8l-0.7-1.4l-0.9-0.4l-1.2,1.4l-0.9-0.2l-1.1,1.5l-0.4,0.1l-0.6-0.6c-0.1-0.5-0.4-1.9-0.2-2.4l0.9-0.3
		l-0.5-0.8l-0.6-0.1l-2.7-3.7l0.2-0.8l0.7-0.3c-0.8-0.7-1.4-1.8-1.8-2.8c-0.7-0.1-2.3-0.3-2.8-0.9c-2.5,0.8-3.7-1.5-5.8-2.2
		c-0.4-0.8-1.9-3.9-2.5-4.2c-1.1-0.5-3.7-1.5-4.9-1.5c-0.7,0.4-2,1.1-2.8,1c-0.5-1.4-1-1.7-2.5-1.6l-0.2-0.8l0.6-1.3l-0.5-1.9
		l0.5-1.1c-0.8-0.6-2.4-0.3-3.3,0c-0.6-0.2-1.6-1.8-2.1-2.4l0.4-2.8l-0.9-0.8h-0.7l0.1,1.9l0.5,0.6l-0.5,0.4
		c-0.9-0.5-3.4-1.5-3.9-2.3l0.2-0.4l0.7-0.1l0.3-0.4l-0.2-0.4c-0.7,0-1.5,0-2.2-0.1c-0.9-0.1-0.6-3.6-2-4.4
		c-0.6,0.9,0.6,3.8,1.2,4.6l-0.3,0.3l-1.4-0.8l0.2-1c-0.4-0.9-1-1.8-1.2-2.8c-0.5-1.9,1.1-7,0.6-8l0.1-0.3h0.4
		c0.6,0.6,1,1.3,1.1,2.2h0.7c0.2-0.1,0.8-0.5,0.9-0.7c0.4-0.7-0.9-2.2-1.5-2.6l-0.5-1.6l-1.6,0.5l0.1,2l-0.4,0.1l-1-1.8l0.1-2.2
		l0.4-0.2l0.7,0.3l0.8-0.3l1.8,0.2l0.3-1.1l-0.3-0.4c-0.7-0.1-1.7,0.1-2.3,0.6c-0.3-0.2-0.8-0.7-0.8-1c0-0.2,0.1-0.4,0.1-0.5
		c0-0.9-1.6-5.4-2.1-6.3c-0.6-1.1-2.5-2.6-2.6-3.8c0.7-1.3,1.1-3.6,0.6-5l0.4-0.6l-0.2-0.4l-0.8-0.4c-0.2-0.6-0.8-2.8-0.4-3.2
		c0.2-0.2,0.5-0.4,0.7-0.6l0.3,0.2c0,1.3,2.4,4,3.8,3.9l1.2-1.6l-1.9-2.1l0.5-1.1l-0.2-0.7l-2.2-1l-0.6-1l-1.4,1l-1.3-0.2l0.4-1.2
		l-0.4-2.1c-0.5-0.4-1.1-0.7-1.5-1.2c-0.8-0.8-2-4.8-1.6-5.9l0.9,0.1v-0.7c-1.1-1.3-0.7-2.7-1-4.2c-0.1-0.4-1.6-3.8-1.9-4.3
		c-0.6-1.1-1.5-2-2.3-2.9l-0.1-1.2l2.1-0.3c0.1-0.3,0.3-0.6,0.4-0.9c0,0-0.1-1.6-0.2-1.8c0-0.9,0.5-1,0.2-2l-1-0.1l-0.6,0.3
		c-0.2,0.7,0.3,2.4,0.6,3.2l-0.9,0.9L1605.1,559.1z"/>
	<path id="CA" class="st0" d="M1521.7,520.8c1.1-3.3,2.7-6.3,3.7-9.6l-0.2-0.3c-0.4,0.1-1-0.1-1.4-0.2l-1.4-0.4
		c-1-0.4-2-1.9-2.4-2.8c-0.6-2.6,3.1-4.4,3.7-6.2c0.2-0.8,0.3-1.6,0.5-2.4c0.3-0.9,0.9-1.8,1.2-2.7c0.5-2,0.2-6.4,1.2-7.9
		c0.9-1.3,2.2-2.4,3-3.7c0.7-1.1,1.3-2.5,1.8-3.6c0-0.1,0-0.4,0-0.4c0.6-2.3,1.3-4.6,1.6-6.9c0.8,0,1.8-0.1,2.6,0
		c0.6,0.1,1.6,0.3,2.2,0.5c0.6,0.2,1.3,0.9,2,0.7l0.3-0.2c0.3-0.7,0.6-1.4,0.9-2c0.4-0.8,1-1.5,1.4-2.3c0.9-1.6,1.7-3.3,2.5-5
		c0.2-0.5,0.8-0.9,0.8-1.6c0.2-1.4-0.4-6.4-2.2-6.9c-1.2-0.3-2.5,0.1-3.5-0.8c-0.6-0.5-1.2-1.1-1.8-1.6s-1.3-0.8-1.8-1.2
		c-0.5-0.4-0.7-1.4-1.2-1.8c-0.7-0.6-1.7-1-2.5-1.6c-0.8-0.6-1.4-2.3-1.4-3.2l2.6-5c0.8-1.6-1-3.7-0.4-5c0.9-1.5,2.5-2.5,3.1-3.8
		c0.8-1.7,0.5-4.3,1.6-5.8c0.8-1.2,2.3-2,3-2.9c0.2-0.3,0.2-0.5,0.4-0.8l0.8-1.6c0.4-0.7,1.2-1.3,1.3-2.1c0.2-1,0-1.9,0.3-2.9
		c0.2-0.6,1-0.9,1-1.6c0.1-0.8,0.3-3.5,0.7-4.1c0.8-1.5,2.3-2.3,3.4-3.5c1.5-1.7,1.2-5,0.9-7.1c0.2,0,0.3,0.1,0.5,0.1
		c1.3-1.2,2.5-0.5,3.9-0.8l0.4,0.3l3.9,0.2l-0.3-0.5l-1.9-0.6v-0.3c1-0.6,3.5,1,4.4,1.4c1.7,0.8,6.6,1.9,8.4,1.5
		c1.3-0.3,2.4-1.7,3.6-1.7c0.5,0,1.1,0.3,1.5,0.6c2.6,2,2.1,5,1.2,7.8c0.3,1.2,2,4.3,3.2,4.6c0.5,0.1,0.9,0.1,1.4,0.1
		c0.2-0.5,0.6-0.9,1-1.1l0.9,2.2h1.8l0.6-0.9l-0.5-1l0.1-0.5c0.4-0.2,1-0.2,1.4,0l-0.6-1.7c0.3-0.8,0.7-2.6,1.2-3.3
		c0.2-0.3,0.4-0.4,0.6-0.6c0.3-0.4,0.5-1.5,0.7-2l-0.1-0.5l-0.4-0.3h-0.4c-0.5,0.4-0.7,1.7-0.6,2.3h-0.6l-0.6-1l0.3-0.6l-0.1-0.5
		l-2-0.3l-0.4-0.8l-0.6-0.4l-1.2,1.2c-0.1-0.3-0.2-0.5-0.2-0.8c-0.1-0.8,1.4-1.9,2.1-1.7c0.3,1,2.1,2,3.1,2.2
		c0.5,0.1,1.2-0.1,1.7-0.2l0.3-0.4l-0.2-0.2c-1,0-3.3-0.5-3.9-1.4l0.2-0.3l2.3,0.8l1.1-0.2c2.3,1.5,2.3,2.3,3.6,4.5l2.6-0.7
		c0.5,0.3,0.7,1.1,1,1.6c0.8,1.6,2.2,2.2,3.7,3.1l-0.7,0.7l1,0.8c0.6,0,1.9-1,2.4-1.4l1.6,0.6c2.9,3.6,7.7,2.5,9.4,3.7
		c0.8,0.6,0.8,1.7,1.4,2.3l5.2,4.8l1.1,0.1l0.2,0.4l0.4-0.1l1.1,0.5c2-0.6,3.7-0.4,5.3,0.9l0.2,0.5l3,1.6v-0.2l-1-1.1v-0.3l1.1,0.9
		l0.7-0.8v-0.7l0.5-0.7l0.5,0.2l0.6,1.8l-0.6,0.1v0.6c0.5,0,1,0.3,1.2,0.6l0.2-0.3c-0.2-0.6-0.1-1.4,0.1-2l0.5-0.1
		c-0.1,0.7-0.2,1.8,0.2,2.5l0.3-0.1l0.2-1.2l0.3,0.2l0.4,1.6l0.6,0.3l0.3-0.2l-0.6-2.1l-0.7-0.3l-0.3-0.5l0.4-0.3l1.8,1
		c-0.1,2.3,2.7,3.2,0.7,5.5l0.2,0.3l1.4-0.1l0.3-0.4l-0.2-1.4l0.1-0.2l0.8-0.2v-1.4l0.5,0.4c0.3,1,0.5,2.2-0.5,2.8v1.1l0.3,0.2
		c0.5-0.2,0.8-0.8,1-1.2h0.6l0.1,0.6l-0.3,0.6l0.1,0.7l0.2,0.2l0.5-0.1l0.3-0.4l0.6,0.1l0.4,0.4l-0.1,0.8l-0.7,0.5
		c0.2,0.9,1,1.5,1.5,2.3c0.4,0.6,0.6,1.3,0.9,2l0.3,0.1l0.2-1.6l0.5,0.6l0.2,1.1l0.1-1.6l0.3-0.2l0.7,2.7l0.2-0.3
		c-0.1-0.7,0-1.8,0.5-2.3l1.2,0.7l-0.1,0.3l-0.6,0.2l-0.2,0.5l0.3,1.3l0.7,0.7l-0.5,1.1l0.8,0.2l1-1.3l0.9-0.3
		c0.7,0.5,2.6,0.3,3.4-0.1l0.4,0.6l1.4,0.4l1.8,2.7c0.8,0.1,2,0.6,2.4,1.4l0.4-0.1l0.7-1l0.7,0.4l0.6-0.2l0.8,0.8l0.7,0.1l1.3-0.6
		c0.6,0.3,1.4,0.6,2.1,0.5l0.3-0.4c1.3,0.3,2.2,0.4,3.1-0.8l0.2,1.5l-0.2,0.4h-0.6l-0.1,0.5l0.2,0.4l0.9-0.2l0.2,2.8
		c1.8-0.9,3.9,0.5,4.4,0.3l0.1-0.6c0.6-0.1,2.5,0.4,3.4,0.4l0.1,0.4c-0.4,0.3-1.7,0.3-2.3,0.3l1.1,1.5c1.3-0.4,2.5,0.1,3.7,0.6
		l0.1,0.3l-0.3,0.7h0.6l-0.2,0.4c0.3,0.8,1.2,1.4,2.1,1.5c0.7,0.9,0.9,2.6,0.5,3.7c-0.1,0.3-0.3,0.5-0.4,0.8
		c-0.4,1.1-0.4,2.5-1.8,2.9c-0.7-0.1-2.4-0.4-3.2-0.1l-3,2.9c-0.4,0.4-0.9,0.5-1.3,1c-0.5,0.6-1,1.7-1.3,2.1c-1,1.2-1.8,1.1-2.1,1.4
		c-0.8,0.6-1.6,1.6-2.3,2.3c-1.3,1.3-3.6-0.4-4.9,0c-0.8,0.2-1.6,0.8-2.4,1.1c-1.4,0.5-3.8-0.7-4.7,0.7c-0.4,1-0.6,2.1-0.8,3.1
		c-0.4,2.6-0.7,2.4,0.7,5c0.4,0.7,0.9,1.4,1.5,1.9s1.4,1.1,2.1,1.5c0.2,0.1,1.5,0.6,1.6,0.7c1,0.8,1.9,2,2.9,2.9
		c0.4,0.3,1.1,0.5,1.5,0.8c1.1,0.8,1.4,1.5,2.1,2.5c0.1,0.2,0.4,0.3,0.6,0.6c0.8,1.1,1.7,2.5,1.9,3.9l-0.7,1
		c-1.3,0.7-3.9,1.1-4.4,2.5c0,1.2,1,4.3,0.8,4.9l-0.6,0.1c-3.3-2-6.8,1.5-9.3,1.3c-0.9-0.1-1.5-2.3-1.8-2.9c0-0.1-1.2-1.2-1.4-1.4
		l-0.2-1.1c-0.5-0.3-2-1.3-2.1-1.8l0.2-2.2c-0.5-1.3-3.7-0.9-4.3-0.1c-0.7,0.9-1.3,1.9-1.6,3c-0.6,0.3-2.5,1.3-2.8,2
		c-0.4,1,0.5,2.9,0.9,3.9c0,0.1,0.3,0.3,0.3,0.3c0.7,2.7,1,3.5,0.4,6.2l-0.3,0.3c-0.2-0.1-1.4-0.6-1.6-0.4l-0.3,0.3
		c-0.1,0.4-0.3,1.6-0.6,1.9l-3.9,3.2v1c0.5,0.8,2,1.6,2.9,1.9c0.5,0.5-0.1,1.4-0.7,1.6l-1,0.2c-2.4,0.4-3.7-0.1-5.7-1.4
		c-0.9,0-2.1,0.2-3,0.1c-0.8-0.1-1.4-0.7-2.3-0.4c-0.4,0.2-1.1,1-1.2,1.4c-0.2,1-0.1,2.1-0.3,3c-0.3,2.2-1.9,6-3.5,7.8
		c-0.4-0.2-1.9-2.6-2.5-3.2c-1.5-0.3-3.5,1-4.8,1.5c-1,0.5-2.8,1-3.8,1.5c-1.2,0.7-2.3,1.9-2.6,3.3c-0.7,0.6-1.2,0.3-1.9,0.5
		c-0.6,0.2-2.6,1-3.2,1.4c-2.5,1.9-2,3.5-5.7,4.9c-0.1,0-0.7,0-0.8,0.1c-0.6,0.1-3.6,0.5-3.9,0.8l-0.5,0.8l0,0
		c-0.1-0.1-0.2-0.3-0.4-0.4l0.5-0.6l-0.4-0.8l-2.2-0.3l-0.8-1.1v-1.3l-1.2,0.4c-2.4-0.8-7.1-2.3-9.6-1.5l-0.6-1l-1.2-0.4l-0.1-0.6
		l1.4-2.9c0.1-0.3,1.5-0.2,1.8-0.1l0.6,0.6l0.2,1.6l0.4,0.1c1.5-1.4,3.7-1.3,5.5-0.6l-1.7-4.1l-1.5-0.9l-1.7,0.3l-0.2-0.3l0.2-1.1
		l-0.5-1.3c-1.9,0.5-2.8-0.9-4-2.1c-0.6,0.2-1.9,0.6-2.5,0.3c-0.6,0.3-1.5,0.9-1.8,1.6c-2.9,0.7-5.9,1.3-8.9,1.8l-1.8-0.8
		c-0.8,0.3-2,1.4-2.3,1.5c-2.1,0.6-2.8,0.7-3.4,1.1c-0.6,0.3-1.1,0.9-2.7,2.4c-4.2-1.2-6.3-1.1-10.6-0.7l0,0
		c0.1-1.2,0.3-2.6,0.2-3.8c0-0.1-0.6-2.1-0.7-2.3c0-0.1,0.1-0.5,0.1-0.6c-0.1-0.5-0.3-1.2-0.3-1.7c0-1.4,1.3-5.3,0.3-6.2
		c-3.1-2.8-5.5-4.9-9.8-4.2l-0.2,2.2c0,0.1-0.1,0.2-0.1,0.2l-0.1,3.8c0,0.1-0.2,0.6-0.3,0.7c-0.1,0.1-0.6,0.5-0.7,0.5l-3.9,1.8
		c-0.3,0.1-5.5,0.3-6,0.2c-0.7-0.2-1.4-0.6-2-0.8C1521.6,521.3,1521.6,521,1521.7,520.8z"/>
	<path id="SS" class="st0" d="M1368.5,495.9c-0.8-0.1-1.7,0.1-2.5,0h-0.1l0,0c0.1-1.4,0.4-2.9,0.4-4.3c0.1-1.4-0.4-2.9,0-4.4
		c0-0.1,0.7-1.3,0.8-1.5v-0.4c1.1-1.4,2.7-1.6,4.2-2.4c1.1-0.5,1.8-2.6,2.9-3.4c1.8-1.3,2.8-0.5,3.7-3.2c1.1,0,7.3,0.2,7.9-0.1
		c0.3-0.3,0.9-0.9,1-1.3c1.3-3.8,0.9-4.8,5.1-5.1c1.4-1,0.9-2,1.3-3.4c0.4-1.3,1.9-2.4,3.3-1.9c0.6,0.2,0.8,0.5,1.3,0.7l2,1.1
		c0.3,0.1,0.7,0.1,1,0.1c2.2,0.1,3.5-1.2,4.7-0.9c0.8,0.2,2.1,0.7,2.7,1.3c0.6,0.6,1.1,2,2.2,2c0.8-0.4,3.4-1,3.8-1.5l-0.1-1
		l-2.5-2.8c-0.2-1.1,1.2-5.6,2.1-6.8c1-0.2,2.2,0.3,3.3,0.3c0.4,0,0.8-0.3,1.1-0.4l1.1-0.5c1.4-1,1.8-3.4,1.7-5
		c-0.2-1.6-0.9-3.1-0.6-4.7c-0.6-0.8-3.2-4-2.9-5.1c0.4-1.7,1-3.4,0.5-5.1c-0.3-1-1-1.3-0.8-2.6c0.1-0.2,0.5-0.5,0.8-0.5
		c1,0,2,0,2.9-0.1c0.6,0,1.3-0.1,1.9-0.2c0.2,0,1-0.4,1.1-0.5c0.5-0.1,1.7,0.1,2,0.6c0.6,1.3,0.3,2.6-0.2,4l0.3,0.3
		c0.8,0.5,2,0.1,2.8,0c1.4,0,2.1,1.6,3.9,0.6c0.9-0.5,2-0.9,2.8-1.5c0.9-0.6,1.8-1.6,2.6-2.4c0.1-0.1,0.6-0.3,0.7-0.4
		c0.5,0.8,3.1,4.8,4.5,4.7c1,0,3-1.6,3.7-0.9c1.8,1.8,1.1,8,3.9,7.9c0.4,0,1,0,1.4-0.3c1.4-1.6,1.6-3.5,2.4-4.3
		c0.6-0.3,3.3-0.2,4-0.2l0.5-0.4c0.1-1.3-1-2.9-0.7-3.9c1.1-2.5,3.8-3.8,5.5-5.7c0.8-0.8,1.5-2.1,2.2-3.1c1.1-1.5,3.9-1,4.7-3.5
		c3.3-0.1,7.5,0,10.6,0.8c1.2,0.7,1.3,1.9,2.1,2.9l1.1,0.2c1.8-0.6,0.7-3.9,0.7-5.1c0.6-1.4,3.6-3,4.8-3.8l0.1-0.7
		c-0.1-0.1-0.7-0.9-0.8-1c-0.7-0.5-1.6-0.8-2.4-1.2c-1-0.6-2-1.4-3-2.1c-1.5-1-5.5-1-7.1-1c-0.2-1-0.4-2.1-0.7-3.2
		c-0.2-0.6-0.7-1.3-0.6-1.9c0-0.1-0.4-0.4-0.4-0.4c-1.1-2.1-2.1-3-0.8-5.2c0.5-0.9,1.1-1.8,1.7-2.6c0-0.8-1.1-2.5-1.6-3.1v-1.2
		l3.6-4.7c0.8,0.6,1.5,1.4,1.8,3c1.8,0.9,2.4,4.4,5.7,3.4c0.7,0.7,4.9,2.3,5.9,2.3c0.5,0,1-0.2,1.5-0.2s2.8,0.9,3,1.4
		c0.2,0.5,0.3,1,0.4,1.6l0.9,0.5l1.4-0.1c1.1,1.4,1.6,1.2,3.1,0.8l0.2-0.5l-0.4-0.8c0.3-0.3,0.8-0.5,1.2-0.6l1.6,0.3l0.1-0.5
		c0.3-0.2,1.4-0.6,1.7-0.4c0.2,0.2,0.5,0.4,0.7,0.6c1.1,1,1.9,1,3.3,0.8c1.5-0.1,4.1,1.6,5.3,0.9c0.6-0.4,1.2-0.8,1.7-1.2l0.2-2.2
		c1.1-1,3.9,0.6,5,1.1l0.5-0.7l0.7,0.3c0.1,0.5,0.2,1,0.3,1.4c0.2,0.5,1.9,0.7,2.5,0.6l0.6-0.6l0.8-0.1l1,1.2l0.5-0.1l-0.4-0.7
		c0.1-0.7,0.9-1.4,1.6-1.4l0.7,0.5l1-0.1l-0.3-0.7l0.4-0.4l1.7,0.4l0.8-0.6l-1.2-0.3l-0.2-0.3l0.3-0.3l1.8,0.2l1.2,1.1h0.8l0.5-1
		h1.1l0.9-0.7l1-0.1c1,1.1,2.6,1.4,3.9,1.2c0.5,0.4,1.7,1.3,2.3,1.2c1-1,1.7-0.8,2.8-0.5c0.3,2.1,0.6,5.4-0.9,7.1
		c-1.1,1.3-2.5,2-3.4,3.5c-0.3,0.6-0.6,3.3-0.7,4.1c-0.1,0.6-0.9,1-1,1.6c-0.3,1-0.2,1.9-0.3,2.9c-0.1,0.8-0.9,1.4-1.3,2.1l-0.8,1.6
		c-0.2,0.3-0.2,0.5-0.4,0.8c-0.7,0.9-2.1,1.7-3,2.9c-1.1,1.5-0.7,4.1-1.6,5.8c-0.7,1.4-2.2,2.4-3.1,3.8c-0.5,1.4,1.3,3.4,0.4,5
		l-2.6,5c0,0.9,0.7,2.6,1.4,3.2c0.8,0.6,1.8,1,2.5,1.6c0.5,0.4,0.6,1.4,1.2,1.8c0.6,0.5,1.3,0.8,1.8,1.2c0.6,0.5,1.2,1.1,1.8,1.6
		c1.1,0.8,2.3,0.5,3.5,0.8c1.8,0.4,2.3,5.5,2.2,6.9c-0.1,0.6-0.6,1.1-0.8,1.6c-0.8,1.7-1.7,3.4-2.5,5c-0.4,0.8-1,1.5-1.4,2.3
		c-0.4,0.6-0.6,1.3-0.9,2c0,0-0.2,0.2-0.3,0.2c-0.7,0.3-1.4-0.5-2-0.7s-1.6-0.4-2.2-0.5c-0.8-0.1-1.8,0-2.6,0
		c-0.3,2.3-1,4.6-1.6,6.9c0,0.1,0,0.4,0,0.4c-0.6,1.1-1.1,2.5-1.8,3.6c-0.9,1.3-2.1,2.4-3,3.7c-1,1.5-0.7,5.9-1.2,7.9
		c-0.3,0.9-0.9,1.8-1.2,2.7c-0.3,0.8-0.3,1.6-0.5,2.4c-0.6,1.8-4.3,3.6-3.7,6.2c0.4,0.9,1.4,2.4,2.4,2.8l1.4,0.4
		c0.4,0.1,1,0.3,1.4,0.2l0.2,0.3c-1.1,3.3-2.6,6.4-3.7,9.6c-0.1,0.2-0.1,0.5-0.1,0.7c0.6,0.3,1.4,0.6,2,0.8c0.4,0.1,5.7-0.1,6-0.2
		l3.9-1.8c0,0,0.6-0.5,0.7-0.5c0-0.1,0.3-0.7,0.3-0.7l0.1-3.8c0-0.1,0.1-0.2,0.1-0.2l0.2-2.2c4.3-0.6,6.8,1.5,9.8,4.2
		c1,0.9-0.3,4.8-0.3,6.2c0,0.5,0.2,1.2,0.3,1.7c0,0.1-0.1,0.5-0.1,0.6c0.1,0.2,0.7,2.2,0.7,2.3c0.1,1.2-0.1,2.6-0.2,3.8l0,0l0,0
		c-1.4,0.1-3.7,0-5,0.5c-0.3,0.1-0.5,0.3-0.8,0.4c-0.4,0.2-4,1-4.4,1c-0.9,0-1.7-0.5-2.6-0.7c-0.5-0.1-2.7,0.1-3.1,0.4
		c-1,0.6-1.7,1.5-2.7,2c-2.2,1.2-7.3,3.5-9.8,3.9c-0.8,0.2-1.7,0-2.5,0.2c-0.6,0.2-1.1,0.6-1.7,0.8c-1.2,0.3-2.4,0.2-3.6,0.4
		c-1.8,0.4-2.5,1-4.4,0.5l-8.3-2.2c-0.6-0.2-1.3-0.1-1.9-0.3c-2.6-0.8-4.5-2.8-6.9-4.1c-2.6-1.5-3.5-0.9-5.5-3.7h-0.5l-0.9,1
		c-0.5-0.1-0.9,0-1.3,0.1c-0.4,0.1-0.9,0.1-1.3,0.3c-0.7,0.2-1.8,2-2.8,2c-0.9,0-2.2-0.7-3.1-0.8c-0.8-0.1-2.8,0-3.4-0.2
		c-0.5-0.2-1-0.4-1.5-0.7c-0.4-0.3-1.1-1.4-1.5-1.8c-0.8-0.7-1.7-1.1-2.6-1.8c-0.8-0.6-3.2-2.8-3.6-3.6l0.4-0.6l0.9,0.2l0.4-0.2
		c-0.4-0.6-0.5-1.4-0.4-2.1l-0.3-0.5h-0.5c-0.2,0.4,0,1.2,0.2,1.6l-0.8,0.9h-1.2c-0.4,1.3-1.1,2.5-2,3.5c-0.7-2.3,1.6-3-0.9-5.2
		l-1,0.2l0.3,0.6l0.9,0.2c0.4,0.7,0.2,2.8-0.1,3.5c-0.2,0.5-0.6,0.9-1,1.4h-1c0-1.2-1-3-2-3.7c-1.1-0.8-4.8-0.3-6.1,0
		c-0.3-0.8-0.3-1.9-0.1-2.7c-1.3-3.2-8.7-6.3-11.9-5.9c-1.2,0.1-3.1,1.6-4,2.4c-0.5-0.6-2-0.8-2.8-0.8l-0.3,0.3l-0.4-0.2
		c-0.3-0.5-0.5-1-0.8-1.4c-0.3-0.4-1.8-0.3-2.2-0.1c-0.4-0.1-0.6-0.4-0.8-0.8l0.9-0.5l-0.1-0.3c-0.6-0.1-1.2-0.1-1.7-0.3
		c-0.6-0.2-1.6-2.1-1.8-2.7h-0.7c-0.7,0.6-2.5,1.2-3.4,1.4l-0.9-2l-0.2-0.1l-0.2,0.2l0.2,1.4c-0.3,0.3-1,0.5-1.5,0.6l-0.2-1
		l-0.6-0.1l-1.2,0.4l0.3,0.8c-0.8,0.9-1.2,2.6-1.4,3.7c0.7,0.7,1,2.4,0.1,3l-0.3-0.5h-0.7c-0.7-0.4-1.5-0.6-1.9-1.4
		c0.1-0.7,0.2-3.2-0.3-3.7c-0.9,0.1-1.4,1-1.4,1.9c-0.7,0.5-1.3,0.1-1.8-0.4l-3.6,0.2l-0.3-0.5c0.3-1.3,3.4-1.1,4.4-0.8l1-0.6
		l-0.6-1.2c-1.2-0.1-3.2,0.8-4.4,1.3l-0.5-0.4c1-0.6,2.9-2.1,3.3-3.2l-0.4-1c-1.1,0-2.5,0.7-3.4,1.3l-0.4-0.3l1.2-1.4l0.4-2.6
		c0.9-0.1,1.9,0.6,2.2,1.4l0.3-0.3c-0.2-0.4,0-1.1,0.1-1.5l0.3-0.2l-0.1-0.5c-0.9-0.2-1.8-0.5-2.8-0.5c-0.6,0-3.1,0.6-3.2,1.3
		l-0.6,3.6h-0.4l-0.3-0.9l-1.7,0.6l0.1-1.4l-0.4-0.1l-0.2,0.6l-0.6,0.1v-0.3l-0.7-0.2l-1.1,0.5l-0.3-0.2l-0.1-1.3l-0.2-0.2l-0.6,0.7
		c-0.6-0.4-1.9-0.2-2.6,0l-1-1.1c-1.1,0-1.7-0.7-2.7-0.9c-0.8-0.2-1.6-0.1-2.4-0.2l-1,0.6c0.5,1.2,0.8,1.7,2.1,2l1.6-0.8l0.4,0.4
		l0.2,0.7l1.9,0.8l0.4,0.5l-0.3,0.6c-2.3,0-4.9-1.4-6.8-2.6c-1-0.7-0.9-1.6-1.1-2.7c-0.2-0.9-1.8-1.7-1.1-3.1l-1.3-3.1l0.5-0.8
		l1.9-0.9l1,0.8h0.3l0.3-0.3c-0.5,0-1.2-0.5-1.5-0.9c-0.5,0.3-1.7,1-2.3,0.8l-0.4-1c-0.9,0.4-3,0.3-3.9,0.1
		C1370.2,496.6,1369.4,496,1368.5,495.9z"/>
	<path id="VC" class="st0" d="M1263.9,318.6c0.6-0.2,1.3,0.1,1.8-0.1c1.8-0.4,2.7-2.3,3.8-3.7c0.1-0.1,0.1-0.4,0-0.6
		c-2.3-1.1-3-1.9-3.1-4.5c-0.1-2.8,0-2.5,0.9-5c0,0,0.3-0.3,0.4-0.4c1.3-0.6,1.6,0.1,2.8,0.2l1.7,0.1c0.3,0,0.5,0.1,0.8,0
		c0.7-0.1,1.5-0.8,2.2-1c1.8-0.5,3,0.1,4.3,1.4c1,0.4,4.4-1,5.5-1.6c0.7-0.8,0.8-2,0.9-3l-1.5-3c-0.1-0.3,0-1.7,0-1.8
		c0.2-2.7,0.1-2.6,1.6-4.9c0.6-0.9,1.3-1.7,2.3-2l0,0c0.2,1.1,0.9,3.1,2.2,3.4c0.1,0,1.7-0.1,2-0.1c1.3,0.1,2.4,4,2.9,5.1
		c0.5,0.9,2.6,4.6,3.8,4.3c0.4-0.1,0.8-0.3,1.2-0.4c0.8,1.1,3.3,0.4,4.1-0.3l0.8,0.1l1.7,1.9c0.4,0.1,0.9,0.1,1.4,0.2
		c0.5,0.1,0.8,2,1.1,2.5c1.1,1.4,6.5,3.1,8.4,3.5c1.4,0.3,2.9,0.2,4.3,0.5l0.1,0.2l1.1-0.6l0.4-0.6l0.7,0.1c0.4-0.3,1.2-0.8,1.7-0.7
		s2.4,1.5,2.9,1.9l1,0.1c0.5,0.5,1,1.1,1.6,1.6c1.4,1.1,4.3,1.1,4.8,3.1l0.4-0.1l0.6,0.4h2.1l0.6,0.9c1,0.3,3.4-0.9,4-1.8l1.4,0.5
		l0.8-0.8l1.1,0.1l0.7-0.9l0.7-0.1l0.3-0.6l2.2-0.2l1.8-1.8c1.2,0.2,3.3,0.4,4.4,0l0.4-0.7l-0.9-1.8l0.6-1.6
		c0.6-0.2,2.3-0.9,2.8-0.8l0.2,0.5c-0.4,0.3-1.3,1.1-1.4,1.6l0.2,0.3l1.1-0.9l2.3-0.1c0.3,0.8,0.9,1,1.7,0.8l0.4,0.3l0.5,1.9
		l3.2-0.7l1,0.8l0.9-0.6l1.2,1.5c0.6,0.1,2.5-0.3,2.9-0.7c0.3-0.3,0.5-0.7,0.7-1l-0.8-2l0.4-0.4l0.4,0.2c0.3,0.6,0.7,1.9,1.4,2.2
		c0.6,0.3,3,0,3.6-0.4l0.2,0.5l-0.8,1.1c0.9,1.6,1.8,3.2,2.8,4.7l-0.1,1.3l1.4,0.3l0.3,0.3l0.1,1.9l0.7,1.1h0.3
		c1.8,1.4,4,2.7,6.4,2.6l0.4-0.4v-0.3l-1.8-0.4l0.4-0.4c0.8-0.1,3.7,0.6,4.1,1.3c0.3,0.5,0,1.4,0.6,1.8l3.1,2.2l1.6-1.3
		c0.1-1.2,0.7-2.4,1.4-3.2l-0.4-1.3l0.3-0.6c0.7-0.2,2.1,0.4,3.2,0.1l0.3-0.6c1-0.1,2.5-0.1,3.4,0.4l1.4-1c0.8,0.4,4.1-1.9,4.9-2.3
		l0.7,0.5h0.9c0.2,0.8-0.1,2-0.4,2.7c-0.6-0.3-1.8-0.7-2.4-0.4c-0.1,0.5-0.3,1.1-0.8,1.4l0.5,0.9l-0.8,0.3l-1.6-0.3l-1.5,0.5
		c-0.9-0.5-3.3-0.6-4.4-0.8l-0.8,0.5c-0.4,0.9,0.1,1.8-0.1,2.4c-0.3,0.8-0.6,1.5-1,2.2c0.3,0.7,1.6,1.6,2.2,2c0.6,1.2-0.3,3,0,4.4
		l0.5,0.4c1.4-0.5,3.4-1.5,4.4,0.1c1.8-0.9,3.3-2.2,4.6,0.2c0.4-0.2,0.7-0.4,1.1-0.5c1-0.4,3.3,2.1,4.2,2.6c0.8,0.4,1.6,0.6,2.4,1
		c1.4,0.6,2.9,1.2,4.1,2.2c1.2,0.9,2.6,3.7,3.8,4l0.5-0.1c0-0.3-0.1-0.7-0.3-1l-0.4,0.1l-0.5-0.4c0.1-0.4,0.4-0.7,0.7-0.9l1,0.3
		l2.3-3c0.1,0.8,0.5,2.5,1.1,3l0.4-1.7c0.9-0.7,2.1-0.5,2.9,0.2v0.4l-1,0.3c0.5,0.8,2.8,3.5,2.8,4.2c-0.1,2.2-1.3,4.2,1,5.7l0.6,2.3
		l0.6,0.5c-0.4,1.4,2.6,4.7,3.6,5.8l0.6-0.8l0.7,0.2c0.7,1.9,3.4,6.5,5.6,6.5c0.5,1.5,0.4,3.1,1.1,4.5c1.1,2.4,3,5.1,4.9,6.9l1-0.1
		c0.3,0.4,0.4,1,0.3,1.5l0.7,0.9l0.7-0.2l0.5-0.6h0.8l0.7,1h0.5l0.9-1.2c0.6-0.1,1.3-0.2,1.9-0.1l0.3,1l0.7,0.3l1.3-0.7l0.6,0.1
		l0.4,0.8l-0.2,0.5l-1.1,0.3c-0.4,0.8-0.1,1.7,0.6,2.2l1,0.1l1,1.2l0.6,0.2c1.2,1.4,1.4,3.4,2.5,4.8c1.2,1.6,3,2,4.3,2.9l-3.6,4.7
		v1.2c0.5,0.6,1.6,2.3,1.6,3.1c-0.7,0.8-1.2,1.7-1.7,2.6c-1.3,2.2-0.3,3.1,0.8,5.2l0.4,0.4c-0.1,0.7,0.5,1.3,0.6,1.9
		c0.3,1,0.4,2.1,0.7,3.2c1.6,0,5.6,0,7.1,1c1,0.7,2,1.4,3,2.1c0.7,0.5,1.7,0.7,2.4,1.2c0,0,0.7,0.9,0.8,1l-0.1,0.7
		c-1.2,0.8-4.2,2.3-4.8,3.8c0,1.3,1.1,4.5-0.7,5.1l-1.1-0.2c-0.8-1-0.9-2.2-2.1-2.9c-3.1-0.8-7.3-1-10.6-0.8
		c-0.8,2.5-3.6,1.9-4.7,3.5c-0.7,0.9-1.4,2.2-2.2,3.1c-1.8,1.9-4.4,3.2-5.5,5.7c-0.3,1,0.8,2.7,0.7,3.9l-0.5,0.4
		c-0.7,0-3.4-0.1-4,0.2c-0.8,0.8-1.1,2.7-2.4,4.3c-0.4,0.3-0.9,0.3-1.4,0.3c-2.8,0.1-2.1-6.1-3.9-7.9c-0.8-0.8-2.7,0.8-3.7,0.9
		c-1.5,0.1-4-3.9-4.5-4.7c-0.1,0.1-0.6,0.3-0.7,0.4c-0.8,0.8-1.7,1.8-2.6,2.4c-0.8,0.6-1.9,1-2.8,1.5c-1.9,1-2.6-0.6-3.9-0.6
		c-0.9,0-2,0.4-2.8,0l-0.3-0.3c0.5-1.3,0.8-2.6,0.2-4c-0.3-0.5-1.5-0.7-2-0.6c-0.2,0-0.9,0.4-1.1,0.5c-0.5,0.1-1.3,0.2-1.9,0.2
		c-1,0.1-2,0.1-2.9,0.1c-0.3,0-0.7,0.3-0.8,0.5c-0.2,1.4,0.5,1.6,0.8,2.6c0.5,1.8-0.1,3.4-0.5,5.1c-0.3,1.1,2.3,4.4,2.9,5.1
		c-0.3,1.7,0.5,3.1,0.6,4.7c0.2,1.5-0.3,4-1.7,5l-1.1,0.5c-0.3,0.1-0.8,0.4-1.1,0.4c-1.1,0.1-2.3-0.5-3.3-0.3
		c-0.9,1.2-2.3,5.7-2.1,6.8l2.5,2.8l0.1,1c-0.4,0.4-2.9,1-3.8,1.5c-1.1,0-1.6-1.3-2.2-2c-0.5-0.6-1.9-1.1-2.7-1.3
		c-1.2-0.3-2.5,1-4.7,0.9c-0.3,0-0.7,0-1-0.1l-2-1.1c-0.4-0.2-0.7-0.5-1.3-0.7c-1.4-0.5-2.9,0.6-3.3,1.9c-0.4,1.5,0.1,2.4-1.3,3.4
		c-4.2,0.3-3.8,1.3-5.1,5.1c-0.1,0.4-0.7,1-1,1.3c-0.6,0.3-6.8,0.1-7.9,0.1c0.3-0.6,0.9-2.4,0.5-3c-1.3-0.8-2.7-0.8-4-1.5l-0.5-0.7
		c-0.2-2,0.2-4,0.2-5.9c0-0.9-0.2-1.8-0.2-2.6c0-0.7,0.2-1.5,0.1-2.3c-0.1-1.5-4-3.7-5.2-4.2c-0.4-1-0.3-2-0.5-3
		c-0.5-1.9-0.9-4-1.4-5.9c-0.2-0.7-0.7-1.5-1-2.2c-0.3-0.7,0.6-1.7,0.8-2.3c0.3-0.9,0-1.8-0.2-2.7c-0.1-0.6,0.7-1.4,0.6-2.3
		c-0.1-1.7-2.2-3.1-1.8-4.1c0.2-0.5,0.6-1.4,0.9-1.8c0.1-0.1,0.6-0.4,0.7-0.6c0.6-0.9,1.1-1.9,1.7-2.8c0.1-0.1,0.3-0.2,0.3-0.3
		c0.3-0.5,0.4-1.4,0.4-2.1c-1.4-3-4-0.3-5.1-2.4c-1.8-3.3-5.4-8.4-4.3-12.4c-0.1-0.6-1.6-1.2-2.1-1c-1.1,0.4-2.5,1-3.6,1.2
		c-1,0.2-3.6-0.9-4-1.8c-0.1-0.4-0.4-1.6-0.8-1.8c-1.4-0.8-2.5-0.9-2.9-2.6l-2.2-1.5c-0.7-0.5-1-2.5-0.7-3.4
		c0.9-0.8,1.9-1.4,2.9-2.1c0.1-0.1,0.3-0.5,0.6-0.7c0.2-2,0.5-2.3-0.5-4h-2c-0.6-0.3-1-2-0.6-2.5c0.3-0.6,1.9-2.9,1.8-3.4l-0.5-0.8
		c-0.8-0.2-4.1-1.2-4.3-2.3l0.4-3c-0.4-1.4-2-1.5-2.6-2.4c0.4-2.5,1.6-1.4,3.1-2.4c0.6-0.7,0.6-2.5,0.6-3.3c0-0.1-0.3-0.5-0.3-0.7
		c0-0.8,0.1-1.7,0.1-2.4l-0.1-0.2l-0.7-0.1c-0.5,0.3-1,1.2-1.3,1.7c-2.2,0.5-4.3-0.6-6,0c-0.9,0.5-1.6,3.1-1.8,4
		c-0.1,0.3,0,0.7-0.1,0.9c-0.2,0.5-0.5,1-0.8,1.5c-0.8-0.1-2.8-0.4-3.5-0.2c-0.9,0.6-1.8,1.2-2.7,1.9c-0.4,0.3-0.8,0.8-1.3,1.1
		c-1,0.5-2,0.1-2.8-0.6l-0.3-0.6c0-1.4,1.1-2.5,1.4-3.9c0.2-1.1,0.4-2.3,0.5-3.4c0-0.2,0.2-0.5,0.2-0.7l-0.2-0.3
		c-1.7-1-4.6,0.9-6.5,0.8c-2.6-0.1-2.8-4.2-5.4-3.7c-0.8,0.2-1.2,0.4-1.7,1c-0.6,0.7-0.8,1.1-1.1,2c-0.3,0.8-0.5,1.9-0.4,2.8
		c-0.1,0.4-1.4,1.1-1.8,1.2c-0.2,0-1-0.1-1.2,0c-0.8,0.2-1.7,0.7-2.5,0.8c-0.1,0-1.8-0.2-2-0.2c0.8-4.5-4.4-4-4.4-6.7
		c0.1-2.1,0.2-4.3,0-6.4l-2.1-0.4l-0.5-0.4c-0.3-2.4,0.1-4.3,0.7-6.6c0-0.1,0-0.5,0-0.6c0.2-1.6,0.4-3,0.4-4.6c-0.5-1.7-4-2-2.8-4.9
		l0.8-0.8c1-0.1,3.6,0.2,3.6-1.6c-0.1-0.6-0.9-0.9-1.2-1.4c-0.4-0.6-0.4-1.5-0.8-2.1c0-0.1-1.5-1.4-1.7-1.6v-1.9l-0.1-0.5
		c-0.5-0.8-1-1.6-1.4-2.5c-0.7-1.5-0.9-3-2.5-4c-2.7-0.3-3.1,0-5.3,1.3c-0.5,0.3-0.7,1.9-1.3,2.5c-0.8,0.9-2.3,0.9-3.4,1.3
		c-0.4,0.1-0.8,0.4-1.1,0.6c-0.5,0.2-1.3-0.2-1.5-0.6c-0.8-1.2-0.6-2.1-2-3c-1.1-0.7-3.9-1.8-3.9-3.5c-0.6-0.4-0.8-1.2-1.2-1.8
		c-1.8-2.2-2.7-1.3-2.4-4.5l-0.2-0.2c-0.5-0.1-1.8-0.4-2.1-0.9l-0.1-0.8C1263.7,319.2,1264,318.9,1263.9,318.6z"/>
	<path id="CF" class="st0" d="M1236.6,406.5c-0.9,0.5-2.1,1.3-3.1,0.9l-0.2-0.3c-0.1-0.2,0.1-0.6,0.2-0.8c1.2-2.3,4-2,4.4-2.9
		c0.2-0.3-0.7-2.6-0.9-3c0.5-0.8,0.9-2,1.1-2.9l-0.1-0.2c-0.8-0.4-1.8-0.2-2.6-0.6c0.5-0.6,1-1.4,1.5-1.9c0.6-0.5,1.5-0.8,2.1-1.3
		c0.4-0.3,0.8-0.9,1.1-1.2c0.8-0.7,2.3-2.2,3.2-2.7h2.2c0.1-0.1,0.6-0.3,0.6-0.4c1.7-1.6,2.4-2.3,4.4-3.5c0.4-0.2,0.6-0.4,1-0.6
		c1-0.5,3.9,0.6,4.7,1c0.4,0.2,0.5,0.8,1.4,1c1.8,0.4,3.3,0.9,5.1,0.8c0.9,0,1.5-0.6,2.2-0.5c1.3,0.3,2.5,0.9,3.9,1
		c1.1,0.1,2.3-0.1,3.4-0.1c2.5,0.1,5.3,0.4,7.7,0.7c0.9,0.1,1.8,0.7,2.7,0.8c1.8,0.4,3.3-2,4.8-2.1l4-0.5c0.5-0.1,1.2-1.3,1.3-1.4
		l1.3-1.9c0.8-1.6,1.1-3.4,1.9-5c0.1-0.3,0.3-0.4,0.5-0.6l1.1-1.3c0.3-0.3,1.9-0.9,2.5-1c0.2,0,1.9,0.2,2,0.2
		c0.8-0.1,1.7-0.6,2.5-0.8c0.2,0,1,0.1,1.2,0c0.3-0.1,1.6-0.9,1.8-1.2c0-0.9,0.1-2,0.4-2.8c0.3-0.9,0.4-1.3,1.1-2
		c0.6-0.6,0.9-0.8,1.7-1c2.5-0.5,2.8,3.6,5.4,3.7c2,0.1,4.8-1.8,6.5-0.8l0.2,0.3c-0.1,0.2-0.2,0.5-0.2,0.7c-0.2,1.1-0.3,2.3-0.5,3.4
		c-0.3,1.4-1.4,2.4-1.4,3.9l0.3,0.6c0.8,0.7,1.8,1.1,2.8,0.6c0.4-0.2,0.9-0.8,1.3-1.1c0.9-0.6,1.8-1.3,2.7-1.9
		c0.7-0.2,2.7,0.2,3.5,0.2c0.2-0.5,0.6-1,0.8-1.5c0.1-0.3,0.1-0.6,0.1-0.9c0.2-0.9,0.9-3.5,1.8-4c1.7-0.5,3.8,0.5,6,0
		c0.3-0.5,0.8-1.4,1.3-1.7l0.7,0.1l0.1,0.2c0,0.8-0.1,1.7-0.1,2.4c0,0.1,0.3,0.5,0.3,0.7c0,0.8,0,2.6-0.6,3.3c-1.4,1-2.7,0-3.1,2.4
		c0.6,0.9,2.2,1,2.6,2.4l-0.4,3c0.2,1.1,3.5,2.1,4.3,2.3l0.5,0.8c0.2,0.6-1.4,2.9-1.8,3.4c-0.3,0.5,0.1,2.2,0.6,2.5h2
		c1,1.7,0.7,2,0.5,4c-0.3,0.2-0.5,0.6-0.6,0.7c-1,0.6-2,1.2-2.9,2.1c-0.3,0.9,0,2.9,0.7,3.4l2.2,1.5c0.4,1.7,1.5,1.8,2.9,2.6
		c0.3,0.2,0.6,1.4,0.8,1.8c0.4,0.9,3,2,4,1.8c1.1-0.2,2.5-0.9,3.6-1.2c0.5-0.2,2,0.4,2.1,1c-1,4.1,2.5,9.2,4.3,12.4
		c1.1,2.1,3.7-0.6,5.1,2.4c0,0.6-0.1,1.5-0.4,2.1c0,0.1-0.3,0.2-0.3,0.3c-0.5,0.9-1.1,1.9-1.7,2.8c-0.1,0.1-0.6,0.5-0.7,0.6
		c-0.3,0.5-0.7,1.3-0.9,1.8c-0.4,1,1.7,2.4,1.8,4.1c0.1,0.9-0.7,1.7-0.6,2.3c0.1,0.9,0.4,1.8,0.2,2.7c-0.2,0.6-1.1,1.5-0.8,2.3
		c0.3,0.7,0.8,1.5,1,2.2c0.6,1.9,1,3.9,1.4,5.9c0.2,1,0.2,2,0.5,3c1.1,0.6,5,2.7,5.2,4.2c0.1,0.7-0.1,1.5-0.1,2.3
		c0,0.9,0.2,1.8,0.2,2.6c0,2-0.4,4-0.2,5.9l0.5,0.7c1.3,0.7,2.7,0.7,4,1.5c0.4,0.6-0.2,2.4-0.5,3c-0.9,2.6-1.9,1.8-3.7,3.2
		c-1.1,0.8-1.8,2.9-2.9,3.4c-1.5,0.8-3.1,1-4.2,2.4v0.4c-0.1,0.2-0.8,1.4-0.8,1.5c-0.4,1.5,0.1,3,0,4.4s-0.3,2.9-0.4,4.3l0,0
		c-0.8-0.2-2.1-1-2.7-1.5c-0.2,0-1.1,0.3-1.2,0.3c-0.4,0-0.7-0.2-1-0.2c-1.3-0.1-2,0.2-3.3-0.4l-0.6-1.1l-1-0.1
		c-0.7-1.2-2.8-0.9-3.8-1.5c-0.3-0.2-0.5-0.5-0.8-0.7c-1.2-0.8-2.9-0.5-3-2.5c-0.8-0.6-2.2-1-3.2-0.9l-0.7-0.6c-0.4,0-0.7,0-1.1-0.1
		c-0.4-0.1-4.1-2.7-4.3-3.1l0.4-1.3l-0.8,0.8c-0.9-1-2.7-0.4-3.3-1.1c-0.5-0.7-0.9-1.5-1.4-2.1c-0.6-0.7-1.4-1.1-1.8-1.9l0.4-0.6
		l-1.3-2.1l-1.1,0.1l-2-2.7l0.1-0.7l-0.2-0.4c-0.9-0.1-1.1-0.5-1.8-0.8l-0.4,0.4l-1-1.7c-3-0.8-3.2-1.7-4.9-4
		c-0.7-1-2.2-1.9-3.2-2.7v-0.5l2.1-2.8v-0.5l-0.5-0.4v1.3l-1,0.8l-0.9-0.5l-0.6,0.3l-0.3-0.8c-0.7-0.4-1.7-0.5-2.5-0.5
		c-0.4,0.3-1.2,0.7-1.7,0.6c-0.8-0.2-1.9-2.9-2.3-4.3c-0.1-0.2-0.1-0.3-0.1-0.4c0,0,1.7,0.1,2.2,0.1s1.1,0.3,1.9,0.5
		c0.8,0.3,1,0.1,1.4-0.1c0.5-0.2,1.4-0.1,2-0.1s2.3-0.6,2.8-0.8c0.5-0.2,1.1-1,0.8-1.7c-0.3-0.7-0.9-0.1-1.3,0.2
		c-0.4,0.3-0.9,0.8-0.9,0.8s-0.4-0.4-0.5-1s0.3-1.1,0.3-1.1s0.8-0.5,1.4-1c0.5-0.5,0.3-1.9-0.1-2.2c-0.5-0.3-1.4-0.5-2.9-0.6
		c-1.5-0.2-1.3-0.7-1.2-1.2c0.1-0.4-0.3-0.5-0.7-0.7c-0.5-0.2-1.2-0.3-2.2-0.1c-1,0.2-1.9-0.3-2.3-1.2c-0.4-1,0.6-2.3,1.4-3
		c0.8-0.7,0.6-1.6,0.3-2.2c-0.3-0.6-1.7-1-2.1-1c-0.5,0-2.7-1.2-2.7-1.2s-0.3-1.2-0.3-2.1s-0.4-0.5-1.5,1c-1.1,1.4-4.5,0.6-5.5,0.1
		c-1.1-0.5-1.6,0.1-2.2,1.5c-0.6,1.5,0.3,2.5,0.6,2.8c0.3,0.3,1.7,1.2,2.3,1.6s2.3,1.8,2.7,2.3c0.5,0.5,2.8,3.4,2.8,3.4l1,2.1
		c0,0,1.1,1,1.7,1.6c0.6,0.6,0.5,3.1,0.5,3.1c0.1,0.2,0.2,0.5,0.3,0.8c0.3,1.1,0.2,2.3-0.6,3.1l-2.5-0.1l-0.8-0.8l-0.9-0.2
		c-0.8-0.6-1.5-1.4-2.4-1.9c-2.7-1.4-2.4-0.3-4.7-0.7c-0.3-0.1-0.5-0.2-0.8-0.3c-2.5-0.4-5.5,1.2-7.9,2.2c-1.6-2-1.9-2.4-1.9-5.1
		c0-0.2,0.1-0.4,0.1-0.6v-2.5c0-0.9-1.2-1.9-1.7-2.4c-0.1-0.1-0.3-0.5-0.4-0.6c-3.2-2.8-5.8-0.7-9.2,0.9c-0.4,0.2-1.4-0.1-1.7-0.3
		c-0.5-0.5-0.8-1.1-0.8-1.8l-0.2-0.2c-1.4-0.6-2.8,1.6-5.7,0.4c-1,0.2-1.2,1.8-2.2,2.1l-1.3-0.3c-0.5-0.4-1.1-1.5-1.4-2
		c-2.1-0.4-4.5-0.8-6.4-1.7c-0.5-0.3-1.1-0.6-1.6-0.9c-0.2-0.1-0.5-0.1-0.7-0.2c-0.9-0.4-2.3-1.6-2.9-2.3c-0.1-0.1-0.3-0.6-0.4-0.8
		c-0.6-1-1.2-2.2-2.2-2.8c-0.6-0.4-1.3-0.6-1.9-1c-1.2-0.8-2.3-1.9-3.6-2.6c-0.5-0.3-1-0.3-1.5-0.7l-0.4-1.2c0.2-2.1,2-2,0.2-4.4
		c0-0.2,0.2-1.3,0-1.4c-1-0.3-2.7,0.1-3.6,0.4l-1.1-0.6c-0.6-0.8-0.8-4-0.6-5c0.1-0.3,1.1-0.7,1.4-0.8c0.5-0.6,0.6-3.3,0.4-4
		c-0.3-0.9-1.4-2.3-0.9-3.3c0.7-0.4,2.7-2.4,2.8-3.4C1238.4,407.2,1237.5,406.6,1236.6,406.5z"/>
	<path id="MT" class="st0" d="M1264.8,446.6c1-0.2,1.2-1.9,2.2-2.1c2.9,1.2,4.3-1,5.7-0.4l0.2,0.2c0,0.8,0.3,1.3,0.8,1.8
		c0.3,0.2,1.3,0.4,1.7,0.3c3.4-1.6,5.9-3.7,9.2-0.9c0.1,0.1,0.3,0.5,0.4,0.6c0.5,0.6,1.7,1.6,1.7,2.4v2.5c0,0.2-0.1,0.4-0.1,0.6
		c0,2.7,0.2,3.1,1.9,5.1c-1.2,0.5-2.3,0.8-3,0.6c-0.9-0.2-1.5-0.9-2.4-1.1c-0.7-0.2-2.7,0.4-3.7,0.3c-1.1-0.1-1.7-0.9-3-0.9
		c-2.2,0-4.5,0.6-6.7,0.4c-0.7-0.1-1.3-0.5-2-0.7c-0.5-0.1-1-0.1-1.6-0.1L1264.8,446.6z M1050.9,404.6c-0.2,0.5-1.2,2.9-0.9,3.3
		c0.4,0.5,1.3,1.1,1.9,1.2c3.3,0.7,6.5,0.9,9.6,2.4l0.2,0.3c2,1.3,10.8,7.5,12.4,7.5c0.5,0,1-0.1,1.5-0.2c1.9,0.9,3.8,1.8,5.8,2.2
		c1.2,0.2,6,0.2,6.4,1.4c0.1,0.3,0.2,0.6,0.2,0.9l1.6,0.5v0.4l-0.4,0.4l0.6,1.1l1.2,0.6l0.5-0.1l0.4,0.6c-0.7,0.3-1.4,0.7-2,1.1
		c-1,0.7,0.6,3.5,1.3,4.1l1.2-0.9l0.5,0.8v0.5c0.8,0.9,1.9,1.9,3.1,1.9l1.2,1.1l1.1-1.5l0.6,0.1l0.4,0.3c1.2-0.1,3.2,0.1,3.7,1.4
		l-0.3,0.1l-0.2,0.6c0.6,0.4,1.6,0.5,2.4,0.3c0.6-1.2,0.1-2.9-0.1-4.2l1.3-0.8l0.4,0.1c0.3,0.8,1,1.8,1.8,2.2l0.3-0.5l-0.6-1.8
		c0.2-0.6,1-0.8,1.6-0.7c0.3,0.4,0.4,1,0.3,1.6l0.6,0.3l0.7-0.2c0-0.5-0.2-2.1,0.6-2.1l0.2,0.6c1.2,0.6,2.8-0.4,3.7,0.8l-0.3,0.4
		l-1.9-0.1l0.8,0.8l1.3,0.2l1.4,1.8l-0.1,1.2c0.9,0.2,4.5,1,4.9-0.1l-0.3-0.3c-1,0-2.1-0.1-3.1-0.5l-0.7-1.2l0.1-0.9l-0.6-1.1
		l0.8-0.2l-0.2-0.5l0.4-0.3c1.2,1.1,0.9,1,2.5,1.6l0.2-0.5l-0.3-1.2l0.3-0.4l0.9,0.2l0.4-0.6l0.7-0.3l2.5,0.9l0.4,0.6l-0.2,1.1
		l0.4,0.6c1.4-0.4,3.2-0.5,4.5,0.2c0.8-0.5,2.2-0.1,3,0.2l0.1,0.4l-1,1.1c0.6,0,1.8,0,2.3,0.3c0.2-0.2,1.3-1.4,1.4-1.5
		c0.5-0.3,1.1-0.3,1.6-0.5c1-0.4,2-1.1,3-1.6l-0.2-1h1.4c0.5,0.6,1.4,1.1,2.2,1.2l0.3-0.4h0.8l0.4-0.3c3.1-0.1,1,3.1,2.1,4.5
		l0.4,0.1l0.1-1.7c1.1,0.1,2.5-0.3,3.6-0.6l1.6,0.9l0.6-0.8l1.3,0.8l0.3-0.5h0.7l0.3,0.4c1.4-0.9,3.7,0.2,4.1,1.8
		c0.3,1.3,0.7,2.7,2.1,3.4l-0.7,1.2l0.8,0.8c-0.3,0.5-0.4,2.4-0.1,2.9c0.2,0.3,0.6,0.7,0.8,1l-0.1,0.7l2.5,1.3
		c0.1,0.8,0.5,1.8,1.1,2.3l-0.3,0.9l0.5,1l-1.6,1.5v0.4l2.1-0.9l0.9-2.9l0.7,0.6l2-0.7l1.5,0.9l0.2-0.6l-0.8-1.4l0.6-1.5l0.7-0.1
		c0,0.8,0.1,1.9,1,2.1l-0.7,0.8l2.3-0.7l0.2-0.9l0.5,0.2l0.4,0.6l1.9-0.8l0.8,0.2l0.3-0.3l1.2-0.2l0.3-0.5l-0.2-0.4
		c-1.3,0.5-1.7-0.1-2.1-1.3l0.5-0.6l0.1-1.1l-1.7-0.3l-0.1-0.4l2.1-0.2l0.4-0.6l-0.4-0.8c0.4-0.2,0.6-0.8,0.7-1.2h1l0.2,0.5
		c-0.1,0.4-0.3,0.9-0.2,1.4h0.4l0.9-1.2l1.4-0.3l-0.7-1.4l0.7-0.9l0.6-0.2l0.7,0.8v1.3l0.6-0.6l0.7,0.7l-0.1,0.6
		c1.1,0.9,1,2.8,2.2,3.7c-0.6,0.1-1.4,0.4-1.8,0.7l0.1,0.3c1.8-0.1,2.2,0.4,3.5,1.4l0.3,1.5l-0.7,0.8c0.1,0.7-0.4,2.8-1.1,3.2
		c-0.3,0.2-0.7,0.3-1.1,0.5l-0.6,0.8l1.2,1.5c0.8-0.3,1.3-1.2,1.7-1.9l1.3-2.3c1.2-2.1,0-5.6-0.5-7.8l-0.7-0.5
		c0.3-1.5-0.3-3-0.1-4.5c0.2-1.4,0.9-2.2,1.4-3.4c0.7-1.6,0.6-3.9,0.4-5.7c-0.3-2.4-1-4.9-2-7.1c-0.9-2.1-1.4-1.3-1.4-4.1l1.3-0.7
		c1.3,0.2,2.6,0.4,3.8,0.1c1.6,2,3.3,3,4.4,5.5c0.3,0.7,0.9,2.8,1.6,3.1c0.3,0.2,0.7,0.3,1,0.4l0.5,1.6c-1.8,2.8-0.1,8.8,0.7,11.8
		c0.6,2.2,2.7,2.7,2.8,5.8c0.9,1,3.2,3.5,4.4,4c1.1,0.5,2.7,0.4,4.2,1.5c0.5,0.3,0.8,0.9,1.3,1.2c1.3,0.8,5.1,0.9,5.9,1.9l1.1-0.1
		c0.8,1.2,4.8,0.7,5.8,2.2c0.9-0.4,6.5,0.2,7.5,0.5c0.3,0.1,0.5,0.3,0.9,0.3c0.9,0.2,2.2-0.2,3.1-0.2c1.3-0.1,2.5,0.6,3.7,0.3
		c4.3-1,8.4-2.6,12.8-2.8c1.2-0.1,2.3,0.3,3.5,0.2c0.9-0.1,1.7-0.5,2.5-0.7l1,0.4c0.8-0.3,1.9-0.4,2.9-0.4l-1.2-8.6l-1.3-0.3
		c-0.5-0.4-1.1-1.5-1.4-2c-2.1-0.4-4.5-0.8-6.4-1.7c-0.5-0.3-1.1-0.6-1.6-0.9c-0.2-0.1-0.5-0.1-0.7-0.2c-0.9-0.4-2.3-1.6-2.9-2.3
		c-0.1-0.1-0.3-0.6-0.4-0.8c-0.6-1-1.2-2.2-2.2-2.8c-0.6-0.4-1.3-0.6-1.9-1c-1.2-0.8-2.3-1.9-3.6-2.6c-0.5-0.3-1-0.3-1.5-0.7
		l-0.4-1.2c0.2-2.1,2-2,0.2-4.4c0-0.2,0.2-1.3,0-1.4c-1-0.3-2.7,0.1-3.6,0.4l-1.1-0.6c-0.6-0.8-0.8-4-0.6-5c0.1-0.3,1.1-0.7,1.4-0.8
		c0.5-0.6,0.6-3.3,0.4-4c-0.3-0.9-1.4-2.3-0.9-3.3c0.7-0.4,2.7-2.4,2.8-3.4c-0.5-0.6-1.4-1.2-2.3-1.3c-0.9,0.5-2.1,1.3-3.1,0.9
		l-0.2-0.3c-0.1-0.2,0.1-0.6,0.2-0.8c1.2-2.3,4-2,4.4-2.9c0.2-0.3-0.7-2.6-0.9-3c0.5-0.8,0.9-2,1.1-2.9l-0.1-0.2
		c-0.8-0.4-1.8-0.2-2.6-0.6c0.5-0.6,1-1.4,1.5-1.9c0.6-0.5,1.5-0.8,2.1-1.3c0.4-0.3,0.8-0.9,1.1-1.2c0.8-0.7,2.3-2.2,3.2-2.7h2.2
		c0.1-0.1,0.6-0.3,0.6-0.4c1.7-1.6,2.4-2.3,4.4-3.5c0.4-0.2,0.6-0.4,1-0.6c1-0.5,3.9,0.6,4.7,1c0.4,0.2,0.5,0.8,1.4,1
		c1.8,0.4,3.3,0.9,5.1,0.8c0.9,0,1.5-0.6,2.2-0.5c1.3,0.3,2.5,0.9,3.9,1c1.1,0.1,2.3-0.1,3.4-0.1c2.5,0.1,5.3,0.4,7.7,0.7
		c0.9,0.1,1.8,0.7,2.7,0.8c1.8,0.4,3.3-2,4.8-2.1l4-0.5c0.5-0.1,1.2-1.3,1.3-1.4l1.3-1.9c0.8-1.6,1.1-3.4,1.9-5
		c0.1-0.3,0.3-0.4,0.5-0.6l1.1-1.3c0.3-0.3,1.9-0.9,2.5-1c0.8-4.5-4.4-4-4.4-6.7c0.1-2.1,0.2-4.3,0-6.4l-2.1-0.4l-0.5-0.4
		c-0.3-2.4,0.1-4.3,0.7-6.6c0-0.1,0-0.5,0-0.6c0.2-1.6,0.4-3,0.4-4.6c-0.5-1.7-4-2-2.8-4.9l0.8-0.8c1-0.1,3.6,0.2,3.6-1.6
		c-0.1-0.6-0.9-0.9-1.2-1.4c-0.4-0.6-0.4-1.5-0.8-2.1c0-0.1-1.5-1.4-1.7-1.6v-1.9l-0.1-0.5c-0.5-0.8-1-1.6-1.4-2.5
		c-0.7-1.5-0.9-3-2.5-4c-2.7-0.3-3.1,0-5.3,1.3c-0.5,0.3-0.7,1.9-1.3,2.5c-0.8,0.9-2.3,0.9-3.4,1.3c-0.4,0.1-0.8,0.4-1.1,0.6
		c-0.5,0.2-1.3-0.2-1.5-0.6c-0.8-1.2-0.6-2.1-2-3c-1.1-0.7-3.9-1.8-3.9-3.5c-0.6-0.4-0.8-1.2-1.2-1.8c-1.8-2.2-2.7-1.3-2.4-4.5
		l-0.2-0.2c-0.5-0.1-1.8-0.4-2.1-0.9l-0.1-0.8c0.2-0.1,0.4-0.5,0.4-0.7c0.6-0.2,1.3,0.1,1.8-0.1c1.8-0.4,2.7-2.3,3.8-3.7
		c0.1-0.1,0.1-0.4,0-0.6c-2.3-1.1-3-1.9-3.1-4.5c-0.1-2.8,0-2.5,0.9-5c0,0,0.3-0.3,0.4-0.4c1.3-0.6,1.6,0.1,2.8,0.2l1.7,0.1
		c0.3,0,0.5,0.1,0.8,0c0.7-0.1,1.5-0.8,2.2-1c1.8-0.5,3,0.1,4.3,1.4c1,0.4,4.4-1,5.5-1.6c0.7-0.8,0.8-2,0.9-3l-1.5-3
		c-0.1-0.3,0-1.7,0-1.8c0.2-2.7,0.1-2.6,1.6-4.9c0.6-0.9,1.3-1.7,2.3-2c-0.6,0-2.5-0.9-2.8-1.3c-0.2-0.4-0.4-0.8-0.5-1.3l-1.1-0.5
		l-0.6-1.6l0.1-1h0.5c0.5-0.6,1.8-1.9,2.6-1.6c0.9-0.7,0.9-2.3,0-3l0.4-1.9l0.4-0.3l1.1,0.5l0.9-0.8v-0.3c-0.5-0.4-1.4-0.4-2-0.2
		l-1.8-1.7l-0.3,0.3l0.4,0.7l-0.2,0.6c-0.5-0.3-1-0.8-1.6-1.1c-0.5-0.3-1.8,0.4-1.8,1l1.6,0.7l1.1-0.5l-0.2,1.1l1.2,1.6l-1.2,2.6
		c-1.5,0.8-3.1,2.5-3.4,4.2c-0.5,0.2-3.6,1.9-3.8,1.8l-1.3-0.8l-0.5,0.8c-0.6-0.2-1.5,0-2,0.4l-4-1.4l-1.1-1.5l-0.5-0.1
		c-0.2,0.5-0.4,1.1-0.3,1.6l-0.3,0.2l-0.4-0.1l-0.3-0.6l-1-0.1l-0.6-0.5l-1.3,0.3v-0.4l-0.4-0.3c-1,0.5-2,1.1-3.1,1.5
		c-1,0.4-3.6,0.3-3.9,1.7c-1.1,0.5-1.5-0.3-2.4-0.3c-0.5,0-0.9,0.3-1.4,0.2c-0.2,0-0.4-0.1-0.6-0.2c-0.6,0-1.4,0.3-2.1,0.3
		c-2.3,0.3-4.4-0.2-6.5,0.8c-0.5,0.2-1.7,1.4-2.2,1.8l-0.5-0.1l-0.1-0.9c-1.5-0.1-2.7,1.4-4,1.9c-1.5,0.5-3.2,0.5-4.8,0.6l-2.2-1
		c-0.6,0.2-2.1,0.2-2.6-0.3s-1.1-3.3-0.9-4l0.7-0.3l0.6-1.4l-0.1-0.4c-0.8,0-1.6-2-2.3-2c0.5,1,0.7,2.8-0.8,3.1
		c-1.6-0.4-2.9-0.8-3.9-2.3c-1.8,0-5.5,1.4-7,2.5c-0.4-0.2-1-0.4-1.4-0.3l-0.4,0.6l0.1,1.2c-0.4,0.7-2.3,4.1-2.9,4.3
		c-0.3,1.2-2.9,2.6-2.9,3.6l0.3,0.3l0.4-0.2l0.4-0.9l0.3-0.1l0.1,0.8c-0.5,0.8-2.6,2.5-3.6,2.4c-0.8-0.1-3-1-3.5-1.5
		c-0.8,0.1-1.6-0.1-2.4-0.2l-0.6,0.5l-0.9-0.2c-0.4-0.8-2.8-2.3-2.9-2.9c0-0.4,0-0.8,0-1.3l-0.6,0.2c-1.1-0.9-2.3-1.6-3.2-2.6
		c-0.5-0.5-0.8-1.2-1.2-1.7s-4.3-5.2-4.5-5.3c-0.3-0.2-0.6-0.4-0.9-0.5l-0.8,0.2c-0.6-0.7-1.5-1.2-2.4-1.6l0.4-0.8l1.6-0.6l-0.2-0.5
		l-0.8-0.1l-0.3,0.4h-0.4l-1-0.6c-1.4,0.1-3,0.6-4.3,0.4c-0.5-0.1-0.9-0.4-1.3-0.5c-1.4-0.2-2.8,0.8-4.1,1c-0.3,0.1-0.7,0-1,0.1
		c-0.9,0.2-1.7,0.7-2.5,1l-0.4,0.7l0.3,0.8l-0.9-0.4c-2.4,0.5-4.5,1.9-6.8,2.8c-1,0.4-4.8,1.4-5.7,1.2c-1-0.2-2-0.9-2.9-1.3l-1,0.3
		c-0.4,1.1-0.5,2.2-1.1,3.2c-0.5,1-1.2,1.8-1.6,2.8c-0.4,0.8-0.3,1.8-1.2,2.4l-0.3-0.3c-1.8,0.6-7.9,2.5-8.8-0.2l0.5-1
		c1.3-0.7,4.5-2.5,4.9-3.9c0.7-2.1-1.1-7.7-3-8.9c-0.8-0.6-1.9-1.5-2.9-1.9c-1.6-0.6-5.3-1.9-6.9-1.8c-0.9,0.1-1.8,0.5-2.8,0.5
		c-1.2,0-2.5-0.2-3.7-0.3l-1.8,1.1l-1.4-0.2l-0.7,0.8c-0.3,0-0.5-0.1-0.8-0.3l0,0c-0.9,0.3-3.2,1.4-3,2.6c0.1,0.4,1.5,1.5,1.9,1.8
		l0.2,0.4c0.3,0.9,0.6,1.9,1.1,2.8c0.1,0.1,0.1,0.2,0.2,0.3c0.3,1.3,0.2,2.9,0,4.2c0,0.1-0.2,0.4-0.2,0.5c0,0.6,0.2,1.4-0.4,1.9
		c-0.7,0.2-2.1-1.5-2.9-1.5c-2.1,0.5-1.9,1.1-2.6,3c0,0,0,0.4,0,0.5l0.2,0.3c1,0.4,2.8,1,2.7,2.3l-0.2,0.3l-1.6,0.3
		c-0.9,1.1-1,2.3-2,3.4c-0.6,0.6-1.9,0.3-2.8,1.2c-0.8,0.9-1.2,2.2-1.8,3.2v0.3c0.1,0,0.4,0.1,0.5,0.1c1.3,0.1,2.6,0,3.8,0.5
		c0.4,0.2,2.2,1.8,2.5,2.1c0.6,0.7,1,1.5,1.5,2.3c1,1.3,2.1,2.6,3.1,3.9v0.9c-3.6,3-0.1,3.9-0.6,5.6c-0.1,0.5-0.3,1.1-0.5,1.5
		c-0.7,1.5-2.1,3.1-1.6,4.9c0.4,0.4,0.5,0.8,0.8,1.2c0.7,0.8,1.2,0.7,1.4,2l0.2,1.3c1.2,2.3,5.4,2.3,5.9,4.1c0.2,1-2.7,5.6-3.3,6.7
		v1.8c0.1,0.3,0.6,1,0.9,1.2c2.6,1.3,5.3,2.3,7.8,3.6c1.3,0.6,2.3,1.6,3.7,2.1c-2.3,3.7-2.3,5.9-2.8,10.1c0,0.1,0.1,0.5,0,0.6
		c-0.6,2.3-0.4,2.8-2.1,4.5l-1.5,1.5c-0.6,0.9-0.9,2.2-1.5,3.1c-0.2,0.3-1.5,1.3-2,1.2l-0.3,0.3l0.4,0.9c-0.3,1.2-0.4,2.9,0,4.1
		c0.6,0.5,1.4,0.2,2.1,0.2c0.3,0.3,0.7,0.5,1,0.9c1.3,1.2,1,3,3.4,2.9c-0.4,0.6-1.2,0.7-1.9,0.3c-1-0.6-1.7-3-3.2-3.2
		c-0.6,0.4-1.6,0.4-2.3,0.2c-0.4,3.8-0.7,3.3,0.4,7.1c-0.5,1.8-1.3,1.6-2.8,1.8c-0.6,0.1-1.4,1.8-1.8,2.3c0,0-4.5,2.4-5,2.7
		l-1.6-0.9l-3.4,0.8c-0.3,0.1-1.1-1-1.3-1.3l-0.4,0.1l-0.8,0.9l-0.7,0.2c-1.6,2.8-3.4,1.2-5.6,2.4c-1,0.5-1.8,1.3-2.9,1.6
		c-1.3-0.5-2.3-0.5-3.4,0.2c-2.2,0-3.8-0.3-5.9-0.7c-0.8-0.2-2.1-0.7-2.9-0.7c-1,0-2.1,0.1-3.1,0.1c-0.8,0.1-1.4,0.5-2.2,0.6
		c-1.6,0.2-3.4,0-5-0.3l-0.6-0.8l-0.9-0.1l-1.8,1.5c-0.9,0-7.2,0.7-7.2,0.7c-0.4-0.1-0.9-0.3-1.3-0.4c-1.1-0.3-2.7,0.1-3.9,0
		c-0.5-0.1-1.1-0.3-1.6-0.4c-1.2-0.2-3.7,0.6-4.9,1c-1.4-0.7-3.1-1-4.6-0.9c-1,2-2.9,1.2-3.7,3l-1.2,3v0.5c1.3,1,2.6,3,3,4.6
		l0.5,0.3l3.5-2.4C1049.5,403.2,1050.3,403.8,1050.9,404.6z"/>
	<path id="IJ" class="st0" d="M885,540.6c-1.1-1.2-0.9-1.8-1.5-2.8c-0.4-0.7-1.3-1.3-1.2-2.3l-0.5-0.4l-0.2-0.7l1-0.6l0.4-0.8
		l-0.4-0.8l-1-0.5c0.3-1.8-0.8-1.7-1.8-2.8c-0.6-0.6-1.4-1.7-1.8-2.5l0.2-0.4l0.6,0.1c0.2,0.9,1.4,2.2,2.2,2.7l1.7,0.3
		c0.7,0.8,2.1,2,3.2,2.3l0.4,0.6l0.7,0.2l0.4,0.8l1.1,0.3l0.3,0.8l1.1,0.5l0.1,0.8l1,0.2l0.2,0.4l-0.5,0.7c0.1,1,1.6,2.5,2.5,2.9
		l0.9-0.1l0.5,0.4l2.9-0.3l0.6,0.4l1.4-0.3l0.3-0.5l0.5-0.1l4.2,2.2c0.9-1.6,3.5-1.1,4.5-2.6l0.1-0.5l-0.2-0.5l-0.6-0.2l-0.3-1.1
		l0.4-0.7c1.5-0.3,2.8,0,3.8,1.3l1.3-0.5l0.9-1.2v-0.7l0.5-0.6l-0.4-1.1l0.4-0.2l-0.1-2.2l-1.1-1l-1,0.2l-0.4,1l-0.5-0.3
		c0-1-0.5-2.5-1-3.3c0.2-0.4,0.1-0.9,0-1.3l-0.2-1.1c-0.4-0.7-1.4-1.4-1.8-2.2c-0.6-1.5-0.8-3.1-1.6-4.4c-0.5-0.3-2.7-1.8-3.1-1.9
		c-0.8-1.1-2-3.6-2.1-4.9c-0.5-0.5-1.2-1.1-1.6-1.7c-0.6-0.9-1-1.9-1.5-2.9c-0.8-1.2-1.7-2.3-2.4-3.6c0-0.1-0.3-1.3-0.4-1.5
		c-0.6-0.1-1.4-0.7-1.7-1.2c0.4-1.9,0.6-4.1,1.8-5.7c0.3-0.4,0.9-0.7,1.2-1.1s0.5-1,0.8-1.5c0.6-0.8,1.3-1.7,2-2.4
		c0.5-0.5,1.1-1.1,1.7-1.5c0.1-0.1,0.7-0.4,0.8-0.4c0.4-0.4,0.6-1.1,1.1-1.5c0.3-0.3,1-0.5,1.3-0.9c0.6-0.6,0.9-1.5,1.5-2
		c0.8-0.7,2.1-1.4,3-2c1.1-0.7,1.8-0.8,2.9-1.9h1.1l0.7-1.2c0.9-0.2,2.6-1,3.1-1.8l-0.8-0.8c-0.8,0.6-2.5-0.3-3.1-0.7l-0.9,0.2
		l-0.8-0.4c-0.7,0.7-1.4,1.3-2.3,1.7l-0.6-0.5v-0.9c2.3-1.8,1.9-1.4,5.3-1.3c0,0,1.2,0.8,1.3,0.8c0.8,0.2,1.9,0.2,2.7,0.2
		c0.3,0.5,1.2,1.1,1.7,1.2h0.4l1.2,0.6c1.2-0.1,2.5-0.3,3.8-0.4c0.5,0,1,0.3,1.4,0.3c1.1,0,2.3-0.6,3.4-0.5c0.1,0,1,0.3,1.1,0.4
		c2.7-1.5,3.2,0.3,5.1,1l1.8,0.2l0.9,0.1l0.1,0.8c1.3,0.6,2.6,1.1,4,1.5l0.3-0.2l0.2-1l0.4,0.2l0.5,1.3c0.6,0,1.6,0.9,1.9,1.3
		l0.8-0.2l0.8,0.9l0.7,0.1c0.4-0.5,0.7-1.5,0.5-2.1h0.3c2.4,2.1,2.9,3.5,6.2,2.9l1.3,0.9l0.3-0.4l0.5-0.1c0.3,1.3,2.2,2,2.3,3.3
		c0.1,2-2.2,2.4-2.9,3.9l-0.3,1.5l-0.1,0.7l-0.9,0.4l0.8,0.6l0.5-0.1c0.2,0.4,1.5,0.8,1.9,0.9l0.4,0.5l-0.2,0.4l0.1,0.5l-0.6,0.9
		l0.7,1l2-0.2c0.2,0.3,0.9,0.7,1.3,0.7l0.3-0.6h0.4l0.8,1.9c0.7,0.5,3.4,2.1,3.6,2.9l-0.3,0.7l0.2,0.5l0.7,0.1l0.5-1.2l1.6-0.6
		c1.2-0.1,1.8,2.1,2.2,3l1.6,0.9l0.5,1c0.4,0.1,1,1.1,1.2,1.5c-0.4,0.4-2.3,2.1-2.4,2.6l1.4-0.5l0.5,0.4c-0.1,0.6-2.2,1.7-2.7,2
		l0.6,0.1l0.4,0.7l-2,1.1l-0.3,0.9c0.4,1.2,0.9,3.6-0.1,4.6l0.4,0.6c1.5,0.2,2.2,1.5,2.9,2.6l0.7,0.2l0.6-0.4l2.1,0.3l-1,3.7
		c0.2,0.6,1.3,3,1.2,3.6l0.8,0.6c0.4-0.3,1.3-0.6,1.8-0.5l0.5,0.9c-0.4,0.8-0.8,2.7-0.3,3.5c-0.5,0.4-1,1.3-0.9,1.9l-0.7,0.2
		l-0.9-0.2c-0.2,0.1-1.2,0.6-1.2,0.6c-1.3,1.5-3.1,3.9-4.9,4.9l-1.2,0.2c-0.4,0.1-1,0.1-1.4-0.1l-2.8,2.4c-2.3-0.5-4.1,0.6-6,1.7
		c-0.1,0.1-2,0.1-2.2,0.2c-2.1,0.8-3.6,3-5.7,3.7c-0.9,0.3-1.9,0.2-2.7,0.4c-1.1,0.3-2.4,1-3.5,1.5c-0.2,0.1-1.1,0.7-1.2,0.8
		c-0.8,0.2-1.8,0.2-2.5,0.4c-0.6,0.2-1.4,0.7-2,1c-0.1,0-0.4,0.2-0.5,0.2c-0.8,0.1-1.8,0.2-2.6,0.4c-0.6,0.2-1.2,0.6-1.9,0.8
		c-2.6,0.7-8.1,1.7-10.8,1.4L925,558l0.6-0.3l0.9,0.4l0.3-0.4l-0.4-0.4h-1.3l-0.9,0.8c-0.9,0-3.2-0.7-3.8-1.3l-0.1-0.3l0.5-0.5
		l-0.6-0.7l-0.5,0.7c-0.5,0.5-3.2,0.5-3.9,0.2c-0.7-0.2-1.4-0.8-2-0.9c-1.1-0.3-2.5-0.3-3.7-0.4l-0.2-0.7c-1-0.2-2-0.2-3-0.2
		c-1-0.1-1.6,1.2-3.1-0.2c-0.4,0.3-1.4,0.6-1.9,0.4l-0.8-0.6c-1.4-0.2-3.1-0.3-4.5-0.1c-0.2-0.3-0.8-0.9-1.2-0.9l-0.7-0.9l0.1-0.4
		c-0.6-0.7-1.8-2.7-1.9-3.6l-2.3-2.2l0.4-0.5l-0.4-0.7l-0.5-0.3l-0.3,0.5l-2.5-0.4l-2-2.2l0.7-0.8l-0.6-0.7L885,540.6z"/>
	<path id="MY" class="st0" d="M995.9,324l-0.3-2.9l3.1-4.3l-0.1-3.3l1.5-2l-1-3.9l0,0c1.3-0.1,2-2.2,2.4-2.3h0.9
		c1.5,0.7,2.1,3.6,2.9,4l0.6,0.1c1.4-0.8,3.1-1.7,4.7-2.2c0.2-1.1-1.3-2.5-1-3.7c2.8-0.5,3.3,0.1,6,1.4h0.7c4.5-1.8,3.6-2.1,7.1,0.5
		c1.3,0.1,3.4,0.3,4.6-0.1c0.1-0.5,1.2-4.2,1.9-4.4l2.1-0.6c0.6-0.7,0.2-1.7,0.7-2.3c0.6-0.7,2.4-1.9,2.6-2.9c0-0.2,0-0.1,0-0.3
		l-0.1-0.3c-2.4-3.8-2.7-3.2-1.2-7.3c0.3-0.7-0.3-2.2-0.9-2.6l1.5-0.9l1.8,3.2c0.1,0.1,0,0.5,0.2,0.7h0.2l2.7-1.9
		c0-0.8,0.2-1.4,0.3-2.2c0.3-1.5,0.2-2.4,2.3-2.2c0.6,0,1.3,0.3,1.7,0.8c1.8,2.1,3.5,4.3,5.1,6.6c0.1,0.1,0.5,0.5,0.6,0.6
		c3.5-3.3,0.9-4.7,1.6-6.9c0.5-0.4,1.5-0.6,2.1-0.7c-0.2-0.4-1.8-3.4-1.6-3.9l3.4,0.3c0-0.1,0-0.5,0-0.6c-0.3-0.9-0.6-2.3-1.4-2.9
		c-0.5-0.4-2.4-1.3-2.4-2c0-0.9,0.8-2.2,0.7-2.8l0,0c0.1-0.1,0.2-0.1,0.3-0.2c0.3-0.2,2.7-0.7,3-0.7c0.6,0,1.3,0.2,1.9,0.2
		c0.8-0.1,1.5-0.5,2.3-0.6c1.6-0.3,4.6-0.4,5.5,1.3l0.3-0.1l-0.3-0.8l0.2-0.2l1.1,0.1c0.5,0.6,1.3,1.2,2,1.3c0.3,0.5,0.5,1,0.9,1.4
		c1.1,1.1,3.6,0.4,5,0.8c0.5,0.1,0.9,0.5,1.4,0.7c1.7,0.4,3.6-0.5,5.3,0.5c1.9-0.3,3.8,0.4,5.6,0c0.9,0.5,1.8,1.1,2.8,1.4
		c1.3-0.4,2.5-0.1,3.8-0.3c0.4-0.1,0.8-0.3,1.3-0.3c0.8,0,1.8,0.6,2.7,0.6c1.3,0.1,2.5-0.4,3.8-0.1l0.6,0.9l0.9-0.8l5.2-0.2
		c0.6,0,2,0.4,2.4,0.2c0.8-0.4,1.8-1.7,2.8-1.5c1.6,0.3,3.2,1.1,4.6,1.9c-0.9,0.3-3.2,1.4-3,2.6c0.1,0.4,1.5,1.5,1.9,1.8l0.2,0.4
		c0.3,0.9,0.6,1.9,1.1,2.8c0.1,0.1,0.1,0.2,0.2,0.3c0.3,1.3,0.2,2.9,0,4.2c0,0.1-0.2,0.4-0.2,0.5c0,0.6,0.2,1.4-0.4,1.9
		c-0.7,0.2-2.1-1.5-2.9-1.5c-2.1,0.5-1.9,1.1-2.6,3c0,0,0,0.4,0,0.5l0.2,0.3c1,0.4,2.8,1,2.7,2.3l-0.2,0.3l-1.6,0.3
		c-0.9,1.1-1,2.3-2,3.4c-0.6,0.6-1.9,0.3-2.8,1.2c-0.8,0.9-1.2,2.2-1.8,3.2v0.3c0.1,0,0.4,0.1,0.5,0.1c1.3,0.1,2.6,0,3.8,0.5
		c0.4,0.2,2.2,1.8,2.5,2.1c0.6,0.7,1,1.5,1.5,2.3c1,1.3,2.1,2.6,3.1,3.9v0.9c-3.6,3-0.1,3.9-0.6,5.6c-0.1,0.5-0.3,1.1-0.5,1.5
		c-0.7,1.5-2.1,3.1-1.6,4.9c0.4,0.4,0.5,0.8,0.8,1.2c0.7,0.8,1.2,0.7,1.4,2l0.2,1.3c1.2,2.3,5.4,2.3,5.9,4.1c0.2,1-2.7,5.6-3.3,6.7
		v1.8c0.1,0.3,0.6,1,0.9,1.2c2.6,1.3,5.3,2.3,7.8,3.6c1.3,0.6,2.3,1.6,3.7,2.1c-2.3,3.7-2.3,5.9-2.8,10.1c0,0.1,0.1,0.5,0,0.6
		c-0.6,2.3-0.4,2.8-2.1,4.5l-1.5,1.5c-0.6,0.9-0.9,2.2-1.5,3.1c-0.2,0.3-1.5,1.3-2,1.2l-0.3,0.3l-0.3-0.6c-0.6,0.2-1.5-0.2-1.9-0.5
		c-2.3,0.7-3.7-1.9-5.5-2.8l0.1-0.2c-1.6,0.2-5.4-5-7.1-5.9l-7.5-3.6c-2.3-1.1-4.9-1-7.3-1.7c-1.3-0.4-2.5-1.2-3.8-1.6
		c-1.4-0.4-2.9-0.6-4.3-0.8c-1.4,0.5-2.7,1.2-4.1,1.6c-1.5,0.4-4.8-0.7-6.5-0.8c-2.5-0.2-4.9,0.6-7.4,1c-0.4,0-3.3,0.3-3.3,0.3
		c-0.2,0.1-0.4,0.3-0.6,0.4c0,0-4.2,0.2-4.8,0.3c-2.5,0.4-4.7,1.7-7.2,2c-2.4-2.3-10.6-4.5-14-5.4c-0.6-0.2-4.5,0-5.5,0.1
		c-1.5-1-4.5-0.1-6.1,0.1c-1.7,0.2-3.5,0.3-5.2,0.4c-1.2,0-2.5-0.3-3.7-0.2c-1.8,0.2-2.4,1-4.6,0.8c-0.7-0.1-1.4-0.4-2.1-0.5
		c-1.6-0.2-3.3,0.1-4.9-0.1c-0.7-0.1-1.3-0.4-1.9-0.5l1.6-5.9l-1.3-1l-0.5,0.5l-5.3-3l-0.8-1.3l1.5-4.5l-1.5-1.5l-0.1-0.9h-1.3
		l-0.5-0.6c0,0,1-2.6,1-3.8c0-1.1-1.5-4.5-1.5-4.5l0.4-1.1L995.9,324z"/>
	<path id="LH" class="st0" d="M984.2,291.6c-0.8,0-1.5-2.4-1.6-3c1-1.1,2-2.3,3.3-3.1l0.5,0.1l0.3,0.6c0.6-0.2,1.1-0.5,1.5-1
		l-0.1-0.4l-0.5,0.2l-0.6-0.4c1.3-1.1,3-0.9,4.6-0.5l0.4-0.3l1.1,0.1c2.6-1.5,5.8-6,8.3-6.8l0.5,0.2l0.4-0.1c0.3-1,1.3-2,2.3-2.3
		c1.1-0.3,2.6,0.9,3.8,0.8c0.6-0.1,1.1-0.4,1.7-0.5c0.7-0.1,1.8,1,2.1,1.5c-0.2,1-1.5,1.4-2,2.3l0.2,0.3l1.4-0.9
		c-0.1,0.6,0.2,1.4,0.6,1.9l0.5,0.1l0.1-0.2l-0.6-1.9l0.4-0.9l0.9-0.1l0.4-0.6l0.8,0.2l0.4-1.4l-0.4,0.2c-2.4-0.8-2.4,0.7-4.7-1.5
		l0.2-0.4c1.9-1,7.7-4.3,9.7-2.7c0.3-0.1,2.1-1.1,2.1-1.1c0.7-0.1,1.4,0.1,2.1,0.1c2.5,0,4.9-1.2,7.4-1.1c0.8,0.9,2.2,0.4,3.1,0
		c1.8,1.4,1.9,0.5,3.8,0.8c0.4,0.1,0.8,0.3,1.1,0.4c0.8,0.2,3.9,0.7,4.7,0.6c0.5-0.1,1.2-0.5,1.7-0.7c0.9,0.4,1.6,0.1,2.5,0
		c0.8,0,1.7,0.1,2.5,0.2c0.2-0.2,0.4-0.4,0.7-0.6l0,0c0.2,0.6-0.6,1.9-0.7,2.8c0.1,0.7,1.9,1.6,2.4,2c0.8,0.6,1.1,2,1.4,2.9
		c0,0.1,0,0.5,0,0.6l-3.4-0.3c-0.1,0.4,1.4,3.5,1.6,3.9c-0.6,0.1-1.6,0.4-2.1,0.7c-0.7,2.2,1.9,3.6-1.6,6.9
		c-0.1-0.1-0.6-0.5-0.6-0.6c-1.6-2.3-3.3-4.4-5.1-6.6c-0.4-0.5-1.1-0.7-1.7-0.8c-2.1-0.2-2,0.7-2.3,2.2c-0.1,0.7-0.3,1.4-0.3,2.2
		l-2.7,1.9h-0.2c-0.3-0.2-0.1-0.6-0.2-0.7l-1.8-3.2l-1.5,0.9c0.6,0.4,1.2,1.9,0.9,2.6c-1.5,4.2-1.2,3.5,1.2,7.3l0.1,0.3
		c0,0.2,0,0.1,0,0.3c-0.2,1-2,2.2-2.6,2.9c-0.5,0.6-0.1,1.6-0.7,2.3l-2.1,0.6c-0.7,0.2-1.8,3.9-1.9,4.4c-1.3,0.4-3.4,0.2-4.6,0.1
		c-3.5-2.6-2.6-2.3-7.1-0.5h-0.7c-2.7-1.3-3.1-1.9-6-1.4c-0.4,1.3,1.2,2.6,1,3.7c-1.6,0.5-3.2,1.3-4.7,2.2l-0.6-0.1
		c-0.8-0.4-1.4-3.3-2.9-4h-0.9c-0.4,0-1.1,2.2-2.4,2.3c-0.2,0-0.4,0-0.6-0.1l-0.6-0.6c-0.8-2.2,0.5-4.4-1.2-6.3
		c-0.3,0.1-1,0.4-1.1,0.7l-1.3,1.5l-2-0.6c-0.8-1.4-3.3-3.1-4.6-3.9l-0.1-0.5l0.3-0.9c1-0.7,5.4-3.8,6-4.7c-2.1-1.4-2.6-2.4-3.8-4.7
		C988.3,287.6,986.4,291.4,984.2,291.6z"/>
	<path id="AR" class="st0" d="M853.8,335.6l-3.1,0.4H848l-1.5-2.6c0,0,2.1-0.4,2.3-1c0.1-0.6,0-2.1,0-2.1l1.5-2.3c0,0-0.3-0.9-1.1-1
		c-0.9-0.1-1.3-2.3-1.3-2.3l1.9-0.9l0.9-2.6l2.4-2.5l-0.9-1.9h-0.1c0.2-0.6-0.1-1.2-0.2-1.7l0.4-0.5l0.9,0.3l0.3-0.3l0.1-0.6
		l0.7-0.2c0.2-0.3,1.7-2.8,1.8-2.8c1.3-0.9,2.8-1.3,3.9-2.5c0.5-0.6,0.8-1.3,1.4-1.7c2.2-1.9,5.2-2.6,7.5-4.2
		c0.6-0.4,1.1-1.1,1.7-1.4c1.2-0.7,5.9-1.5,7.3-1.2c1.2,1.2,2.7,1.3,4,2.3c0.4,0.3,0.9,1.2,0.4,1.6l1.5,0.5c0.4-0.9,1.5-2.7,2.4-3
		c0.3-0.1,0.5-0.1,0.8-0.2c0.4-0.1,0.6-0.5,0.9-0.7c1.1-0.6,3.4-0.4,4.6-0.2l0.5-0.2l1,0.2c0,0.6,0.3,1.4,0.8,1.8l0.9-0.3l0.4-0.6
		l-0.6-0.2l-0.3-0.5c1.9-2,4.4-2.1,6.9-2.4c0.9,0.6,2.1,0.6,3.2,0.7c0.8-0.5,1.4-1.1,2.3-1.5c2.4-1.1,4,0.6,5.1,2.5l1.5-0.4
		c0.1-0.6,0.6-1.5,1-2c0.6-0.9,7-0.6,8.4-0.8c1.2-0.1,2.5-0.1,3.8-0.4c0.6-0.1,1.2-0.5,1.8-0.5c0.7,0,1.3,0.3,1.9,0.3
		c1,0,1.9-0.4,2.9-0.4c1.3,0,2.6,0.4,4,0.4c1.9-0.1,3.7-0.9,5.6-1c0.1,0,3,0.6,3.4,0.7v1.3l1-0.5l-0.1-0.4l0.1-0.5l0.5-0.1
		c1.4,1,3.2-0.3,4.6,0.4c1.2-0.6,4.6-1.7,5.8-0.8c0.2-0.3,0.4-0.6,0.6-0.9c0.3-0.5,4.7-0.6,5.6-0.8l0.9,0.8l0.3-1
		c1.5-0.9,3.4,0.1,4.8-0.5l3.8-1.5l0.7,0.5l0.3-0.1l-0.1-0.5l0.3-0.3c1.2,0,5.1-0.6,5.6-1.7l0.8-0.1c0.1-0.1,0.1-0.1,0.2-0.2
		c0,0.6,0.8,3,1.6,3c2.2-0.1,4.1-4,5.8-4.1c1.2,2.3,1.7,3.3,3.8,4.7c-0.6,0.9-5,4-6,4.7l-0.3,0.9l0.1,0.5c1.4,0.8,3.8,2.5,4.6,3.9
		l2,0.6l1.3-1.5c0.1-0.3,0.8-0.6,1.1-0.7c1.7,2,0.4,4.2,1.2,6.3l0.6,0.6c0.2,0.1,0.5,0.1,0.6,0.1l0,0l1,3.9l-1.5,2l0.1,3.3l-3.1,4.3
		l0.3,2.9l-1.8,0.1l-0.4,1.1c0,0,1.5,3.4,1.5,4.5s-1,3.8-1,3.8l0.5,0.6h1.3l0.1,0.9l1.5,1.5l-1.5,4.5l0.8,1.3l5.3,3l0.5-0.5l1.3,1
		l-1.6,5.9c-0.1,0-0.3-0.1-0.5-0.1c-2.1-0.3-6.5,0.8-8.7,1.3c-1.5-0.6-3-1.3-4.7-1.2c-0.8,0-1.6,0.4-2.5,0.3c-0.8,0-2.7-1-3.3-0.4
		c-0.4,0.4-0.7,0.8-1,1.2l-1.1,0.3l-0.3,0.8l-1.3,0.6l-0.3-0.2l-1.4-3c-0.9-0.5-2-0.1-2.9,0.1l-0.6-0.3c-0.7,0.5-4.8-0.1-7,1.6
		c-1-0.6-2.1-0.3-3.1-0.7c-1.3-0.4-2.5-1.2-3.8-1.7c-1.6-0.7-3.4-0.8-5.1-1c-1.4-0.2-2.7-0.9-4.1-0.9c-1.3,0-2.7,0.3-4,0.5
		c-0.8,0.1-3.3,1.6-3.1,2.5c0.1,0.6,0.3,1.2,0.5,1.8c0.7,3-1,2.4-1.5,4.4c0.3,0.9,0.6,3.1,0.1,3.9c-1,1.5-3.4,2-4.1,4
		c-3.3,1-6.4,2.2-9.5,3.5c-1.1,0.5-3.3,2.8-4.1,3.8c-0.3,0.4-0.5,0.8-0.9,1.1c-1,0.8-5.6,1-6.6,0.2c-0.5-0.4-1.5-2.1-1.5-2.8
		l-0.5,1.5c0.4,0.6,0.3,1.3,0.1,1.9c-0.1,0.6-0.3,1.3-0.6,1.9c-0.8,1.5-4.2,2.9-5.8,3.3c-2.4,0.6-4.1,0.2-6.5,1.5
		c-1.2,0.6-2.2,1.6-3.4,2.1c-1.1,0.4-3.2-0.4-3.9,0.3c0.1,0.2,0.3,0.5,0.3,0.7l-0.3,0.1l-3.4-1c0,0-2.4-1.5-3.1-1.6
		c-0.8-0.1-2.4-1.4-2.9-1.9s-2.1-2.3-2.1-2.3s0.4-1.1-0.3-1.9c-0.6-0.8-1.1-2.3-1.1-2.3s0-2.6-0.1-3.1c-0.1-0.5-0.4-2-0.4-2
		s1-0.9,0.9-1.8c-0.1-0.9-0.6-2.1-0.6-2.1l0.6-2.9c0,0,0.1-1.1-0.5-1.6c-0.6-0.5-1-0.9-1-0.9l-0.4-1.6l-4.4-3.3l-2.4,0.9v-1.1
		l-2.1-1l2.8-1l-0.4-3.4l-0.5-1.3l-12.6,4.8l-3.1-0.8l-0.5-1.5c0,0-0.4-1,0.3-1.5c0.6-0.5,0.9-0.8,0.6-1.6c-0.3-0.9-1.1-3-1.1-3
		l-3.9-1.4c0,0,0-3.6,0-4.3C853.7,337.7,853.8,335.6,853.8,335.6z"/>
	<path id="PR" class="st0" d="M617.8,483.1l0.3-1.4c0.6,0.1,1,0.6,1.3,1l2.4-2.2l-0.3-0.8l-1.3-0.8l0.3-0.4c0.6,0,1.2-0.2,1.6-0.7
		l-2.5-0.5l-1.4,0.7l-0.4-0.5l-0.9,0.2l-0.7,1.9l-0.7,0.3l-0.2-0.9l1.9-2.9c3.2,0.9,7.1-2.4,5.9,4.3l0.8,0.9
		c1.4-0.4,2.9-1.5,3.8-2.6c2.6,0.6,7.4-4.3,9.9-5.3c0.5-0.2,1.1-0.1,1.6-0.4c0.5-0.2,0.9-0.7,1.4-1c3.3-1.7,7.2-2.1,10.8-3.1
		c1.5-0.4,2.5-1.6,3.9-2.1c0.5-0.2,2-0.4,2.2-0.6l8.2-5.2h0.6l0.4,0.6l0.4-0.1l0.3-0.5l-0.1-0.9l0.3-0.6l0.8-0.1l1,1.2l0.3-0.1
		c0-0.7,0.3-1.6,0.9-2.1l0.9,0.6c0.1-0.3,0.2-0.7,0.4-1c0.3-0.6,2.5-1.2,3-0.7c0.3,0.3,0.6,0.8,0.9,1.2l-1.5,1.8
		c0.2,0.8,0.9,1.8,1.7,2.1l1-0.6h1c0.6,0.4,1.1,1.1,1.3,1.8l1.3,0.5l0.1-0.3l0.5-0.1c2.3-1.8,5.1-2.8,7-5.1c3-0.6,3.6,0,6.2,1.3
		c0.4,0.2,0.9,0.3,1.2,0.6c0.1,0.1,0.9,1.3,1,1.5l-0.3,1.6c0.3,0.6,0.8,1.2,1.3,1.8c0.8-0.1,1.4,1.1,2.5,1c0.9-0.1,2.8-3.4,3.4-4.2
		c1.1-0.5,3.2,0.4,3.9,1.3l0.5-0.7c0-0.8,0.1-1.5,0-2.3c-0.1-1.2-0.9-2.3-0.5-3.5c0.4-1.4,1.3-2.7,1.9-4l-0.4-0.1l-1.3,0.5
		c-0.6,2.3-2.6,9.6-6.2,6.6c-0.9-3.1-0.4-3,0.1-6c-0.3-0.8-0.6-1.6-1-2.3c-0.4-0.7-3.7-1.1-4.5-1c0.6-1,2.3-4.2,2.3-5.3
		c0-0.5-0.4-1-0.8-1.3l-1.6-0.1l-0.9-1c-0.9,0.1-3.8,0.4-4.3-0.4c-0.4-0.7-0.8-1.6-1.1-2.4l-1.3,2.1l-1.7-4.4
		c-0.1-0.3,0.2-1.4,0.3-1.7l0.5-0.1l0.8,0.6l0.4-0.1v-0.4l-1-1.3l-0.4,0.2l-0.2,0.7c-0.8-0.6-1.1-2.5-0.6-3.4
		c-0.3-0.8-0.4-1.8-0.3-2.7l-0.4-0.2l-0.2,0.3v3.8l-0.3,0.2l-0.3-0.2l0.1-1.3l-0.3-0.4h-0.4l-1.3,1.3l-0.6-0.4
		c0.6-1.1,2.1-4,3.1-4.6c0-1.3,0.3-4.7,1.6-5.3l-0.3-0.8c0.4-1.7,0.9-3.3,1.2-5c0.2-1.2,0.3-4.7,0.7-5.6c0.7-1.5,1.5-2.9,2.2-4.4
		c0.6-0.3,1.2-0.6,1.8-0.9c1.1-0.7,0-3.3,1.5-4l1.3,0.6l3.5-3.2l0.6-3.3c0.3-0.2,2.2-1.3,2.3-1.3c0.6-0.6,0.8-1.5,1.4-2.2
		c0.9-1.1,1.9-1.4,2.3-2.9h0.3l1-1l0.4-1.7L706,387l-1.3,1.1h-0.6l-0.2-1.2l1.7-1.1c1.8,0.9,2.3,0.5,4.1,0.6c0.4,0,0.8,0.1,1.2,0.1
		c0.8,0,3.1-2.6,3.8-3.3h0.8c0.5-0.6,1-1.5,1-2.3l0.5-0.4l0.9,0.4c0.5-0.2,0.8-0.8,0.9-1.3l-0.2-0.7l-0.6-0.6l0.8-3.5l0.6,0.1
		c0.6-0.4,1.1-1,1.4-1.8l-0.2-0.3c-0.4,0.5-1.2,1.1-1.8,1.2H718l0.1-0.7l0.4-0.4l0.9-0.1l0.1-0.3c-0.4-0.5-2.1,0.1-2.8-0.6l0.3-0.5
		l1.6-0.4l0.3-0.3c0.8-0.1,1.7,0.2,2.4,0.6l0.3-0.7c1.3-0.5,4.5-1.7,5.8-1c0.2,1,0.2,1,0.6,1.8c1.5,0.1,2.6-0.3,3.1-1.7l-0.2-0.4
		l0.1-0.5l-0.5-1.6l-0.6,0.2l-0.4-0.4l-0.1-0.6c0.4-0.6,2.2-1.1,2.9-1.8h0.3l-0.4-0.7l-1.6-0.8l-0.2-0.3l0.2-0.2
		c0.9,0.1,2.6,0.2,3.5-0.2l0.4,0.2c0.1,0.7-0.2,1.6-0.7,2.1c1.8,0.6,3.6,0.2,4.5-1.6l-0.1-0.8l-0.8-0.4l-0.3-0.6l0.3-0.8l-0.5-0.9
		l0.2-1.2l0.8,0.3l0.1,0.6l1.5-0.1l0.6-0.7l-0.4-0.2v-0.6c0.8-0.4,1.9-1,2.3-1.7c0.6,0.9,1.4,2.5,2.4,2.9l0.8-0.3l0.7-1.8l1.3-1
		l0.2-1.9l0.8-0.6c-0.3-1.2-0.9-2.4-1.7-3.3h-0.7l-0.7-0.7c-2,0.6-2.5,1.2-3.3,3.2l-0.4,0.1l-0.2-0.9c1-2.9,3.5-3.9,6.1-5
		c1.7,0.6,1.2,5.1,2.5,6h1.4c1.1,1.6,2.3,1.4,3.8,1l0.3-0.6l-0.3-0.9l0.8-0.4l0.9,0.4v-1.1l1.5-1.7h0.6l0.5,1.1l0.7-0.1
		c0.9-0.9,1.9-2.2,1.6-3.6l0.7-0.9c0.6,0,1.2-0.1,1.8-0.2l0.3,0.3l0.7,0.1l0.3-0.3l0.1-0.8c0.3,0,0.7,0,1,0.1
		c0.8,0.2,1.6,2.1,1.8,2.8c0.2-0.1,0.5-0.2,0.7-0.3c0.6-0.3,0.7-3.3,1.1-4.1c0.3-0.6,2-2.2,2.7-2.1c0.8,0.1,1.5,0,2.3,0.1
		c1.3,0.1,2.5,0.5,3.7,0.8l1-0.7l2.2,0.1c0.5-1.3,2.9-2.4,4.2-2.1c0.9-0.9,3.3-1.8,4.5-2.3c3.2-1.2,3.5,0.7,6.4-2.8l0.5,1.2l0.4,0.1
		l0.7-0.3c-0.4-0.4-0.6-1-0.5-1.5l-1.5,0.3l-0.4-2l0.6-0.1l0.6,0.4l-0.5-0.8l0.2-0.4c0.6,0,1.5,0.8,2,1.3l-0.5,1.2l0.2,0.5l0.2,0.1
		l0.3-0.3l0.1-2.3l0.2-0.3h0.4l0.4,2.5l0.3,0.1c0.5-0.7,1.5-0.7,2.3-0.9c0.1,0.6,0,1.2-0.3,1.8l0.7,0.7c0.6-0.1,1.2-0.4,1.8-0.6
		c1.1-0.3,2.3-0.3,3.4-0.5c0.2-0.9,0.7-1.6,1.3-2.3c-0.3-0.3-2.2-1.7-2.1-2c0.1-0.2,0.2-0.5,0.3-0.7c0.9-0.1,2.2-0.7,2.8-1.5
		c1.3-0.5,2.5,0.5,3.7,0.6c1.3,0.2,2.7-0.2,4-0.3l0.8,0.9l0.9-0.1l0.4-0.4l-0.3-1.4l0.4-0.6c1.5-0.5,1.7-2,1.8-3.4l0.6-0.5l1.2-0.2
		l1-1.4l0.9,0.2l0.2,0.5l-0.5,0.9l0.9,0.2l0.7,1c0.8,0.1,1.9,0,2.6-0.4c0.4,0.2,0.7,0.4,1.1,0.6c0.8-0.7,2-1.6,3.1-1.7
		c0.3-0.5,1.9-2.9,1.8-3.4c-0.1-0.6-0.2-1.3-0.4-1.9l-1,0.1l-0.5-0.4l1.1-1.9l2.1,0.6l0.2-0.7l1.1-0.9l2.5-0.1l0.2,0.4l-2.6,0.7
		l-0.6,1l0.2,0.4c-0.2,0.5-1,1.2-1.4,1.6l1.3,0.1l1.8-1.6l0.4,0.3l1.1-0.1l0.2,0.4l-0.6,1l0.3,0.6l0.3-0.1l0.7,0.7l1.1-0.6l1.8,0.9
		l1-0.2l-0.5,1.8l0.4,0.8l2.1-0.4c0.4-0.6,0.3-2.4,0.3-3.2l0.3-0.5c0.9-0.5,2-0.7,3-1c0,0,0,0,0-0.1h0.1l0.9,1.9l-2.4,2.5l-0.9,2.6
		l-1.9,0.9c0,0,0.4,2.1,1.3,2.3c0.9,0.1,1.1,1,1.1,1l-1.5,2.3c0,0,0.1,1.5,0,2.1c-0.1,0.6-2.3,1-2.3,1l1.5,2.6h2.6l3.1-0.4
		c0,0-0.1,2.1-0.1,2.8c0,0.6,0,4.3,0,4.3l3.9,1.4c0,0,0.9,2.1,1.1,3c0.3,0.9,0,1.1-0.6,1.6c-0.6,0.5-0.3,1.5-0.3,1.5l0.5,1.5
		l3.1,0.8l12.6-4.8l0.5,1.3l0.4,3.4l-2.8,1l2.1,1v1.1l2.4-0.9l4.4,3.3l0.4,1.6c0,0,0.4,0.4,1,0.9c0.6,0.5,0.5,1.6,0.5,1.6l-0.6,2.9
		c0,0,0.5,1.3,0.6,2.1c0.1,0.9-0.9,1.8-0.9,1.8s0.3,1.5,0.4,2c0.1,0.5,0.1,3.1,0.1,3.1s0.5,1.5,1.1,2.3c0.6,0.8,0.3,1.9,0.3,1.9
		s1.6,1.8,2.1,2.3s2.1,1.8,2.9,1.9c0.8,0.1,3.1,1.6,3.1,1.6l3.4,1l0.3-0.1c0.8,2.3-1.6,5.1-3.4,6.3c-0.2,0.9-0.1,2-0.5,2.9
		c-0.4,1-1.2,1.7-1.7,2.6c-0.7,1.2-0.7,2.6-1.3,3.8c-0.4,0.7-0.9,1.3-1.3,2c-0.3,0.6-2.3,5-2.4,5c-3.2,3.1-5.2,4.5-9.8,3.5
		c-0.7-0.7-1.3-1.4-1.8-2.3L873,408l-0.6,1c-0.5-0.8-2.6-2.8-3.7-2.2c-0.7,0.5-1.7,1.2-2.3,1.8c-0.2,0.2-0.2,1.4-0.2,1.7l0.3,0.5
		v0.5l-0.5,0.5l-1.8-1l-0.9,0.1l-0.5,0.9c0.2,1.4,0.7,2.9,0.3,4.4l-1.2,0.5l0.1,0.8l-2.9,1.4l-0.9-0.3l-1,2.6l2.1,2.5
		c-0.1,0.5-1.4,1.5-2,1.5c-0.2,0-0.5-0.1-0.7-0.1l-0.1-0.2l1-1l-0.3-1.4c-1,2.7-1.3,1.7-2.4,3.5c-0.8,1.3-0.7,3.1-2.2,3.9l-0.6-0.4
		l0.2-1.5c-0.3-0.4-0.8-1.3-0.8-1.7l-0.5-0.4h-0.5l-0.4,0.5c0.2,0.6,0.4,1.4,0.2,2l1.5,1.5l-0.3,1.1c-0.9,0.1-1.7,0.4-2.5,0.9
		l-1.5-0.6c0.7-0.3,1.3-1,1.7-1.6l-0.5-0.8h-1.1l-0.5-0.3c-0.1-0.7-0.5-1.5-1-2l-0.6,0.7l0.4,1.3l-0.2,0.6l0.6,1.7l-0.3,0.3
		l-1.2-0.5l-0.4,0.2v0.5l0.4,0.6l-0.2,0.5l-1,0.4l-0.9,1.2l-1.4,0.4c-0.5-0.3-1.4-0.9-2-0.9c-0.6,0-1.2,0.3-1.7,0.4
		c-1.8,0.5-3.1,0.9-4.3,2.5h-0.5c-0.2-0.2-1.4-1.6-1.4-1.6c-0.9-0.4-1.6-0.1-2.5-0.1c-1.2-0.1-3.6-1.3-4.7-1.9l-0.4-0.8l-1.8-0.2
		l-0.2-0.4l1.1-1.8l-0.6-0.9l-1-0.4c-0.3-0.5-0.5-1.1-1-1.5c-0.7-0.7-1.2-0.4-1.6-1.6c0.4-0.7,0.7-1.9,0.4-2.7l-0.5,0.2
		c-0.4,1-0.6,2.1-1.2,3c-0.7,1.1-1.9,1.9-2.8,2.9c-0.6,0.6-1,1.4-1.5,2c-1.4,1.4-3,2.6-4.1,4.3l-1.8,0.2l-2.1,2l-1.1,0.2l-0.7-0.3
		l0.2-0.3l1.1-0.4c-0.3-1.3-1.2-2.8-2.5-3.4c-2,1-1.4,1.1-1.7,3c-0.1,0.1-0.2,0.2-0.4,0.3c-0.2,0.1-3.4-0.9-4.1-0.8
		c-1.2,0.1-2.5,0.4-3.6,0.8c-0.8,0.3-1.4,0.9-2.2,1.1c-1.9,0.5-3.9,0.3-5.9,0.4l-0.2-0.6l0.8-1.2l-0.2-1.6l-0.5-0.6l-0.6-0.1
		l0.5,1.5l-0.6,1l-0.5-0.1c-0.2-0.2-0.3-0.5-0.5-0.7c-0.8-0.8-5.7,2.6-7.4,1.7l-0.7-1.3l-0.8,1c-1.3-0.1-2.5-0.5-3.6-1.1l-2.1,0.5
		l-0.1-1.3l-1-0.2l-0.6,1.5c-0.6,0.1-1.2,0.2-1.7,0.5c-2.5,1.2-4.6,3.3-6.9,4.9v0.4c-1.4,1.2-3.2,3.8-2.7,5.7l-0.7,1.1
		c0.5,0.6,1.3,1.1,1.6,1.7c0.5,0.8,0.7,4.2,0,4.9l-0.5-0.3l-0.4-2c-0.7,0-2.4,0.6-2.9,1s-0.4,3.3-0.2,4c0.2,0.8,1.4,2.5,2.1,3
		l1.1,0.2l1.4-0.8v-1c-0.5-0.5-0.9-1.5-0.8-2.1l0.5-0.4c0.5,0.4,1.5,2,1.4,2.6c-0.2,0.8-1.1,2.8-1.5,3.4c-1.2,1.6-5.7,4.6-5.9,6.4
		c-0.1,0.7,1.1,2.2,1.5,2.9c-0.8,2.2-1.9,4.5-3.8,6c-0.8,0.6-2,1.2-2.4,2.1c-0.4-0.3-1-1-1.4-1.2c-0.3-0.1-0.6-0.1-0.8-0.3l-3-2
		c-1.4-0.1-2.7-0.9-4.2-0.8l-7.3,0.7c-2.2,0.2-2.8,1.5-4.7,2.2c-2.6,0.9-5.4,1-7.9,1.9c-0.7,0.2-1.2,0.8-2,1c-0.7,0.2-1.5,0-2.2,0.1
		c-1,0.1-1.9,0.4-2.9,0.6c-2.1,0.6-4.3,2-6.1,3.3c-0.8,0.6-1.5,1.3-2.3,1.9c-1,0.7-2.1,1.1-3.1,1.8c-1,0.8-1.8,1.8-2.7,2.6
		c-3.8,3.4-7.8,6.5-11.8,9.8c-2.4,2-3,1.7-5.9,1.7c-1.2,0-5,1.3-6.4,1.7l-0.9-0.4l-0.5-0.8l0.3-6.5c0-0.5,1.8-1.9,2.3-2.2
		c0.4-2.6,2-3.6,3.8-5.4c0.8-0.8,3.2-4,3-5c-0.3-1.5-0.7-3.1-1.2-4.5c-0.2-0.7-1.2-1.3-1.9-1.7c-3.1-2.1-3.7-2.4-7.5-2.4
		c-0.6,0-1.2,0.1-1.8,0c-1-0.2-1.4-0.7-2.5-0.5c-1.5,0.2-3,0.8-4.5,1.1c-0.7,0.1-1.5,0.1-2.2,0.3c-1.5,0.3-3.6,0.9-5,1.6
		c-0.3,0.2-0.6,0.6-0.9,0.8l-2.2,0.8c-1.4,0.5-2.8,1.2-4.2,1.5c-0.5,0.1-1,0-1.5,0.2c-1.3,0.4-2.4,1.3-3.6,1.8
		c-0.8,0.3-1.7,0.4-2.5,0.8c-0.9,0.4-3.6,2.6-4.2,3.4c-0.7,0.9-1.2,1.9-1.9,2.9c-1.3,1.8-4.6,4.8-6.8,5.2c-1.4,0.2-2.7-0.4-4-0.6
		l-9.3-1.6c-1-0.2-5.1-0.7-5.7-1.1c-0.5-0.3-0.7-0.8-1.2-1.1c-1.1-0.6-2.6-1.2-2.9-2.6c-0.8-3,0.9-5.9,2.2-8.4
		c0.5-1,1.4-1.8,2.1-2.6l0.9,0.4l1.2,2.5l0.9,0.5l0.6,1.4c1,0.3,2.6,0.3,3.5-0.3l0.8,0.3c0.3,0.9,1.1,1.1,2,1l0.9-0.8L617.8,483.1z"
		/>
</g>
</svg>
